<svg width="213" height="78" viewBox="0 0 213 78" fill="none" xmlns="http://www.w3.org/2000/svg">
<rect x="0.274414" width="212.451" height="77.3177" rx="11.6706" fill="#090909"/>
<path d="M48.9712 39.8315C49.0131 36.5649 50.7606 33.4739 53.5329 31.7629C51.784 29.2555 48.8547 27.6657 45.8071 27.5699C42.5565 27.2274 39.4052 29.5226 37.7488 29.5226C36.0603 29.5226 33.51 27.6039 30.7637 27.6607C27.1841 27.7768 23.847 29.8199 22.1054 32.9617C18.3617 39.4686 21.1542 49.0316 24.7403 54.2913C26.5345 56.8668 28.6315 59.7438 31.3753 59.6418C34.0602 59.53 35.063 57.923 38.304 57.923C41.5149 57.923 42.4557 59.6418 45.2552 59.5769C48.1363 59.5299 49.9515 56.9899 51.6828 54.39C52.9719 52.5548 53.9639 50.5266 54.622 48.3804C51.2362 46.9428 48.9751 43.5221 48.9712 39.8315Z" fill="white"/>
<path d="M43.6834 24.1109C45.2543 22.2177 46.0282 19.7844 45.8408 17.3276C43.4409 17.5807 41.224 18.7322 39.6318 20.5527C38.075 22.3315 37.2648 24.722 37.4179 27.0849C39.8188 27.1097 42.179 25.9894 43.6834 24.1109Z" fill="white"/>
<path d="M144.736 36.4577V40.4161H142.265V43.0121H144.736V51.8326C144.736 54.8445 146.094 56.0492 149.508 56.0492C150.108 56.0492 150.68 55.9775 151.18 55.8915V53.3242C150.751 53.3672 150.479 53.3959 150.008 53.3959C148.479 53.3959 147.808 52.6788 147.808 51.0438V43.0121H151.18V40.4161H147.808V36.4577H144.736Z" fill="white"/>
<path d="M159.878 56.2644C164.421 56.2644 167.207 53.2095 167.207 48.1466C167.207 43.1125 164.407 40.0432 159.878 40.0432C155.335 40.0432 152.534 43.1125 152.534 48.1466C152.534 53.2095 155.32 56.2644 159.878 56.2644ZM159.878 53.525C157.206 53.525 155.706 51.5601 155.706 48.1466C155.706 44.7619 157.206 42.7826 159.878 42.7826C162.535 42.7826 164.049 44.7619 164.049 48.1466C164.049 51.5458 162.535 53.525 159.878 53.525Z" fill="white"/>
<path d="M169.59 55.9632H172.662V46.7411C172.662 44.5467 174.305 43.0695 176.634 43.0695C177.176 43.0695 178.091 43.1699 178.348 43.2559V40.2154C178.019 40.1293 177.434 40.0863 176.976 40.0863C174.948 40.0863 173.219 41.205 172.776 42.7396H172.548V40.3444H169.59V55.9632Z" fill="white"/>
<path d="M185.975 42.6679C188.246 42.6679 189.732 44.2599 189.803 46.7124H181.946C182.117 44.2742 183.703 42.6679 185.975 42.6679ZM189.789 51.7466C189.218 52.9656 187.946 53.6397 186.089 53.6397C183.632 53.6397 182.046 51.9043 181.946 49.1649V48.9928H192.932V47.9172C192.932 43.0121 190.318 40.0432 185.989 40.0432C181.603 40.0432 178.817 43.2129 178.817 48.204C178.817 53.1951 181.546 56.2644 186.003 56.2644C189.561 56.2644 192.046 54.5433 192.746 51.7466H189.789Z" fill="white"/>
<path d="M124.593 50.1954C124.83 54.0307 128.014 56.4835 132.752 56.4835C137.816 56.4835 140.985 53.9118 140.985 49.8089C140.985 46.5831 139.179 44.7993 134.796 43.7736L132.441 43.1938C129.657 42.5398 128.532 41.6627 128.532 40.1316C128.532 38.1991 130.279 36.9355 132.9 36.9355C135.388 36.9355 137.106 38.1694 137.417 40.1464H140.645C140.452 36.5342 137.283 33.9922 132.945 33.9922C128.28 33.9922 125.171 36.5342 125.171 40.3546C125.171 43.506 126.933 45.379 130.798 46.2858L133.552 46.9548C136.38 47.6237 137.624 48.6048 137.624 50.24C137.624 52.1428 135.669 53.5253 133.004 53.5253C130.146 53.5253 128.162 52.232 127.88 50.1954H124.593Z" fill="white"/>
<path d="M92.7745 40.0863C90.6601 40.0863 88.8315 41.1476 87.8886 42.926H87.66V40.3444H84.7027V61.1551H87.7743V53.5967H88.0171C88.8315 55.2461 90.5887 56.2213 92.8031 56.2213C96.7319 56.2213 99.2321 53.1091 99.2321 48.1466C99.2321 43.1842 96.7319 40.0863 92.7745 40.0863ZM91.9031 53.4533C89.3315 53.4533 87.7171 51.4167 87.7171 48.161C87.7171 44.8909 89.3315 42.8543 91.9174 42.8543C94.5175 42.8543 96.0747 44.8479 96.0747 48.1466C96.0747 51.4597 94.5175 53.4533 91.9031 53.4533Z" fill="white"/>
<path d="M109.98 40.0863C107.866 40.0863 106.037 41.1476 105.094 42.926H104.866V40.3444H101.908V61.1551H104.98V53.5967H105.223C106.037 55.2461 107.794 56.2213 110.009 56.2213C113.937 56.2213 116.438 53.1091 116.438 48.1466C116.438 43.1842 113.937 40.0863 109.98 40.0863ZM109.109 53.4533C106.537 53.4533 104.923 51.4167 104.923 48.161C104.923 44.8909 106.537 42.8543 109.123 42.8543C111.723 42.8543 113.28 44.8479 113.28 48.1466C113.28 51.4597 111.723 53.4533 109.109 53.4533Z" fill="white"/>
<path d="M79.1917 55.9632H82.7159L75.0011 34.5125H71.4325L63.7178 55.9632H67.1235L69.0929 50.2698H77.2371L79.1917 55.9632ZM73.0465 38.4072H73.2983L76.393 47.4751H69.9369L73.0465 38.4072Z" fill="white"/>
<path d="M63.6328 19.3823V27.8612H66.6823C69.1991 27.8612 70.6565 26.3041 70.6565 23.5953C70.6565 20.9276 69.1874 19.3823 66.6823 19.3823H63.6328ZM64.9439 20.581H66.5359C68.286 20.581 69.322 21.6974 69.322 23.6129C69.322 25.5578 68.3035 26.6625 66.5359 26.6625H64.9439V20.581Z" fill="white"/>
<path d="M75.12 27.9846C76.9813 27.9846 78.1226 26.733 78.1226 24.6588C78.1226 22.5964 76.9754 21.3389 75.12 21.3389C73.2587 21.3389 72.1115 22.5964 72.1115 24.6588C72.1115 26.733 73.2529 27.9846 75.12 27.9846ZM75.12 26.8623C74.0255 26.8623 73.4109 26.0573 73.4109 24.6588C73.4109 23.2721 74.0255 22.4612 75.12 22.4612C76.2087 22.4612 76.8291 23.2721 76.8291 24.6588C76.8291 26.0514 76.2087 26.8623 75.12 26.8623Z" fill="white"/>
<path d="M87.8422 21.4623H86.5838L85.4483 26.3452H85.3488L84.0377 21.4623H82.832L81.5209 26.3452H81.4273L80.2859 21.4623H79.0099L80.7659 27.8612H82.0594L83.3705 23.1487H83.47L84.7869 27.8612H86.0921L87.8422 21.4623Z" fill="white"/>
<path d="M89.2914 27.8612H90.5498V24.1182C90.5498 23.1193 91.141 22.4965 92.0716 22.4965C93.0022 22.4965 93.4471 23.0077 93.4471 24.036V27.8612H94.7055V23.7187C94.7055 22.1968 93.9212 21.3389 92.4989 21.3389C91.539 21.3389 90.9068 21.7679 90.5966 22.4789H90.503V21.4623H89.2914V27.8612Z" fill="white"/>
<path d="M96.6873 27.8612H97.9457V18.9651H96.6873V27.8612Z" fill="white"/>
<path d="M102.678 27.9846C104.54 27.9846 105.681 26.733 105.681 24.6588C105.681 22.5964 104.534 21.3389 102.678 21.3389C100.817 21.3389 99.67 22.5964 99.67 24.6588C99.67 26.733 100.811 27.9846 102.678 27.9846ZM102.678 26.8623C101.584 26.8623 100.969 26.0573 100.969 24.6588C100.969 23.2721 101.584 22.4612 102.678 22.4612C103.767 22.4612 104.388 23.2721 104.388 24.6588C104.388 26.0514 103.767 26.8623 102.678 26.8623Z" fill="white"/>
<path d="M109.431 26.9034C108.746 26.9034 108.248 26.5685 108.248 25.9927C108.248 25.4286 108.646 25.1289 109.524 25.0701L111.081 24.9703V25.505C111.081 26.2982 110.379 26.9034 109.431 26.9034ZM109.109 27.967C109.946 27.967 110.642 27.6027 111.023 26.9622H111.122V27.8612H112.334V23.4895C112.334 22.1381 111.432 21.3389 109.834 21.3389C108.389 21.3389 107.359 22.0441 107.23 23.1428H108.447C108.588 22.6904 109.074 22.4319 109.776 22.4319C110.636 22.4319 111.081 22.8138 111.081 23.4895V24.0419L109.354 24.1418C107.839 24.2358 106.984 24.8997 106.984 26.0514C106.984 27.2207 107.88 27.967 109.109 27.967Z" fill="white"/>
<path d="M116.604 27.967C117.482 27.967 118.225 27.5498 118.606 26.8505H118.705V27.8612H119.911V18.9651H118.653V22.4789H118.559C118.214 21.7738 117.476 21.3566 116.604 21.3566C114.994 21.3566 113.958 22.6375 113.958 24.6588C113.958 26.686 114.983 27.967 116.604 27.967ZM116.961 22.4906C118.015 22.4906 118.676 23.3309 118.676 24.6647C118.676 26.0044 118.021 26.8329 116.961 26.8329C115.896 26.8329 115.258 26.0162 115.258 24.6588C115.258 23.3132 115.902 22.4906 116.961 22.4906Z" fill="white"/>
<path d="M128.071 27.9846C129.933 27.9846 131.074 26.733 131.074 24.6588C131.074 22.5964 129.927 21.3389 128.071 21.3389C126.21 21.3389 125.063 22.5964 125.063 24.6588C125.063 26.733 126.204 27.9846 128.071 27.9846ZM128.071 26.8623C126.977 26.8623 126.362 26.0573 126.362 24.6588C126.362 23.2721 126.977 22.4612 128.071 22.4612C129.16 22.4612 129.78 23.2721 129.78 24.6588C129.78 26.0514 129.16 26.8623 128.071 26.8623Z" fill="white"/>
<path d="M132.74 27.8612H133.998V24.1182C133.998 23.1193 134.589 22.4965 135.52 22.4965C136.451 22.4965 136.895 23.0077 136.895 24.036V27.8612H138.154V23.7187C138.154 22.1968 137.37 21.3389 135.947 21.3389C134.987 21.3389 134.355 21.7679 134.045 22.4789H133.951V21.4623H132.74V27.8612Z" fill="white"/>
<path d="M143.95 19.87V21.4917H142.937V22.5553H143.95V26.1689C143.95 27.4029 144.506 27.8964 145.904 27.8964C146.15 27.8964 146.384 27.8671 146.589 27.8318V26.78C146.414 26.7977 146.302 26.8094 146.109 26.8094C145.483 26.8094 145.208 26.5156 145.208 25.8458V22.5553H146.589V21.4917H145.208V19.87H143.95Z" fill="white"/>
<path d="M148.278 27.8612H149.537V24.1241C149.537 23.1546 150.11 22.5024 151.141 22.5024C152.03 22.5024 152.504 23.0195 152.504 24.0419V27.8612H153.763V23.7304C153.763 22.2086 152.926 21.3448 151.568 21.3448C150.608 21.3448 149.935 21.7738 149.625 22.4906H149.525V18.9651H148.278V27.8612Z" fill="white"/>
<path d="M158.302 22.4142C159.233 22.4142 159.842 23.0665 159.871 24.0712H156.652C156.722 23.0723 157.372 22.4142 158.302 22.4142ZM159.865 26.1337C159.631 26.6331 159.11 26.9093 158.349 26.9093C157.342 26.9093 156.693 26.1983 156.652 25.076V25.0055H161.153V24.5648C161.153 22.5553 160.082 21.3389 158.308 21.3389C156.511 21.3389 155.37 22.6375 155.37 24.6823C155.37 26.7271 156.488 27.9846 158.314 27.9846C159.771 27.9846 160.79 27.2795 161.077 26.1337H159.865Z" fill="white"/>
</svg>
