<svg width="80" height="78" viewBox="0 0 80 78" fill="none" xmlns="http://www.w3.org/2000/svg">
<g clip-path="url(#clip0_140_203740)">
<path d="M73.7607 37.9808L69.1572 37.3607C68.7816 30.608 66.0217 24.4899 61.7153 19.8412L64.9407 16.5906C65.3191 16.2094 65.3191 15.5932 64.9407 15.2119C64.5623 14.8307 63.9507 14.8307 63.5723 15.2119L60.3468 18.4625C55.7144 14.1073 49.6128 11.3198 42.8784 10.9589L42.2493 6.22739C42.1855 5.74389 41.7751 5.38208 41.2903 5.38208C40.8055 5.38208 40.3952 5.74389 40.3313 6.22739L39.7013 10.9736C33.0453 11.3773 27.0153 14.1482 22.4273 18.4616L19.2009 15.211C18.8225 14.8298 18.2109 14.8298 17.8325 15.211C17.4541 15.5922 17.4541 16.2084 17.8325 16.5897L21.0589 19.8403C16.7584 24.4821 14.0003 30.5905 13.6189 37.3316L8.819 37.981C8.33797 38.0453 7.97998 38.4587 7.97998 38.9472C7.97998 39.4356 8.3391 39.849 8.819 39.9134L13.6189 40.5609C14.002 47.298 16.7591 53.4035 21.0578 58.0444L17.8323 61.294C17.4539 61.6753 17.4539 62.2915 17.8323 62.6727C18.0209 62.8628 18.2687 62.9584 18.5165 62.9584C18.7643 62.9584 19.0119 62.8628 19.2007 62.6727L22.4262 59.4231C27.0133 63.7364 33.0432 66.5083 39.6992 66.912L40.3311 71.6554C40.3959 72.14 40.8053 72.5007 41.2901 72.5007C41.7749 72.5007 42.1853 72.1389 42.2492 71.6554L42.8782 66.9276C49.6126 66.5679 55.7152 63.7795 60.3476 59.4231L63.5721 62.6727C63.7607 62.8628 64.0085 62.9584 64.2563 62.9584C64.5041 62.9584 64.7517 62.8628 64.9405 62.6727C65.3189 62.2915 65.3189 61.6753 64.9405 61.294L61.716 58.0444C66.0205 53.3976 68.7795 47.2835 69.156 40.5346L73.7605 39.9136C74.2415 39.8492 74.5995 39.4358 74.5995 38.9474C74.5995 38.4589 74.2408 38.0451 73.7607 37.9808ZM41.2914 13.7024L43.7998 32.5635C43.0489 32.2738 42.2378 32.1091 41.3873 32.1091C40.4621 32.1091 39.5815 32.2973 38.7772 32.6366L41.2914 13.7024ZM35.4851 34.3743L20.1484 36.448C20.6788 31.8646 22.6626 27.7025 25.6257 24.44L35.4851 34.3743ZM26.9942 23.0604C30.2128 20.0935 34.3121 18.1017 38.8266 17.5536L36.7856 32.9263L26.9942 23.0604ZM35.1008 36.3934C34.7854 37.1812 34.6073 38.0402 34.6073 38.9411C34.6073 39.843 34.7863 40.7029 35.1027 41.4926L16.2301 38.9449L35.1008 36.3934ZM35.482 43.5108L25.5724 53.4947C22.6305 50.2479 20.6777 46.0848 20.1482 41.4408L35.482 43.5108ZM36.776 44.9645L38.8228 60.3274C34.2465 59.7796 30.1442 57.8187 26.942 54.8734L36.776 44.9645ZM36.5428 38.9401C36.5428 36.2483 38.7164 34.0583 41.3873 34.0583C44.0582 34.0583 46.2318 36.2483 46.2318 38.9401C46.2318 41.6311 44.0582 43.821 41.3873 43.821C38.7152 43.8208 36.5428 41.6311 36.5428 38.9401ZM45.8224 44.788L55.7872 54.8275C52.5249 57.8334 48.353 59.8359 43.7525 60.3508L45.8224 44.788ZM47.2691 43.4874L62.6269 41.4146C62.1005 46.0145 60.1195 50.1835 57.1554 53.4478L47.2691 43.4874ZM47.6822 41.4643C47.9918 40.6824 48.1671 39.8321 48.1671 38.9409C48.1671 38.0547 47.9937 37.2103 47.6872 36.4322L66.3402 38.9466L47.6822 41.4643ZM47.2564 34.4064L57.1552 24.4334C60.1223 27.7015 62.1043 31.8755 62.6288 36.4794L47.2564 34.4064ZM45.8233 33.0931L43.7533 17.5304C48.3529 18.0442 52.5239 20.0478 55.786 23.0537L45.8233 33.0931ZM39.4391 12.9468L39.0927 15.5579C28.0925 16.648 19.2098 25.6237 18.1693 36.7152L15.5806 37.0652C16.4924 24.21 26.6903 13.9083 39.4391 12.9468ZM15.5797 40.8248L18.1665 41.1739C19.2174 52.4253 27.93 61.2283 39.0887 62.3261L39.4361 64.9361C26.6912 63.973 16.4953 53.676 15.5797 40.8248ZM41.2894 64.1883L38.7655 45.2395C39.5726 45.5817 40.4581 45.7719 41.3871 45.7719C42.2376 45.771 43.0487 45.6062 43.7996 45.3166L41.2894 64.1883ZM43.1407 64.9508L43.4881 62.3418C54.6064 61.3365 63.5645 52.3384 64.606 41.1464L67.1966 40.7964C66.2887 53.7278 55.9864 64.0802 43.1407 64.9508ZM64.6079 36.7455C63.5714 25.5506 54.6093 16.5426 43.4881 15.5376L43.1417 12.9323C55.9902 13.8039 66.2937 24.1603 67.1975 37.0945L64.6079 36.7455Z" fill="#02FFFF"/>
<path d="M41.2903 0C19.9459 0 2.58105 17.4951 2.58105 39.0005C2.58105 60.5049 19.9459 78 41.2903 78C62.6346 78 79.9995 60.5049 79.9995 39.0005C79.9995 17.4951 62.6344 0 41.2903 0ZM41.2903 76.05C21.0125 76.05 4.51651 59.4293 4.51651 39.0005C4.51651 18.5707 21.0135 1.94998 41.2903 1.94998C61.567 1.94998 78.064 18.5707 78.064 39.0005C78.064 59.4293 61.567 76.05 41.2903 76.05Z" fill="#02FFFF"/>
</g>
<g clip-path="url(#clip1_140_203740)">
<path d="M71.1801 37.9808L66.5766 37.3607C66.201 30.608 63.4411 24.4899 59.1347 19.8412L62.3602 16.5906C62.7386 16.2094 62.7386 15.5932 62.3602 15.2119C61.9818 14.8307 61.3701 14.8307 60.9917 15.2119L57.7663 18.4625C53.1338 14.1073 47.0322 11.3198 40.2978 10.9589L39.6688 6.22739C39.6049 5.74389 39.1946 5.38208 38.7097 5.38208C38.2249 5.38208 37.8146 5.74389 37.7507 6.22739L37.1207 10.9736C30.4648 11.3773 24.4348 14.1482 19.8468 18.4616L16.6204 15.211C16.242 14.8298 15.6303 14.8298 15.2519 15.211C14.8735 15.5922 14.8735 16.2084 15.2519 16.5897L18.4783 19.8403C14.1778 24.4821 11.4198 30.5905 11.0383 37.3316L6.23843 37.981C5.7574 38.0453 5.39941 38.4587 5.39941 38.9472C5.39941 39.4356 5.75853 39.849 6.23843 39.9134L11.0383 40.5609C11.4215 47.298 14.1785 53.4035 18.4772 58.0444L15.2517 61.294C14.8733 61.6753 14.8733 62.2915 15.2517 62.6727C15.4404 62.8628 15.6882 62.9584 15.936 62.9584C16.1837 62.9584 16.4313 62.8628 16.6202 62.6727L19.8456 59.4231C24.4327 63.7364 30.4627 66.5083 37.1187 66.912L37.7505 71.6554C37.8154 72.14 38.2247 72.5007 38.7096 72.5007C39.1944 72.5007 39.6047 72.1389 39.6686 71.6554L40.2976 66.9276C47.032 66.5679 53.1346 63.7795 57.767 59.4231L60.9915 62.6727C61.1802 62.8628 61.428 62.9584 61.6758 62.9584C61.9235 62.9584 62.1711 62.8628 62.36 62.6727C62.7384 62.2915 62.7384 61.6753 62.36 61.294L59.1355 58.0444C63.44 53.3976 66.1989 47.2835 66.5755 40.5346L71.1799 39.9136C71.6609 39.8492 72.0189 39.4358 72.0189 38.9474C72.0189 38.4589 71.6602 38.0451 71.1801 37.9808ZM38.7109 13.7024L41.2192 32.5635C40.4683 32.2738 39.6573 32.1091 38.8067 32.1091C37.8815 32.1091 37.0009 32.2973 36.1967 32.6366L38.7109 13.7024ZM32.9045 34.3743L17.5679 36.448C18.0982 31.8646 20.0821 27.7025 23.0452 24.44L32.9045 34.3743ZM24.4136 23.0604C27.6323 20.0935 31.7315 18.1017 36.246 17.5536L34.2051 32.9263L24.4136 23.0604ZM32.5202 36.3934C32.2048 37.1812 32.0267 38.0402 32.0267 38.9411C32.0267 39.843 32.2057 40.7029 32.5221 41.4926L13.6495 38.9449L32.5202 36.3934ZM32.9015 43.5108L22.9919 53.4947C20.0499 50.2479 18.0971 46.0848 17.5677 41.4408L32.9015 43.5108ZM34.1954 44.9645L36.2422 60.3274C31.6659 59.7796 27.5636 57.8187 24.3614 54.8734L34.1954 44.9645ZM33.9622 38.9401C33.9622 36.2483 36.1358 34.0583 38.8067 34.0583C41.4776 34.0583 43.6512 36.2483 43.6512 38.9401C43.6512 41.6311 41.4776 43.821 38.8067 43.821C36.1347 43.8208 33.9622 41.6311 33.9622 38.9401ZM43.2418 44.788L53.2066 54.8275C49.9443 57.8334 45.7725 59.8359 41.172 60.3508L43.2418 44.788ZM44.6885 43.4874L60.0463 41.4146C59.5199 46.0145 57.5389 50.1835 54.5748 53.4478L44.6885 43.4874ZM45.1017 41.4643C45.4113 40.6824 45.5865 39.8321 45.5865 38.9409C45.5865 38.0547 45.4132 37.2103 45.1066 36.4322L63.7596 38.9466L45.1017 41.4643ZM44.6758 34.4064L54.5747 24.4334C57.5417 27.7015 59.5237 31.8755 60.0482 36.4794L44.6758 34.4064ZM43.2428 33.0931L41.1727 17.5304C45.7723 18.0442 49.9434 20.0478 53.2055 23.0537L43.2428 33.0931ZM36.8586 12.9468L36.5121 15.5579C25.5119 16.648 16.6292 25.6237 15.5887 36.7152L13.0001 37.0652C13.9118 24.21 24.1097 13.9083 36.8586 12.9468ZM12.9991 40.8248L15.5859 41.1739C16.6368 52.4253 25.3494 61.2283 36.5082 62.3261L36.8556 64.9361C24.1106 63.973 13.9147 53.676 12.9991 40.8248ZM38.7088 64.1883L36.185 45.2395C36.992 45.5817 37.8775 45.7719 38.8065 45.7719C39.6571 45.771 40.4681 45.6062 41.219 45.3166L38.7088 64.1883ZM40.5601 64.9508L40.9075 62.3418C52.0259 61.3365 60.984 52.3384 62.0254 41.1464L64.616 40.7964C63.7082 53.7278 53.4058 64.0802 40.5601 64.9508ZM62.0273 36.7455C60.9908 25.5506 52.0287 16.5426 40.9075 15.5376L40.5611 12.9323C53.4096 13.8039 63.7131 24.1603 64.6169 37.0945L62.0273 36.7455Z" fill="#FF0201"/>
<path d="M38.7097 0C17.3654 0 0.000488281 17.4951 0.000488281 39.0005C0.000488281 60.5049 17.3654 78 38.7097 78C60.054 78 77.4189 60.5049 77.4189 39.0005C77.4189 17.4951 60.0538 0 38.7097 0ZM38.7097 76.05C18.432 76.05 1.93595 59.4293 1.93595 39.0005C1.93595 18.5707 18.4329 1.94998 38.7097 1.94998C58.9865 1.94998 75.4834 18.5707 75.4834 39.0005C75.4834 59.4293 58.9865 76.05 38.7097 76.05Z" fill="#FF0201"/>
</g>
<g clip-path="url(#clip2_140_203740)">
<path d="M72.4706 37.9808L67.8671 37.3607C67.4916 30.608 64.7316 24.4899 60.4252 19.8412L63.6507 16.5906C64.0291 16.2094 64.0291 15.5932 63.6507 15.2119C63.2723 14.8307 62.6607 14.8307 62.2823 15.2119L59.0568 18.4625C54.4244 14.1073 48.3228 11.3198 41.5883 10.9589L40.9593 6.22739C40.8954 5.74389 40.4851 5.38208 40.0003 5.38208C39.5155 5.38208 39.1051 5.74389 39.0412 6.22739L38.4113 10.9736C31.7553 11.3773 25.7253 14.1482 21.1373 18.4616L17.9109 15.211C17.5325 14.8298 16.9209 14.8298 16.5425 15.211C16.1641 15.5922 16.1641 16.2084 16.5425 16.5897L19.7689 19.8403C15.4683 24.4821 12.7103 30.5905 12.3289 37.3316L7.52896 37.981C7.04793 38.0453 6.68994 38.4587 6.68994 38.9472C6.68994 39.4356 7.04906 39.849 7.52896 39.9134L12.3289 40.5609C12.712 47.298 15.4691 53.4035 19.7677 58.0444L16.5423 61.294C16.1639 61.6753 16.1639 62.2915 16.5423 62.6727C16.7309 62.8628 16.9787 62.9584 17.2265 62.9584C17.4743 62.9584 17.7219 62.8628 17.9107 62.6727L21.1361 59.4231C25.7232 63.7364 31.7532 66.5083 38.4092 66.912L39.041 71.6554C39.1059 72.14 39.5153 72.5007 40.0001 72.5007C40.4849 72.5007 40.8952 72.1389 40.9591 71.6554L41.5881 66.9276C48.3226 66.5679 54.4251 63.7795 59.0576 59.4231L62.2821 62.6727C62.4707 62.8628 62.7185 62.9584 62.9663 62.9584C63.2141 62.9584 63.4617 62.8628 63.6505 62.6727C64.0289 62.2915 64.0289 61.6753 63.6505 61.294L60.426 58.0444C64.7305 53.3976 67.4895 47.2835 67.866 40.5346L72.4705 39.9136C72.9515 39.8492 73.3095 39.4358 73.3095 38.9474C73.3095 38.4589 72.9507 38.0451 72.4706 37.9808ZM40.0014 13.7024L42.5098 32.5635C41.7588 32.2738 40.9478 32.1091 40.0972 32.1091C39.172 32.1091 38.2914 32.2973 37.4872 32.6366L40.0014 13.7024ZM34.195 34.3743L18.8584 36.448C19.3888 31.8646 21.3726 27.7025 24.3357 24.44L34.195 34.3743ZM25.7041 23.0604C28.9228 20.0935 33.022 18.1017 37.5365 17.5536L35.4956 32.9263L25.7041 23.0604ZM33.8108 36.3934C33.4953 37.1812 33.3173 38.0402 33.3173 38.9411C33.3173 39.843 33.4963 40.7029 33.8127 41.4926L14.94 38.9449L33.8108 36.3934ZM34.192 43.5108L24.2824 53.4947C21.3405 50.2479 19.3876 46.0848 18.8582 41.4408L34.192 43.5108ZM35.486 44.9645L37.5327 60.3274C32.9564 59.7796 28.8542 57.8187 25.652 54.8734L35.486 44.9645ZM35.2527 38.9401C35.2527 36.2483 37.4263 34.0583 40.0972 34.0583C42.7681 34.0583 44.9417 36.2483 44.9417 38.9401C44.9417 41.6311 42.7681 43.821 40.0972 43.821C37.4252 43.8208 35.2527 41.6311 35.2527 38.9401ZM44.5324 44.788L54.4971 54.8275C51.2348 57.8334 47.063 59.8359 42.4625 60.3508L44.5324 44.788ZM45.979 43.4874L61.3368 41.4146C60.8104 46.0145 58.8294 50.1835 55.8654 53.4478L45.979 43.4874ZM46.3922 41.4643C46.7018 40.6824 46.877 39.8321 46.877 38.9409C46.877 38.0547 46.7037 37.2103 46.3971 36.4322L65.0501 38.9466L46.3922 41.4643ZM45.9664 34.4064L55.8652 24.4334C58.8323 27.7015 60.8142 31.8755 61.3387 36.4794L45.9664 34.4064ZM44.5333 33.0931L42.4633 17.5304C47.0628 18.0442 51.2339 20.0478 54.496 23.0537L44.5333 33.0931ZM38.1491 12.9468L37.8027 15.5579C26.8025 16.648 17.9198 25.6237 16.8793 36.7152L14.2906 37.0652C15.2024 24.21 25.4002 13.9083 38.1491 12.9468ZM14.2896 40.8248L16.8764 41.1739C17.9273 52.4253 26.6399 61.2283 37.7987 62.3261L38.1461 64.9361C25.4012 63.973 15.2052 53.676 14.2896 40.8248ZM39.9993 64.1883L37.4755 45.2395C38.2826 45.5817 39.1681 45.7719 40.097 45.7719C40.9476 45.771 41.7586 45.6062 42.5096 45.3166L39.9993 64.1883ZM41.8507 64.9508L42.1981 62.3418C53.3164 61.3365 62.2745 52.3384 63.316 41.1464L65.9065 40.7964C64.9987 53.7278 54.6964 64.0802 41.8507 64.9508ZM63.3178 36.7455C62.2813 25.5506 53.3192 16.5426 42.1981 15.5376L41.8516 12.9323C54.7001 13.8039 65.0036 24.1603 65.9075 37.0945L63.3178 36.7455Z" fill="black"/>
<path d="M40.0002 0C18.6559 0 1.29102 17.4951 1.29102 39.0005C1.29102 60.5049 18.6559 78 40.0002 78C61.3445 78 78.7094 60.5049 78.7094 39.0005C78.7094 17.4951 61.3443 0 40.0002 0ZM40.0002 76.05C19.7225 76.05 3.22648 59.4293 3.22648 39.0005C3.22648 18.5707 19.7234 1.94998 40.0002 1.94998C60.277 1.94998 76.774 18.5707 76.774 39.0005C76.774 59.4293 60.277 76.05 40.0002 76.05Z" fill="black"/>
</g>
<defs>
<clipPath id="clip0_140_203740">
<rect width="77.4194" height="78" fill="white" transform="translate(2.58057)"/>
</clipPath>
<clipPath id="clip1_140_203740">
<rect width="77.4193" height="78" fill="white"/>
</clipPath>
<clipPath id="clip2_140_203740">
<rect width="77.4194" height="78" fill="white" transform="translate(1.29053)"/>
</clipPath>
</defs>
</svg>
