<svg width="80" height="78" viewBox="0 0 80 78" fill="none" xmlns="http://www.w3.org/2000/svg">
<g clip-path="url(#clip0_140_201607)">
<path d="M73.7607 37.9805L69.1572 37.3605C68.7816 30.6077 66.0217 24.4897 61.7153 19.841L64.9407 16.5904C65.3191 16.2092 65.3191 15.5929 64.9407 15.2117C64.5623 14.8305 63.9507 14.8305 63.5723 15.2117L60.3468 18.4623C55.7144 14.107 49.6128 11.3196 42.8784 10.9587L42.2493 6.22714C42.1855 5.74365 41.7751 5.38184 41.2903 5.38184C40.8055 5.38184 40.3952 5.74365 40.3313 6.22714L39.7013 10.9734C33.0453 11.3771 27.0153 14.148 22.4273 18.4613L19.2009 15.2107C18.8225 14.8295 18.2109 14.8295 17.8325 15.2107C17.4541 15.592 17.4541 16.2082 17.8325 16.5894L21.0589 19.84C16.7584 24.4819 14.0003 30.5902 13.6189 37.3314L8.819 37.9807C8.33797 38.0451 7.97998 38.4585 7.97998 38.9469C7.97998 39.4354 8.3391 39.8488 8.819 39.9132L13.6189 40.5606C14.002 47.2978 16.7591 53.4032 21.0578 58.0441L17.8323 61.2938C17.4539 61.675 17.4539 62.2912 17.8323 62.6725C18.0209 62.8625 18.2687 62.9581 18.5165 62.9581C18.7643 62.9581 19.0119 62.8625 19.2007 62.6725L22.4262 59.4228C27.0133 63.7362 33.0432 66.5081 39.6992 66.9118L40.3311 71.6551C40.3959 72.1398 40.8053 72.5004 41.2901 72.5004C41.7749 72.5004 42.1853 72.1386 42.2492 71.6551L42.8782 66.9274C49.6126 66.5677 55.7152 63.7792 60.3476 59.4228L63.5721 62.6725C63.7607 62.8625 64.0085 62.9581 64.2563 62.9581C64.5041 62.9581 64.7517 62.8625 64.9405 62.6725C65.3189 62.2912 65.3189 61.675 64.9405 61.2938L61.716 58.0441C66.0205 53.3973 68.7795 47.2833 69.156 40.5343L73.7605 39.9134C74.2415 39.849 74.5995 39.4356 74.5995 38.9471C74.5995 38.4587 74.2408 38.0449 73.7607 37.9805ZM41.2914 13.7022L43.7998 32.5632C43.0489 32.2736 42.2378 32.1089 41.3873 32.1089C40.4621 32.1089 39.5815 32.297 38.7772 32.6364L41.2914 13.7022ZM35.4851 34.374L20.1484 36.4478C20.6788 31.8644 22.6626 27.7022 25.6257 24.4398L35.4851 34.374ZM26.9942 23.0602C30.2128 20.0933 34.3121 18.1014 38.8266 17.5534L36.7856 32.926L26.9942 23.0602ZM35.1008 36.3931C34.7854 37.1809 34.6073 38.0399 34.6073 38.9408C34.6073 39.8427 34.7863 40.7027 35.1027 41.4924L16.2301 38.9447L35.1008 36.3931ZM35.482 43.5105L25.5724 53.4944C22.6305 50.2477 20.6777 46.0845 20.1482 41.4406L35.482 43.5105ZM36.776 44.9643L38.8228 60.3272C34.2465 59.7793 30.1442 57.8185 26.942 54.8731L36.776 44.9643ZM36.5428 38.9399C36.5428 36.248 38.7164 34.0581 41.3873 34.0581C44.0582 34.0581 46.2318 36.248 46.2318 38.9399C46.2318 41.6308 44.0582 43.8207 41.3873 43.8207C38.7152 43.8205 36.5428 41.6308 36.5428 38.9399ZM45.8224 44.7877L55.7872 54.8272C52.5249 57.8331 48.353 59.8357 43.7525 60.3506L45.8224 44.7877ZM47.2691 43.4871L62.6269 41.4143C62.1005 46.0143 60.1195 50.1833 57.1554 53.4476L47.2691 43.4871ZM47.6822 41.464C47.9918 40.6821 48.1671 39.8319 48.1671 38.9407C48.1671 38.0544 47.9937 37.2101 47.6872 36.432L66.3402 38.9464L47.6822 41.464ZM47.2564 34.4062L57.1552 24.4331C60.1223 27.7013 62.1043 31.8752 62.6288 36.4792L47.2564 34.4062ZM45.8233 33.0928L43.7533 17.5301C48.3529 18.0439 52.5239 20.0476 55.786 23.0535L45.8233 33.0928ZM39.4391 12.9466L39.0927 15.5577C28.0925 16.6477 19.2098 25.6235 18.1693 36.7149L15.5806 37.0649C16.4924 24.2098 26.6903 13.908 39.4391 12.9466ZM15.5797 40.8246L18.1665 41.1736C19.2174 52.425 27.93 61.2281 39.0887 62.3259L39.4361 64.9359C26.6912 63.9727 16.4953 53.6757 15.5797 40.8246ZM41.2894 64.1881L38.7655 45.2392C39.5726 45.5814 40.4581 45.7717 41.3871 45.7717C42.2376 45.7707 43.0487 45.606 43.7996 45.3164L41.2894 64.1881ZM43.1407 64.9506L43.4881 62.3415C54.6064 61.3362 63.5645 52.3382 64.606 41.1462L67.1966 40.7962C66.2887 53.7275 55.9864 64.0799 43.1407 64.9506ZM64.6079 36.7452C63.5714 25.5504 54.6093 16.5424 43.4881 15.5373L43.1417 12.9321C55.9902 13.8037 66.2937 24.1601 67.1975 37.0943L64.6079 36.7452Z" fill="#02FFFF"/>
<path d="M41.2903 0C19.9459 0 2.58105 17.4951 2.58105 39.0005C2.58105 60.5049 19.9459 78 41.2903 78C62.6346 78 79.9995 60.5049 79.9995 39.0005C79.9995 17.4951 62.6344 0 41.2903 0ZM41.2903 76.05C21.0125 76.05 4.51651 59.4293 4.51651 39.0005C4.51651 18.5707 21.0135 1.94998 41.2903 1.94998C61.567 1.94998 78.064 18.5707 78.064 39.0005C78.064 59.4293 61.567 76.05 41.2903 76.05Z" fill="#02FFFF"/>
</g>
<g clip-path="url(#clip1_140_201607)">
<path d="M71.1801 37.9805L66.5766 37.3605C66.201 30.6077 63.4411 24.4897 59.1347 19.841L62.3602 16.5904C62.7386 16.2092 62.7386 15.5929 62.3602 15.2117C61.9818 14.8305 61.3701 14.8305 60.9917 15.2117L57.7663 18.4623C53.1338 14.107 47.0322 11.3196 40.2978 10.9587L39.6688 6.22714C39.6049 5.74365 39.1946 5.38184 38.7097 5.38184C38.2249 5.38184 37.8146 5.74365 37.7507 6.22714L37.1207 10.9734C30.4648 11.3771 24.4348 14.148 19.8468 18.4613L16.6204 15.2107C16.242 14.8295 15.6303 14.8295 15.2519 15.2107C14.8735 15.592 14.8735 16.2082 15.2519 16.5894L18.4783 19.84C14.1778 24.4819 11.4198 30.5902 11.0383 37.3314L6.23843 37.9807C5.7574 38.0451 5.39941 38.4585 5.39941 38.9469C5.39941 39.4354 5.75853 39.8488 6.23843 39.9132L11.0383 40.5606C11.4215 47.2978 14.1785 53.4032 18.4772 58.0441L15.2517 61.2938C14.8733 61.675 14.8733 62.2912 15.2517 62.6725C15.4404 62.8625 15.6882 62.9581 15.936 62.9581C16.1837 62.9581 16.4313 62.8625 16.6202 62.6725L19.8456 59.4228C24.4327 63.7362 30.4627 66.5081 37.1187 66.9118L37.7505 71.6551C37.8154 72.1398 38.2247 72.5004 38.7096 72.5004C39.1944 72.5004 39.6047 72.1386 39.6686 71.6551L40.2976 66.9274C47.032 66.5677 53.1346 63.7792 57.767 59.4228L60.9915 62.6725C61.1802 62.8625 61.428 62.9581 61.6758 62.9581C61.9235 62.9581 62.1711 62.8625 62.36 62.6725C62.7384 62.2912 62.7384 61.675 62.36 61.2938L59.1355 58.0441C63.44 53.3973 66.1989 47.2833 66.5755 40.5343L71.1799 39.9134C71.6609 39.849 72.0189 39.4356 72.0189 38.9471C72.0189 38.4587 71.6602 38.0449 71.1801 37.9805ZM38.7109 13.7022L41.2192 32.5632C40.4683 32.2736 39.6573 32.1089 38.8067 32.1089C37.8815 32.1089 37.0009 32.297 36.1967 32.6364L38.7109 13.7022ZM32.9045 34.374L17.5679 36.4478C18.0982 31.8644 20.0821 27.7022 23.0452 24.4398L32.9045 34.374ZM24.4136 23.0602C27.6323 20.0933 31.7315 18.1014 36.246 17.5534L34.2051 32.926L24.4136 23.0602ZM32.5202 36.3931C32.2048 37.1809 32.0267 38.0399 32.0267 38.9408C32.0267 39.8427 32.2057 40.7027 32.5221 41.4924L13.6495 38.9447L32.5202 36.3931ZM32.9015 43.5105L22.9919 53.4944C20.0499 50.2477 18.0971 46.0845 17.5677 41.4406L32.9015 43.5105ZM34.1954 44.9643L36.2422 60.3272C31.6659 59.7793 27.5636 57.8185 24.3614 54.8731L34.1954 44.9643ZM33.9622 38.9399C33.9622 36.248 36.1358 34.0581 38.8067 34.0581C41.4776 34.0581 43.6512 36.248 43.6512 38.9399C43.6512 41.6308 41.4776 43.8207 38.8067 43.8207C36.1347 43.8205 33.9622 41.6308 33.9622 38.9399ZM43.2418 44.7877L53.2066 54.8272C49.9443 57.8331 45.7725 59.8357 41.172 60.3506L43.2418 44.7877ZM44.6885 43.4871L60.0463 41.4143C59.5199 46.0143 57.5389 50.1833 54.5748 53.4476L44.6885 43.4871ZM45.1017 41.464C45.4113 40.6821 45.5865 39.8319 45.5865 38.9407C45.5865 38.0544 45.4132 37.2101 45.1066 36.432L63.7596 38.9464L45.1017 41.464ZM44.6758 34.4062L54.5747 24.4331C57.5417 27.7013 59.5237 31.8752 60.0482 36.4792L44.6758 34.4062ZM43.2428 33.0928L41.1727 17.5301C45.7723 18.0439 49.9434 20.0476 53.2055 23.0535L43.2428 33.0928ZM36.8586 12.9466L36.5121 15.5577C25.5119 16.6477 16.6292 25.6235 15.5887 36.7149L13.0001 37.0649C13.9118 24.2098 24.1097 13.908 36.8586 12.9466ZM12.9991 40.8246L15.5859 41.1736C16.6368 52.425 25.3494 61.2281 36.5082 62.3259L36.8556 64.9359C24.1106 63.9727 13.9147 53.6757 12.9991 40.8246ZM38.7088 64.1881L36.185 45.2392C36.992 45.5814 37.8775 45.7717 38.8065 45.7717C39.6571 45.7707 40.4681 45.606 41.219 45.3164L38.7088 64.1881ZM40.5601 64.9506L40.9075 62.3415C52.0259 61.3362 60.984 52.3382 62.0254 41.1462L64.616 40.7962C63.7082 53.7275 53.4058 64.0799 40.5601 64.9506ZM62.0273 36.7452C60.9908 25.5504 52.0287 16.5424 40.9075 15.5373L40.5611 12.9321C53.4096 13.8037 63.7131 24.1601 64.6169 37.0943L62.0273 36.7452Z" fill="#FF0201"/>
<path d="M38.7097 0C17.3654 0 0.000488281 17.4951 0.000488281 39.0005C0.000488281 60.5049 17.3654 78 38.7097 78C60.054 78 77.4189 60.5049 77.4189 39.0005C77.4189 17.4951 60.0538 0 38.7097 0ZM38.7097 76.05C18.432 76.05 1.93595 59.4293 1.93595 39.0005C1.93595 18.5707 18.4329 1.94998 38.7097 1.94998C58.9865 1.94998 75.4834 18.5707 75.4834 39.0005C75.4834 59.4293 58.9865 76.05 38.7097 76.05Z" fill="#FF0201"/>
</g>
<g clip-path="url(#clip2_140_201607)">
<path d="M72.4706 37.9805L67.8671 37.3605C67.4916 30.6077 64.7316 24.4897 60.4252 19.841L63.6507 16.5904C64.0291 16.2092 64.0291 15.5929 63.6507 15.2117C63.2723 14.8305 62.6607 14.8305 62.2823 15.2117L59.0568 18.4623C54.4244 14.107 48.3228 11.3196 41.5883 10.9587L40.9593 6.22714C40.8954 5.74365 40.4851 5.38184 40.0003 5.38184C39.5155 5.38184 39.1051 5.74365 39.0412 6.22714L38.4113 10.9734C31.7553 11.3771 25.7253 14.148 21.1373 18.4613L17.9109 15.2107C17.5325 14.8295 16.9209 14.8295 16.5425 15.2107C16.1641 15.592 16.1641 16.2082 16.5425 16.5894L19.7689 19.84C15.4683 24.4819 12.7103 30.5902 12.3289 37.3314L7.52896 37.9807C7.04793 38.0451 6.68994 38.4585 6.68994 38.9469C6.68994 39.4354 7.04906 39.8488 7.52896 39.9132L12.3289 40.5606C12.712 47.2978 15.4691 53.4032 19.7677 58.0441L16.5423 61.2938C16.1639 61.675 16.1639 62.2912 16.5423 62.6725C16.7309 62.8625 16.9787 62.9581 17.2265 62.9581C17.4743 62.9581 17.7219 62.8625 17.9107 62.6725L21.1361 59.4228C25.7232 63.7362 31.7532 66.5081 38.4092 66.9118L39.041 71.6551C39.1059 72.1398 39.5153 72.5004 40.0001 72.5004C40.4849 72.5004 40.8952 72.1386 40.9591 71.6551L41.5881 66.9274C48.3226 66.5677 54.4251 63.7792 59.0576 59.4228L62.2821 62.6725C62.4707 62.8625 62.7185 62.9581 62.9663 62.9581C63.2141 62.9581 63.4617 62.8625 63.6505 62.6725C64.0289 62.2912 64.0289 61.675 63.6505 61.2938L60.426 58.0441C64.7305 53.3973 67.4895 47.2833 67.866 40.5343L72.4705 39.9134C72.9515 39.849 73.3095 39.4356 73.3095 38.9471C73.3095 38.4587 72.9507 38.0449 72.4706 37.9805ZM40.0014 13.7022L42.5098 32.5632C41.7588 32.2736 40.9478 32.1089 40.0972 32.1089C39.172 32.1089 38.2914 32.297 37.4872 32.6364L40.0014 13.7022ZM34.195 34.374L18.8584 36.4478C19.3888 31.8644 21.3726 27.7022 24.3357 24.4398L34.195 34.374ZM25.7041 23.0602C28.9228 20.0933 33.022 18.1014 37.5365 17.5534L35.4956 32.926L25.7041 23.0602ZM33.8108 36.3931C33.4953 37.1809 33.3173 38.0399 33.3173 38.9408C33.3173 39.8427 33.4963 40.7027 33.8127 41.4924L14.94 38.9447L33.8108 36.3931ZM34.192 43.5105L24.2824 53.4944C21.3405 50.2477 19.3876 46.0845 18.8582 41.4406L34.192 43.5105ZM35.486 44.9643L37.5327 60.3272C32.9564 59.7793 28.8542 57.8185 25.652 54.8731L35.486 44.9643ZM35.2527 38.9399C35.2527 36.248 37.4263 34.0581 40.0972 34.0581C42.7681 34.0581 44.9417 36.248 44.9417 38.9399C44.9417 41.6308 42.7681 43.8207 40.0972 43.8207C37.4252 43.8205 35.2527 41.6308 35.2527 38.9399ZM44.5324 44.7877L54.4971 54.8272C51.2348 57.8331 47.063 59.8357 42.4625 60.3506L44.5324 44.7877ZM45.979 43.4871L61.3368 41.4143C60.8104 46.0143 58.8294 50.1833 55.8654 53.4476L45.979 43.4871ZM46.3922 41.464C46.7018 40.6821 46.877 39.8319 46.877 38.9407C46.877 38.0544 46.7037 37.2101 46.3971 36.432L65.0501 38.9464L46.3922 41.464ZM45.9664 34.4062L55.8652 24.4331C58.8323 27.7013 60.8142 31.8752 61.3387 36.4792L45.9664 34.4062ZM44.5333 33.0928L42.4633 17.5301C47.0628 18.0439 51.2339 20.0476 54.496 23.0535L44.5333 33.0928ZM38.1491 12.9466L37.8027 15.5577C26.8025 16.6477 17.9198 25.6235 16.8793 36.7149L14.2906 37.0649C15.2024 24.2098 25.4002 13.908 38.1491 12.9466ZM14.2896 40.8246L16.8764 41.1736C17.9273 52.425 26.6399 61.2281 37.7987 62.3259L38.1461 64.9359C25.4012 63.9727 15.2052 53.6757 14.2896 40.8246ZM39.9993 64.1881L37.4755 45.2392C38.2826 45.5814 39.1681 45.7717 40.097 45.7717C40.9476 45.7707 41.7586 45.606 42.5096 45.3164L39.9993 64.1881ZM41.8507 64.9506L42.1981 62.3415C53.3164 61.3362 62.2745 52.3382 63.316 41.1462L65.9065 40.7962C64.9987 53.7275 54.6964 64.0799 41.8507 64.9506ZM63.3178 36.7452C62.2813 25.5504 53.3192 16.5424 42.1981 15.5373L41.8516 12.9321C54.7001 13.8037 65.0036 24.1601 65.9075 37.0943L63.3178 36.7452Z" fill="#EEECE1"/>
<path d="M40.0002 0C18.6559 0 1.29102 17.4951 1.29102 39.0005C1.29102 60.5049 18.6559 78 40.0002 78C61.3445 78 78.7094 60.5049 78.7094 39.0005C78.7094 17.4951 61.3443 0 40.0002 0ZM40.0002 76.05C19.7225 76.05 3.22648 59.4293 3.22648 39.0005C3.22648 18.5707 19.7234 1.94998 40.0002 1.94998C60.277 1.94998 76.774 18.5707 76.774 39.0005C76.774 59.4293 60.277 76.05 40.0002 76.05Z" fill="#EEECE1"/>
</g>
<defs>
<clipPath id="clip0_140_201607">
<rect width="77.4194" height="78" fill="white" transform="translate(2.58057)"/>
</clipPath>
<clipPath id="clip1_140_201607">
<rect width="77.4193" height="78" fill="white"/>
</clipPath>
<clipPath id="clip2_140_201607">
<rect width="77.4194" height="78" fill="white" transform="translate(1.29053)"/>
</clipPath>
</defs>
</svg>
