<svg width="174" height="204" viewBox="0 0 174 204" fill="none" xmlns="http://www.w3.org/2000/svg">
<path d="M38.2031 103.733C39.2888 100.737 41.1515 98.632 43.5127 96.9013C46.9394 94.3913 50.5762 92.2355 54.3927 90.3758C63.7111 85.8339 73.4749 82.6483 83.712 81.0214C92.4432 79.6348 101.043 80.4192 109.536 82.8457C118.098 85.2899 126.095 88.8323 133.118 94.3837C136.092 96.7318 138.889 99.2722 141.156 102.331C143.181 105.064 143.102 106.056 140.523 108.065C131.316 115.241 121.358 120.987 109.873 123.677C99.5346 126.101 89.0621 126.708 78.491 125.749C69.7091 124.952 61.532 122.062 53.5651 118.505C48.7844 116.372 44.8414 113.072 41.4172 109.143C40.0481 107.574 39.0003 105.815 38.2057 103.733H38.2031ZM53.9877 95.0112C55.0127 95.5552 55.9795 95.0871 56.9791 94.8822C61.3448 93.989 65.6902 92.9389 70.0963 92.3089C75.0744 91.5979 80.1081 91.2841 85.1166 90.7806C91.5347 90.1354 97.9376 90.4542 104.292 91.3702C114.406 92.8251 124.245 95.3503 133.63 99.4822C134.085 99.6821 134.604 99.7428 135.092 99.8693C135.064 99.1001 134.634 98.9028 134.277 98.6143C123.413 89.8647 110.885 85.3583 97.0999 84.207C90.4287 83.6503 83.8638 84.541 77.3825 86.2008C69.2712 88.2807 61.4182 91.0083 54.094 95.1175C53.927 95.2364 53.7549 95.3553 53.5955 95.4844C53.5879 95.492 53.6613 95.6008 53.6967 95.6615C53.7954 95.4464 53.8941 95.2314 53.9928 95.0138L53.9877 95.0112ZM139.25 104.485C135.502 101.911 118.574 96.6053 113.786 96.5547C113.537 102.946 111.356 108.589 106.709 113.123C102.07 117.647 96.49 119.955 89.9985 119.962C86.5009 119.967 83.2109 119.051 80.0828 117.531C76.9421 116.005 74.305 113.854 72.1437 111.106C68.6816 106.709 67.444 101.557 67.2491 95.9651C65.0423 95.7829 63.1948 96.4686 61.3498 96.8988C54.1168 98.5814 46.9293 100.429 40.2252 103.728C40.3012 104.019 40.2961 104.285 40.4226 104.447C40.9845 105.165 41.5463 105.891 42.179 106.547C46.6079 111.134 51.6746 114.74 57.6802 117.052C68.1602 121.086 78.9136 123.462 90.2111 122.91C92.0409 122.821 93.8732 122.816 95.7055 122.756C101.82 122.553 107.729 121.328 113.479 119.254C122.618 115.959 130.691 110.762 138.592 105.256C138.861 105.069 139.035 104.748 139.255 104.485H139.25ZM69.4383 95.5628C68.9524 107.07 78.7213 116.868 90.4616 116.835C103.566 116.797 111.543 105.618 110.759 95.7121C100.858 92.6378 81.8873 93.1236 69.4383 95.5628Z" fill="#F1E2C1"/>
<path d="M44.1475 90.657C44.7878 89.6146 44.97 89.0984 45.3268 88.7745C47.192 87.0843 49.0015 85.3081 51.0161 83.8076C60.0282 77.0973 70.1641 73.1678 81.3072 71.7433C97.3297 69.6963 112.277 73.0262 126.373 80.6473C127.57 81.2951 128.694 82.1047 129.762 82.9524C130.306 83.3851 130.491 84.1036 130.154 84.8222C129.82 85.5358 128.95 86.0342 128.145 85.7635C127.069 85.4017 126.024 84.9159 125.014 84.3921C118.786 81.1635 112.307 78.6054 105.438 77.0948C85.6627 72.7453 67.2157 75.812 50.2214 86.9806C48.7864 87.9243 47.3869 88.9238 45.9519 89.8701C45.6153 90.0928 45.2053 90.2016 44.15 90.652L44.1475 90.657Z" fill="#F1E2C1"/>
<path d="M126.558 124.203C126.227 125.706 125.09 126.162 124.202 126.789C119.679 129.983 114.719 132.313 109.457 133.993C94.6447 138.725 79.7687 139.028 64.8648 134.456C59.6867 132.867 54.8681 130.501 50.4923 127.288C49.5737 126.615 48.7259 125.836 47.9033 125.046C47.5895 124.745 47.3744 124.302 47.2276 123.882C46.9897 123.191 47.1239 122.531 47.6528 121.987C48.2197 121.405 49.0802 121.253 49.8596 121.714C50.5455 122.119 51.1934 122.604 51.8084 123.11C59.3805 129.348 68.2383 132.49 77.825 133.773C92.9187 135.792 107.197 132.854 120.882 126.491C122.334 125.815 123.749 125.061 125.204 124.396C125.566 124.231 126.024 124.272 126.558 124.203Z" fill="#F1E2C1"/>
<path d="M86.6067 204C86.3941 202.659 86.1005 201.323 85.9815 199.972C85.6778 196.548 85.3438 193.12 85.2147 189.686C84.8629 180.18 84.6023 170.671 84.3264 161.16C84.1771 156.003 84.0455 150.847 83.9569 145.69C83.9367 144.556 84.0252 143.395 84.2505 142.287C84.4858 141.138 85.3792 140.503 86.4472 140.447C87.6316 140.384 88.6667 141.095 88.9755 142.345C89.1653 143.112 89.2134 143.931 89.2159 144.726C89.2437 161.805 89.2741 178.884 88.4339 195.951C88.32 198.238 88.0366 200.518 87.7885 202.795C87.7455 203.2 87.4924 203.582 87.3355 203.975C87.0926 203.982 86.8521 203.99 86.6092 204H86.6067Z" fill="#F1E2C1"/>
<path d="M88.153 0C89.345 1.09813 89.1273 2.31772 89.1729 3.41839C89.4007 9.02545 89.7626 14.6376 89.7221 20.2446C89.6183 34.905 89.3399 49.5628 89.0995 64.2206C89.0843 65.1113 88.9122 66.045 88.5706 66.8597C88.4086 67.2443 87.6569 67.6188 87.209 67.5783C86.756 67.5353 86.1612 67.0571 85.974 66.6219C85.7158 66.0222 85.7108 65.2833 85.7158 64.6052C85.8398 50.8608 85.8904 37.1164 86.1587 23.3771C86.2853 16.8541 86.8167 10.3387 87.1963 3.82323C87.2672 2.59605 87.1508 1.2955 88.1505 0.00253026L88.153 0Z" fill="#F1E2C1"/>
<path d="M171.817 160.791C170.729 160.419 170.139 160.376 169.777 160.07C168.117 158.663 166.441 157.259 164.918 155.713C158.158 148.861 151.421 141.984 144.732 135.063C141.389 131.602 138.147 128.042 134.897 124.492C134.131 123.654 133.43 122.731 132.85 121.757C132.354 120.924 132.637 119.92 133.326 119.242C133.976 118.604 135.044 118.399 135.869 118.816C136.272 119.019 136.649 119.3 136.99 119.598C137.421 119.973 137.823 120.385 138.21 120.808C148.485 132.065 158.72 143.357 168.281 155.24C169.494 156.745 170.804 158.203 171.819 160.791H171.817Z" fill="#F1E2C1"/>
<path d="M3.59863 160.315C3.80363 158.423 4.60336 157.577 5.23606 156.679C8.5995 151.907 11.9148 147.097 15.3972 142.414C21.0637 134.785 26.844 127.242 32.589 119.672C33.2799 118.761 34.0214 117.883 34.8009 117.048C35.1805 116.64 35.6689 116.283 36.1751 116.051C37.6911 115.357 39.3639 116.514 39.1842 118.151C39.1134 118.806 38.8578 119.492 38.5136 120.059C37.9846 120.937 37.3393 121.751 36.6914 122.551C27.3046 134.107 17.8141 145.574 7.8276 156.621C6.98231 157.555 6.12184 158.478 5.22594 159.361C4.93236 159.65 4.4996 159.799 3.59863 160.318V160.315Z" fill="#F1E2C1"/>
<path d="M6.33652 39.7148C7.5513 40.7548 8.28017 41.2558 8.85972 41.8934C11.7803 45.1068 14.7514 48.2848 17.5429 51.6096C25.4036 60.9792 33.1908 70.412 40.9882 79.8347C41.7854 80.7987 42.5346 81.821 43.1622 82.9014C43.7721 83.9464 43.471 85.0546 42.6181 85.6391C41.8588 86.1578 40.9098 86.13 40.0822 85.4342C39.4748 84.9231 38.9282 84.3234 38.4321 83.7035C28.0128 70.665 17.7099 57.5355 8.10808 43.8746C7.41717 42.8903 6.46559 41.9794 6.33398 39.7148H6.33652Z" fill="#F1E2C1"/>
<path d="M109.685 13.7949C110.174 16.1531 109.915 17.9648 109.635 19.7385C108.577 26.4083 107.564 33.0907 106.296 39.7225C104.813 47.4803 103.092 55.19 101.44 62.9149C101.179 64.1371 100.812 65.3516 100.359 66.5155C100.04 67.3353 99.0887 67.7199 98.3902 67.5175C97.6486 67.305 97.0134 66.5509 96.978 65.7539C96.9577 65.301 96.9957 64.8354 97.0843 64.3901C100.149 49.0111 102.981 33.5816 107.415 18.5113C107.769 17.3044 108.2 16.1202 108.645 14.9437C108.749 14.6704 109.057 14.4756 109.685 13.7949Z" fill="#F1E2C1"/>
<path d="M170.642 40.2588C169.308 42.2552 168.405 43.7075 167.405 45.0916C160.903 54.112 153.797 62.6542 146.63 71.1457C144.266 73.9467 141.867 76.7174 139.457 79.4804C138.86 80.1661 138.215 80.8341 137.491 81.3806C136.815 81.8943 136.005 81.9449 135.246 81.4262C134.548 80.948 134.322 79.8827 134.816 78.9541C135.135 78.3519 135.54 77.7851 135.975 77.2588C145.837 65.3464 155.801 53.5199 166.732 42.5512C167.458 41.8225 168.235 41.1393 169.035 40.4966C169.237 40.3322 169.624 40.3954 170.639 40.2588H170.642Z" fill="#F1E2C1"/>
<path d="M63.6998 188.756C63.3025 185.583 63.71 183.323 63.9833 181.089C65.5018 168.714 67.6327 156.432 69.9459 144.183C70.1154 143.289 70.3432 142.394 70.6747 141.551C71.0493 140.6 71.9983 140.051 72.8133 140.137C73.7952 140.24 74.6759 141.134 74.724 142.234C74.7594 143.026 74.6962 143.839 74.5418 144.615C71.9452 157.737 69.4068 170.872 65.8763 183.789C65.5752 184.892 65.2791 185.998 64.9096 187.078C64.783 187.448 64.4414 187.746 63.6998 188.756Z" fill="#F1E2C1"/>
<path d="M65.1426 16.5352C66.7294 17.3448 66.8964 18.6176 67.2077 19.7764C68.5743 24.8648 70.0245 29.9354 71.1684 35.0744C73.3297 44.8007 75.3139 54.565 77.3334 64.3217C77.5384 65.3136 77.5891 66.3738 77.4752 67.3758C77.4296 67.7907 76.8146 68.3499 76.3667 68.4562C75.9035 68.5675 75.1139 68.3727 74.8507 68.021C74.3927 67.4137 74.1295 66.6091 73.9574 65.8475C72.8489 60.9312 71.7201 56.0199 70.7255 51.0783C68.6882 40.9724 66.8534 30.8261 65.5045 20.6013C65.3273 19.2527 65.2615 17.8914 65.1426 16.5352Z" fill="#F1E2C1"/>
<path d="M109.976 186.192C108.564 185.352 108.491 184.264 108.237 183.333C106.734 177.814 105.175 172.308 103.844 166.747C102.141 159.627 100.632 152.458 99.0507 145.308C98.8533 144.415 98.6888 143.509 98.5951 142.6C98.4408 141.108 99.0152 140.111 100.078 139.88C101.321 139.61 102.298 140.323 102.791 141.894C102.928 142.33 102.978 142.79 103.075 143.238C105.686 155.439 107.959 167.701 109.718 180.053C109.986 181.938 110.404 183.861 109.976 186.194V186.192Z" fill="#F1E2C1"/>
<path d="M129.441 173.301C128.461 172.213 127.937 171.777 127.598 171.226C126.644 169.67 125.675 168.111 124.87 166.476C120.993 158.587 117.159 150.678 113.337 142.76C112.894 141.842 112.542 140.86 112.297 139.868C112.036 138.816 112.676 137.725 113.603 137.351C114.425 137.017 115.433 137.249 116.058 138.054C116.541 138.679 116.969 139.375 117.285 140.096C121.322 149.296 125.366 158.496 128.661 167.997C129.036 169.075 129.372 170.168 129.64 171.274C129.734 171.661 129.57 172.109 129.438 173.298L129.441 173.301Z" fill="#F1E2C1"/>
<path d="M49.5076 30.3503C50.9932 31.4333 51.3931 32.6554 51.8866 33.7535C53.9897 38.4421 56.1257 43.1206 58.0567 47.8825C60.59 54.1272 62.9462 60.4402 65.358 66.733C65.7225 67.6869 66.0388 68.6712 66.2539 69.6681C66.4108 70.3943 65.7908 71.2571 65.0746 71.5785C64.3887 71.8897 63.4473 71.6417 62.9664 70.8978C62.5362 70.2324 62.1768 69.5062 61.8984 68.7648C57.8036 57.8594 53.6278 46.9792 50.3934 35.7752C49.9277 34.1635 49.1381 32.577 49.5076 30.3503Z" fill="#F1E2C1"/>
<path d="M32.4676 109.181C32.3006 109.532 32.1209 110.231 31.6983 110.722C31.1111 111.405 30.3797 111.987 29.6458 112.521C20.9626 118.841 12.2719 125.149 3.57349 131.447C2.8345 131.981 2.07019 132.5 1.25781 132.904C0.918681 133.074 0.422644 132.925 0 132.922C0.050616 132.52 -0.0404928 132.001 0.177156 131.735C0.751648 131.032 1.42737 130.402 2.12081 129.81C10.3813 122.766 18.6393 115.724 26.9328 108.718C27.7857 107.996 28.7904 107.359 29.8305 106.982C31.1288 106.511 32.4828 107.597 32.4676 109.181Z" fill="#F1E2C1"/>
<path d="M127.712 28.8252C127.631 30.0954 127.727 30.8646 127.517 31.5376C126.53 34.6954 125.561 37.8684 124.396 40.9629C121.261 49.2976 118.034 57.5943 114.827 65.9012C114.501 66.7488 114.131 67.5964 113.671 68.3758C113.127 69.2942 112.152 69.6156 111.335 69.2942C110.467 68.9527 110.004 68.0873 110.221 67.0524C110.363 66.387 110.571 65.7215 110.834 65.094C115.331 54.353 119.603 43.5159 124.741 33.0533C125.244 32.0285 125.786 31.0215 126.375 30.0473C126.58 29.7057 126.98 29.4831 127.714 28.8252H127.712Z" fill="#F1E2C1"/>
<path d="M45.7891 176.381C45.9561 174.924 45.946 174.135 46.1459 173.403C49.1576 162.468 52.6982 151.701 56.4994 141.016C56.8031 140.163 57.2308 139.336 57.7117 138.567C58.1875 137.81 58.9771 137.63 59.8325 137.835C60.5791 138.015 61.2168 138.792 61.0827 139.657C60.8904 140.889 60.6297 142.142 60.1767 143.298C56.9043 151.61 53.5941 159.904 50.2509 168.188C49.3524 170.418 48.3123 172.591 47.2822 174.762C47.0747 175.197 46.609 175.511 45.7891 176.381Z" fill="#F1E2C1"/>
<path d="M173.433 131.764C172.363 131.544 171.907 131.544 171.545 131.359C170.427 130.785 169.308 130.195 168.253 129.512C161.045 124.849 153.848 120.165 146.66 115.471C145.898 114.973 145.152 114.419 144.504 113.784C143.631 112.931 143.565 111.828 144.198 110.99C144.823 110.163 145.906 109.885 146.969 110.353C147.485 110.58 147.979 110.892 148.434 111.228C156.254 117.03 163.963 122.971 171.297 129.38C171.933 129.934 172.436 130.64 173.436 131.764H173.433Z" fill="#F1E2C1"/>
<path d="M31.5312 159.827C31.5642 159.29 31.4857 158.713 31.6527 158.223C32.0551 157.036 32.5132 155.862 33.0472 154.728C36.2107 148.021 39.3894 141.32 42.601 134.635C43.092 133.616 43.7196 132.647 44.4029 131.743C44.9774 130.982 46.0707 130.797 46.8856 131.134C47.6828 131.465 48.232 132.409 48.0321 133.403C47.8777 134.172 47.6094 134.949 47.2323 135.637C43.0186 143.352 38.62 150.958 33.7305 158.271C33.2497 158.989 32.8878 159.961 31.5312 159.827Z" fill="#F1E2C1"/>
<path d="M141.811 45.8707C141.581 46.7791 141.49 47.5584 141.186 48.239C140.351 50.1165 139.523 52.0066 138.519 53.793C135.277 59.567 131.969 65.3031 128.649 71.0342C128.14 71.9122 127.51 72.7548 126.778 73.448C126.454 73.7542 125.695 73.8048 125.207 73.6808C124.48 73.4987 124.111 72.8028 124.199 72.0817C124.28 71.4238 124.513 70.7432 124.845 70.1663C129.294 62.4439 133.905 54.8253 139.286 47.7026C139.85 46.9562 140.298 45.9238 141.809 45.8682L141.811 45.8707Z" fill="#F1E2C1"/>
<path d="M36.9244 46.4688C37.4508 46.99 37.8811 47.3037 38.162 47.7162C39.4451 49.6088 40.7636 51.4837 41.9303 53.4472C45.6683 59.7375 49.3532 66.0555 53.033 72.3812C53.4885 73.163 53.8732 74.0081 54.1212 74.8735C54.3136 75.544 54.0908 76.2272 53.4328 76.6675C52.7925 77.0976 51.7448 77.0875 51.2158 76.5207C50.7552 76.0273 50.3503 75.458 50.0264 74.8634C45.5494 66.6248 41.2344 58.3053 37.5318 49.6822C37.1395 48.7688 36.5549 47.8857 36.9219 46.4688H36.9244Z" fill="#F1E2C1"/>
<path d="M10.2402 73.3371C11.9283 73.2562 12.7508 74.1569 13.6163 74.7996C18.8601 78.681 24.0736 82.608 29.2719 86.5502C30.9118 87.7951 32.5012 89.1133 34.0677 90.4518C34.665 90.963 35.1914 91.5854 35.6444 92.2306C36.0772 92.848 35.9557 93.5565 35.5558 94.1713C35.1534 94.7887 34.1614 95.0569 33.4047 94.7305C32.8858 94.5079 32.3544 94.2472 31.9292 93.8854C24.681 87.7318 17.6023 81.396 11.0045 74.5365C10.7742 74.2961 10.635 73.9672 10.2402 73.3371Z" fill="#F1E2C1"/>
<path d="M141.477 153.926C141.112 153.835 140.712 153.857 140.535 153.668C139.91 153.005 139.295 152.311 138.797 151.552C135.023 145.811 131.273 140.057 127.54 134.291C127.109 133.628 126.753 132.887 126.522 132.133C126.272 131.323 126.467 130.544 127.218 130.002C127.843 129.554 128.754 129.607 129.41 130.27C129.964 130.832 130.491 131.465 130.865 132.158C134.186 138.299 137.486 144.452 140.745 150.629C141.254 151.59 141.955 152.59 141.477 153.923V153.926Z" fill="#F1E2C1"/>
<path d="M167.012 71.8066C166.934 72.6214 167.02 73.0237 166.858 73.2135C166.195 73.9953 165.514 74.7822 164.732 75.4401C159.562 79.777 154.366 84.086 149.165 88.3875C148.462 88.9669 147.692 89.4755 146.913 89.9512C146.014 90.4977 145.301 90.4167 144.747 89.8069C144.129 89.1263 144.243 88.2837 145.101 87.3981C145.417 87.0692 145.754 86.7504 146.123 86.4847C152.228 82.0441 158.329 77.6035 164.454 73.1907C165.092 72.7302 165.851 72.4316 167.018 71.8117L167.012 71.8066Z" fill="#F1E2C1"/>
<path d="M96.0509 101.952C96.0458 105.18 93.4289 107.794 90.1845 107.812C86.8387 107.83 83.9182 105.011 83.9916 101.838C84.065 98.6575 86.735 96.0032 89.9213 95.9425C93.2543 95.8792 96.0559 98.6271 96.0483 101.952H96.0509Z" fill="#F1E2C1"/>
<path d="M81.4315 98.9382C76.7824 100.484 74.1251 100.33 71.8701 98.4803C72.4902 97.7971 73.3354 97.9666 74.0643 97.9742C76.1193 97.9919 78.1718 98.0982 80.2218 98.2222C80.5103 98.2399 80.7836 98.5435 81.4289 98.9382H81.4315Z" fill="#F1E2C1"/>
<path d="M97.6309 98.4098C99.3366 97.1321 100.706 96.669 102.49 96.6235C103.849 96.588 105.14 96.75 106.147 97.8633C104.294 98.9741 102.682 99.0854 97.6309 98.4098Z" fill="#F1E2C1"/>
<path d="M106.104 104.283C102.95 105.146 101.247 104.731 98.5898 102.572C100.098 102.003 101.303 101.854 102.664 102.236C103.942 102.593 105.223 103.01 106.104 104.283Z" fill="#F1E2C1"/>
<path d="M74.0078 105.042C76.8069 103.119 79.0694 102.195 81.909 102.878C80.0716 104.941 78.3633 105.447 74.0078 105.042Z" fill="#F1E2C1"/>
<path d="M97.4151 113.923C94.5047 113.149 94.2542 111.011 93.5557 109.282C94.1631 108.564 94.573 108.832 94.8919 109.125C96.4129 110.515 96.6458 110.96 97.4151 113.923Z" fill="#F1E2C1"/>
<path d="M97.5172 105.408C99.8076 106.349 101.232 107.534 102.202 109.214C101.835 110.19 101.202 109.748 100.782 109.553C98.8003 108.629 98.246 107.946 97.5146 105.408H97.5172Z" fill="#F1E2C1"/>
<path d="M84.6933 113.973C84.3466 111.395 84.5744 110.843 86.6496 109.257C87.1229 111.575 86.8901 112.136 84.6933 113.973Z" fill="#F1E2C1"/>
<path d="M78.541 111.02C80.019 108.657 81.3502 107.361 83.1344 106.582C83.8785 107.169 83.4811 107.647 83.1597 108.082C82.193 109.391 80.925 110.266 78.541 111.02Z" fill="#F1E2C1"/>
<path d="M91.5422 114.826C89.677 113.237 89.5277 112.663 90.206 109.856C91.4106 110.049 91.3246 111.167 91.646 111.936C92.0357 112.873 92.1774 113.864 91.5447 114.826H91.5422Z" fill="#F1E2C1"/>
</svg>
