<svg width="334" height="334" viewBox="0 0 334 334" fill="none" xmlns="http://www.w3.org/2000/svg">
<path d="M112.92 168.748C114.119 165.438 116.177 163.112 118.786 161.2C122.572 158.427 126.59 156.045 130.807 153.99C141.102 148.972 151.89 145.452 163.201 143.655C172.847 142.123 182.349 142.989 191.733 145.67C201.192 148.371 210.028 152.285 217.787 158.418C221.073 161.012 224.163 163.819 226.668 167.199C228.905 170.218 228.818 171.314 225.969 173.534C215.796 181.462 204.794 187.811 192.105 190.783C180.682 193.461 169.112 194.132 157.432 193.072C147.729 192.191 138.695 188.999 129.893 185.068C124.611 182.712 120.254 179.066 116.471 174.725C114.958 172.991 113.801 171.049 112.923 168.748H112.92ZM130.36 159.111C131.492 159.712 132.56 159.195 133.665 158.969C138.488 157.982 143.289 156.822 148.157 156.126C153.657 155.34 159.219 154.994 164.752 154.437C171.844 153.724 178.918 154.077 185.939 155.089C197.113 156.696 207.984 159.486 218.352 164.051C218.855 164.272 219.429 164.339 219.968 164.479C219.938 163.629 219.462 163.411 219.068 163.092C207.064 153.425 193.223 148.446 177.992 147.174C170.622 146.559 163.368 147.543 156.207 149.377C147.246 151.675 138.569 154.689 130.477 159.229C130.293 159.36 130.102 159.492 129.926 159.634C129.918 159.643 129.999 159.763 130.038 159.83C130.147 159.592 130.256 159.355 130.365 159.114L130.36 159.111ZM224.562 169.578C220.421 166.735 201.718 160.873 196.427 160.817C196.153 167.878 193.743 174.112 188.609 179.122C183.484 184.121 177.318 186.67 170.146 186.679C166.282 186.684 162.647 185.672 159.191 183.992C155.721 182.306 152.807 179.93 150.419 176.894C146.594 172.035 145.227 166.344 145.012 160.165C142.573 159.964 140.532 160.722 138.494 161.197C130.502 163.056 122.561 165.097 115.154 168.742C115.238 169.064 115.232 169.357 115.372 169.536C115.993 170.33 116.614 171.132 117.313 171.856C122.206 176.925 127.804 180.909 134.439 183.464C146.018 187.92 157.899 190.545 170.381 189.935C172.403 189.838 174.427 189.832 176.452 189.765C183.207 189.541 189.736 188.188 196.089 185.896C206.186 182.256 215.106 176.514 223.835 170.431C224.132 170.224 224.325 169.869 224.568 169.578H224.562ZM147.43 159.721C146.893 172.435 157.687 183.26 170.658 183.223C185.137 183.181 193.95 170.83 193.083 159.886C182.145 156.489 161.185 157.026 147.43 159.721Z" fill="#F1E2C1"/>
<path d="M119.488 154.301C120.196 153.149 120.397 152.579 120.791 152.221C122.852 150.353 124.851 148.391 127.077 146.733C137.034 139.319 148.233 134.978 160.544 133.404C178.247 131.142 194.761 134.821 210.336 143.241C211.658 143.957 212.9 144.852 214.08 145.788C214.681 146.266 214.885 147.06 214.513 147.854C214.144 148.642 213.182 149.193 212.293 148.894C211.105 148.494 209.95 147.958 208.834 147.379C201.953 143.812 194.795 140.985 187.206 139.316C165.357 134.511 144.975 137.899 126.199 150.239C124.614 151.281 123.067 152.386 121.482 153.431C121.11 153.677 120.657 153.797 119.491 154.295L119.488 154.301Z" fill="#F1E2C1"/>
<path d="M210.54 191.365C210.173 193.025 208.918 193.529 207.936 194.222C202.94 197.75 197.459 200.325 191.646 202.181C175.28 207.409 158.844 207.744 142.377 202.692C136.656 200.937 131.332 198.323 126.498 194.773C125.483 194.029 124.546 193.168 123.637 192.296C123.291 191.963 123.053 191.474 122.891 191.01C122.628 190.247 122.776 189.517 123.361 188.916C123.987 188.273 124.938 188.105 125.799 188.614C126.557 189.061 127.272 189.598 127.952 190.157C136.318 197.048 146.105 200.52 156.697 201.938C173.373 204.168 189.149 200.923 204.268 193.892C205.873 193.146 207.436 192.312 209.044 191.577C209.443 191.395 209.95 191.44 210.54 191.365Z" fill="#F1E2C1"/>
<path d="M166.399 279.528C166.165 278.046 165.84 276.57 165.709 275.078C165.373 271.295 165.004 267.507 164.862 263.714C164.473 253.211 164.185 242.705 163.88 232.196C163.715 226.499 163.57 220.801 163.472 215.104C163.449 213.852 163.547 212.569 163.796 211.344C164.056 210.075 165.043 209.373 166.223 209.312C167.532 209.242 168.676 210.027 169.017 211.408C169.226 212.255 169.279 213.161 169.282 214.039C169.313 232.909 169.347 251.779 168.418 270.635C168.292 273.163 167.979 275.681 167.705 278.197C167.658 278.645 167.378 279.067 167.205 279.5C166.936 279.509 166.671 279.517 166.402 279.528H166.399Z" fill="#F1E2C1"/>
<path d="M168.108 54.1379C169.425 55.3512 169.184 56.6987 169.235 57.9148C169.486 64.1097 169.886 70.3103 169.841 76.5053C169.727 92.7029 169.419 108.898 169.154 125.092C169.137 126.076 168.947 127.108 168.569 128.008C168.39 128.433 167.56 128.847 167.065 128.802C166.564 128.755 165.907 128.226 165.7 127.745C165.415 127.083 165.41 126.267 165.415 125.517C165.552 110.332 165.608 95.1462 165.904 79.9662C166.044 72.7593 166.631 65.5607 167.051 58.3621C167.129 57.0062 167.001 55.5693 168.105 54.1407L168.108 54.1379Z" fill="#F1E2C1"/>
<path d="M260.544 231.789C259.342 231.378 258.69 231.33 258.29 230.992C256.456 229.437 254.605 227.886 252.922 226.178C245.453 218.607 238.01 211.009 230.62 203.363C226.926 199.539 223.344 195.605 219.754 191.683C218.906 190.758 218.132 189.738 217.492 188.661C216.944 187.741 217.257 186.632 218.017 185.882C218.736 185.178 219.916 184.951 220.827 185.413C221.272 185.636 221.689 185.947 222.066 186.277C222.541 186.69 222.986 187.146 223.414 187.613C234.766 200.05 246.074 212.527 256.638 225.655C257.977 227.318 259.426 228.929 260.547 231.789H260.544Z" fill="#F1E2C1"/>
<path d="M74.6875 231.263C74.914 229.172 75.7976 228.238 76.4966 227.245C80.2127 221.973 83.8757 216.659 87.7232 211.484C93.9838 203.055 100.37 194.722 106.718 186.357C107.481 185.351 108.3 184.381 109.161 183.458C109.581 183.008 110.121 182.614 110.68 182.357C112.355 181.591 114.203 182.868 114.004 184.677C113.926 185.401 113.644 186.159 113.263 186.785C112.679 187.755 111.966 188.655 111.25 189.539C100.879 202.306 90.3936 214.976 79.3599 227.181C78.426 228.213 77.4753 229.233 76.4854 230.209C76.1611 230.527 75.6829 230.692 74.6875 231.265V231.263Z" fill="#F1E2C1"/>
<path d="M77.7118 98.0171C79.0539 99.1661 79.8592 99.7196 80.4996 100.424C83.7263 103.974 87.009 107.486 90.0932 111.159C98.7781 121.511 107.382 131.933 115.997 142.344C116.878 143.409 117.705 144.538 118.399 145.732C119.073 146.887 118.74 148.111 117.798 148.757C116.959 149.33 115.91 149.299 114.996 148.53C114.325 147.966 113.721 147.303 113.173 146.618C101.661 132.213 90.2778 117.706 79.6691 102.613C78.9057 101.526 77.8544 100.519 77.709 98.0171H77.7118Z" fill="#F1E2C1"/>
<path d="M191.897 69.3792C192.437 71.9846 192.151 73.9863 191.841 75.946C190.672 83.3151 189.554 90.6982 188.153 98.0254C186.514 106.597 184.613 115.115 182.787 123.65C182.499 125 182.094 126.342 181.593 127.628C181.241 128.533 180.189 128.958 179.418 128.735C178.598 128.5 177.897 127.667 177.857 126.786C177.835 126.286 177.877 125.771 177.975 125.279C181.361 108.288 184.49 91.2405 189.389 74.5901C189.78 73.2566 190.256 71.9483 190.748 70.6483C190.862 70.3464 191.204 70.1312 191.897 69.3792Z" fill="#F1E2C1"/>
<path d="M259.246 98.6179C257.773 100.824 256.775 102.428 255.67 103.957C248.487 113.924 240.635 123.362 232.716 132.743C230.105 135.838 227.454 138.899 224.792 141.952C224.132 142.71 223.419 143.448 222.62 144.052C221.873 144.619 220.978 144.675 220.139 144.102C219.368 143.574 219.119 142.397 219.664 141.371C220.016 140.705 220.464 140.079 220.945 139.498C231.841 126.336 242.85 113.27 254.926 101.151C255.729 100.346 256.587 99.5908 257.471 98.8807C257.695 98.699 258.122 98.7689 259.244 98.6179H259.246Z" fill="#F1E2C1"/>
<path d="M141.089 262.685C140.65 259.18 141.1 256.683 141.402 254.215C143.08 240.542 145.435 226.972 147.99 213.439C148.178 212.452 148.429 211.462 148.796 210.531C149.209 209.48 150.258 208.873 151.158 208.968C152.243 209.083 153.216 210.07 153.269 211.286C153.309 212.161 153.239 213.058 153.068 213.917C150.199 228.414 147.395 242.926 143.494 257.198C143.161 258.417 142.834 259.638 142.426 260.832C142.286 261.24 141.909 261.57 141.089 262.685Z" fill="#F1E2C1"/>
<path d="M142.684 72.4067C144.437 73.3013 144.621 74.7075 144.965 75.9879C146.475 81.6098 148.077 87.2121 149.341 92.8899C151.729 103.636 153.921 114.424 156.153 125.204C156.379 126.3 156.435 127.471 156.309 128.578C156.259 129.037 155.58 129.654 155.085 129.772C154.573 129.895 153.7 129.68 153.41 129.291C152.904 128.62 152.613 127.731 152.423 126.89C151.198 121.458 149.951 116.032 148.852 110.572C146.601 99.4064 144.574 88.1961 143.083 76.8992C142.888 75.4092 142.815 73.9052 142.684 72.4067Z" fill="#F1E2C1"/>
<path d="M192.219 259.853C190.659 258.925 190.578 257.723 190.298 256.694C188.637 250.597 186.915 244.513 185.444 238.369C183.562 230.502 181.896 222.582 180.148 214.682C179.93 213.695 179.748 212.694 179.645 211.691C179.474 210.041 180.109 208.94 181.283 208.685C182.656 208.386 183.735 209.175 184.281 210.911C184.432 211.391 184.488 211.9 184.594 212.395C187.479 225.875 189.99 239.423 191.934 253.071C192.23 255.153 192.692 257.278 192.219 259.856V259.853Z" fill="#F1E2C1"/>
<path d="M213.725 245.61C212.643 244.408 212.064 243.927 211.689 243.317C210.635 241.598 209.564 239.876 208.675 238.07C204.391 229.353 200.155 220.615 195.933 211.867C195.443 210.852 195.055 209.768 194.783 208.672C194.495 207.509 195.203 206.304 196.226 205.89C197.135 205.521 198.248 205.778 198.939 206.667C199.473 207.358 199.945 208.127 200.295 208.923C204.755 219.088 209.223 229.253 212.863 239.75C213.277 240.941 213.649 242.149 213.946 243.371C214.049 243.798 213.867 244.293 213.722 245.607L213.725 245.61Z" fill="#F1E2C1"/>
<path d="M125.41 87.6707C127.052 88.8672 127.493 90.2174 128.039 91.4307C130.362 96.6109 132.722 101.78 134.856 107.041C137.655 113.941 140.258 120.916 142.923 127.868C143.325 128.922 143.675 130.01 143.912 131.111C144.086 131.913 143.401 132.867 142.609 133.222C141.852 133.566 140.812 133.292 140.28 132.47C139.805 131.734 139.408 130.932 139.1 130.113C134.576 118.064 129.962 106.043 126.389 93.6644C125.874 91.8836 125.002 90.1308 125.41 87.6707Z" fill="#F1E2C1"/>
<path d="M106.583 174.767C106.398 175.155 106.2 175.927 105.733 176.469C105.084 177.224 104.276 177.867 103.465 178.457C93.8716 185.44 84.2695 192.409 74.6591 199.368C73.8426 199.957 72.9982 200.531 72.1006 200.978C71.7259 201.165 71.1779 201 70.7109 200.997C70.7669 200.553 70.6662 199.98 70.9067 199.686C71.5414 198.909 72.288 198.213 73.0541 197.559C82.1808 189.776 91.3047 181.996 100.468 174.255C101.41 173.458 102.52 172.754 103.669 172.337C105.104 171.817 106.6 173.017 106.583 174.767Z" fill="#F1E2C1"/>
<path d="M211.815 85.9856C211.725 87.389 211.832 88.2388 211.6 88.9825C210.509 92.4713 209.438 95.977 208.152 99.396C204.687 108.605 201.122 117.771 197.58 126.949C197.219 127.886 196.811 128.822 196.302 129.683C195.701 130.698 194.624 131.053 193.721 130.698C192.762 130.321 192.25 129.365 192.491 128.221C192.647 127.486 192.876 126.751 193.167 126.057C198.136 114.19 202.856 102.217 208.532 90.657C209.089 89.5248 209.687 88.4122 210.339 87.3359C210.565 86.9585 211.007 86.7124 211.818 85.9856H211.815Z" fill="#F1E2C1"/>
<path d="M121.301 249.014C121.485 247.403 121.474 246.531 121.695 245.723C125.022 233.641 128.934 221.746 133.134 209.94C133.47 208.998 133.942 208.084 134.474 207.234C134.999 206.398 135.872 206.2 136.817 206.426C137.642 206.624 138.346 207.483 138.198 208.439C137.986 209.8 137.698 211.184 137.197 212.462C133.582 221.645 129.924 230.809 126.23 239.962C125.238 242.425 124.089 244.826 122.951 247.225C122.721 247.705 122.207 248.052 121.301 249.014Z" fill="#F1E2C1"/>
<path d="M262.33 199.718C261.147 199.474 260.644 199.474 260.244 199.27C259.008 198.636 257.772 197.984 256.606 197.23C248.643 192.077 240.691 186.903 232.749 181.717C231.908 181.166 231.083 180.554 230.367 179.852C229.402 178.91 229.33 177.691 230.029 176.766C230.719 175.852 231.916 175.544 233.091 176.061C233.661 176.313 234.206 176.657 234.71 177.029C243.35 183.439 251.867 190.003 259.97 197.084C260.672 197.696 261.228 198.476 262.333 199.718H262.33Z" fill="#F1E2C1"/>
<path d="M105.549 230.723C105.585 230.13 105.498 229.493 105.683 228.951C106.128 227.64 106.634 226.342 107.224 225.09C110.719 217.679 114.231 210.276 117.779 202.89C118.322 201.764 119.015 200.693 119.77 199.695C120.405 198.854 121.613 198.649 122.513 199.021C123.394 199.388 124.001 200.43 123.78 201.529C123.609 202.379 123.313 203.237 122.896 203.997C118.241 212.521 113.381 220.925 107.979 229.004C107.447 229.798 107.048 230.871 105.549 230.723Z" fill="#F1E2C1"/>
<path d="M227.393 104.818C227.138 105.822 227.038 106.683 226.702 107.435C225.779 109.509 224.865 111.597 223.755 113.571C220.173 119.951 216.518 126.288 212.85 132.62C212.288 133.59 211.592 134.521 210.784 135.287C210.426 135.625 209.587 135.681 209.047 135.544C208.245 135.343 207.836 134.574 207.934 133.778C208.024 133.051 208.281 132.299 208.647 131.661C213.563 123.129 218.658 114.712 224.602 106.842C225.226 106.018 225.721 104.877 227.39 104.815L227.393 104.818Z" fill="#F1E2C1"/>
<path d="M111.508 105.479C112.09 106.055 112.565 106.402 112.875 106.857C114.293 108.948 115.75 111.02 117.039 113.189C121.169 120.139 125.24 127.12 129.306 134.108C129.809 134.972 130.234 135.906 130.508 136.862C130.721 137.603 130.475 138.358 129.748 138.844C129.04 139.319 127.883 139.308 127.298 138.682C126.789 138.137 126.342 137.508 125.984 136.851C121.037 127.749 116.27 118.557 112.179 109.029C111.746 108.02 111.1 107.045 111.505 105.479H111.508Z" fill="#F1E2C1"/>
<path d="M82.0254 135.165C83.8904 135.075 84.7992 136.071 85.7555 136.781C91.5491 141.069 97.3092 145.408 103.053 149.763C104.864 151.139 106.62 152.595 108.351 154.074C109.011 154.639 109.593 155.326 110.093 156.039C110.571 156.721 110.437 157.504 109.995 158.184C109.551 158.866 108.455 159.162 107.619 158.801C107.045 158.555 106.458 158.267 105.989 157.868C97.9803 151.069 90.1594 144.069 82.8698 136.49C82.6154 136.224 82.4616 135.861 82.0254 135.165Z" fill="#F1E2C1"/>
<path d="M227.022 224.203C226.619 224.103 226.177 224.128 225.981 223.918C225.291 223.186 224.611 222.42 224.06 221.581C219.891 215.238 215.747 208.881 211.623 202.51C211.148 201.777 210.753 200.958 210.499 200.125C210.222 199.23 210.437 198.369 211.268 197.771C211.959 197.276 212.965 197.335 213.689 198.068C214.302 198.688 214.883 199.387 215.297 200.153C218.966 206.938 222.612 213.737 226.213 220.561C226.775 221.623 227.55 222.727 227.022 224.201V224.203Z" fill="#F1E2C1"/>
<path d="M255.235 133.474C255.148 134.374 255.243 134.818 255.064 135.028C254.332 135.892 253.579 136.761 252.715 137.488C247.003 142.28 241.262 147.041 235.516 151.793C234.739 152.433 233.889 152.995 233.028 153.521C232.035 154.125 231.246 154.035 230.634 153.361C229.952 152.609 230.078 151.678 231.026 150.7C231.375 150.337 231.747 149.984 232.155 149.691C238.9 144.785 245.641 139.878 252.408 135.003C253.112 134.494 253.951 134.164 255.24 133.479L255.235 133.474Z" fill="#F1E2C1"/>
<path d="M176.833 166.78C176.827 170.347 173.936 173.235 170.352 173.254C166.655 173.274 163.428 170.16 163.509 166.654C163.59 163.14 166.54 160.207 170.061 160.14C173.743 160.07 176.839 163.106 176.83 166.78H176.833Z" fill="#F1E2C1"/>
<path d="M160.681 163.45C155.545 165.158 152.609 164.988 150.117 162.944C150.802 162.189 151.736 162.377 152.541 162.385C154.812 162.405 157.08 162.522 159.345 162.659C159.663 162.679 159.965 163.014 160.678 163.45H160.681Z" fill="#F1E2C1"/>
<path d="M178.578 162.866C180.463 161.455 181.975 160.943 183.947 160.893C185.448 160.854 186.874 161.032 187.987 162.263C185.94 163.49 184.159 163.613 178.578 162.866Z" fill="#F1E2C1"/>
<path d="M187.94 169.355C184.456 170.308 182.575 169.85 179.639 167.465C181.305 166.836 182.636 166.671 184.141 167.094C185.553 167.488 186.967 167.949 187.94 169.355Z" fill="#F1E2C1"/>
<path d="M152.479 170.194C155.571 168.069 158.071 167.049 161.208 167.803C159.178 170.082 157.291 170.641 152.479 170.194Z" fill="#F1E2C1"/>
<path d="M178.34 180.006C175.125 179.15 174.848 176.788 174.076 174.879C174.747 174.085 175.2 174.381 175.553 174.706C177.233 176.24 177.49 176.732 178.34 180.006Z" fill="#F1E2C1"/>
<path d="M178.454 170.599C180.985 171.639 182.559 172.947 183.63 174.803C183.224 175.882 182.525 175.393 182.061 175.178C179.872 174.157 179.259 173.403 178.451 170.599H178.454Z" fill="#F1E2C1"/>
<path d="M164.285 180.062C163.902 177.213 164.154 176.604 166.447 174.851C166.97 177.412 166.712 178.032 164.285 180.062Z" fill="#F1E2C1"/>
<path d="M157.488 176.799C159.121 174.188 160.592 172.757 162.563 171.896C163.385 172.544 162.946 173.072 162.591 173.553C161.523 174.999 160.122 175.966 157.488 176.799Z" fill="#F1E2C1"/>
<path d="M171.852 181.004C169.791 179.248 169.626 178.613 170.376 175.513C171.707 175.726 171.612 176.961 171.967 177.811C172.397 178.846 172.554 179.941 171.855 181.004H171.852Z" fill="#F1E2C1"/>
<circle cx="166.833" cy="166.833" r="166.333" stroke="#F1E2C1"/>
</svg>
