<svg width="128" height="128" viewBox="0 0 128 128" fill="none" xmlns="http://www.w3.org/2000/svg">
<g clip-path="url(#clip0_548_223506)">
<path d="M5.48081 29.3491C4.30639 29.3491 3.52344 28.5662 3.52344 27.3917V4.09898C3.52344 2.92455 4.30639 2.1416 5.48081 2.1416H28.7736C29.948 2.1416 30.7309 2.92455 30.7309 4.09898C30.7309 5.2734 29.948 6.05635 28.7736 6.05635H7.43818V27.3917C7.43818 28.3704 6.65524 29.3491 5.48081 29.3491Z" fill="#02FFFF"/>
<path d="M126.838 29.3491C125.664 29.3491 124.881 28.5662 124.881 27.3917V6.05635H103.545C102.371 6.05635 101.588 5.2734 101.588 4.09898C101.588 2.92455 102.371 2.1416 103.545 2.1416H126.838C127.425 2.1416 127.817 2.33734 128.208 2.72881C128.6 3.12029 128.795 3.51176 128.795 4.09898V27.3917C128.795 28.3704 128.012 29.3491 126.838 29.3491Z" fill="#02FFFF"/>
<path d="M126.838 127.414H103.545C102.371 127.414 101.588 126.631 101.588 125.456C101.588 124.282 102.371 123.499 103.545 123.499H124.881V102.163C124.881 100.989 125.664 100.206 126.838 100.206C128.012 100.206 128.795 100.989 128.795 102.163V125.456C128.795 126.435 128.012 127.414 126.838 127.414Z" fill="#02FFFF"/>
<path d="M28.7736 127.414H5.48081C4.30639 127.414 3.52344 126.631 3.52344 125.456V102.163C3.52344 100.989 4.30639 100.206 5.48081 100.206C6.65524 100.206 7.43818 100.989 7.43818 102.163V123.499H28.7736C29.948 123.499 30.7309 124.282 30.7309 125.456C30.7309 126.435 29.7522 127.414 28.7736 127.414Z" fill="#02FFFF"/>
<path d="M66.5509 88.0701C51.6749 88.0701 37.3861 79.8491 26.4248 64.7773C25.8376 63.9944 25.8376 63.2114 26.4248 62.4285C37.3861 47.3567 51.6749 39.1357 66.5509 39.1357C81.427 39.1357 95.7158 47.3567 106.677 62.4285C107.264 63.2114 107.264 63.9944 106.677 64.7773C95.7158 79.8491 81.427 88.0701 66.5509 88.0701ZM30.5353 63.6029C40.7136 76.9131 53.4365 84.1553 66.7467 84.1553C80.0568 84.1553 92.584 76.9131 102.762 63.6029C92.584 50.4885 79.8611 43.2462 66.5509 43.2462C53.2408 43.2462 40.5179 50.4885 30.5353 63.6029Z" fill="#02FFFF"/>
<path d="M85.993 63.6025C85.993 74.3407 77.288 83.0458 66.5498 83.0458C55.8116 83.0458 47.1065 74.3407 47.1065 63.6025C47.1065 52.8643 55.8116 44.1593 66.5498 44.1593C77.288 44.1593 85.993 52.8643 85.993 63.6025Z" stroke="#02FFFF" stroke-width="3.39278"/>
<path d="M75.0333 63.6031C75.0333 68.2876 71.2358 72.0851 66.5514 72.0851C61.8669 72.0851 58.0694 68.2876 58.0694 63.6031C58.0694 58.9187 61.8669 55.1212 66.5514 55.1212C71.2358 55.1212 75.0333 58.9187 75.0333 63.6031Z" stroke="#02FFFF" stroke-width="3.39278"/>
<path d="M66.7464 34.8306C65.572 34.8306 64.7891 33.8519 64.7891 32.8732V26.2181C64.7891 25.0437 65.572 24.2607 66.7464 24.2607C67.9209 24.2607 68.7038 25.2394 68.7038 26.2181V32.8732C68.7038 34.0476 67.9209 34.8306 66.7464 34.8306Z" fill="#02FFFF"/>
<path d="M66.1585 103.142C64.9841 103.142 64.2012 102.163 64.2012 101.185V94.5296C64.2012 93.3552 65.1799 92.5723 66.1585 92.5723C67.333 92.5723 68.1159 93.551 68.1159 94.5296V101.185C68.1159 102.163 67.333 103.142 66.1585 103.142Z" fill="#02FFFF"/>
<path d="M52.8476 35.0267L50.3031 28.5674C49.9116 27.5887 50.3031 26.4143 51.4775 26.0228C52.4562 25.6313 53.6306 26.0228 54.0221 27.1972L56.5667 33.6565C56.9581 34.6352 56.5667 35.8096 55.3922 36.2011C54.4135 36.5926 53.2391 36.0054 52.8476 35.0267Z" fill="#02FFFF"/>
<path d="M79.2734 100.011L76.7288 93.5517C76.3374 92.5731 76.7288 91.3986 77.9033 91.0072C78.8819 90.6157 80.0564 91.0072 80.4478 92.1816L82.7967 98.6409C83.1882 99.6196 82.7967 100.794 81.6223 101.185C80.8393 101.577 79.6649 101.186 79.2734 100.011Z" fill="#02FFFF"/>
<path d="M42.2786 39.9206L37.3851 34.4399C36.6022 33.657 36.7979 32.4825 37.5809 31.6996C38.3638 30.9166 39.5383 31.1124 40.3212 31.8953L45.2146 37.376C45.9976 38.1589 45.8019 39.3334 45.0189 40.1163C44.236 40.8993 43.0615 40.7035 42.2786 39.9206Z" fill="#02FFFF"/>
<path d="M92.9758 95.5085L88.0824 90.0278C87.2995 89.2449 87.4952 88.0704 88.2781 87.2875C89.0611 86.5045 90.2355 86.7003 91.0185 87.4832L95.9119 92.9639C96.6949 93.7468 96.4991 94.9212 95.7162 95.7042C94.9332 96.2914 93.7588 96.2914 92.9758 95.5085Z" fill="#02FFFF"/>
<path d="M33.8619 47.1612L27.011 43.2465C26.0324 42.6593 25.8366 41.4848 26.2281 40.5062C26.8153 39.5275 27.9897 39.3317 28.9684 39.7232L35.8192 43.638C36.7979 44.2252 36.9937 45.3996 36.6022 46.3783C36.015 47.357 34.8405 47.7484 33.8619 47.1612Z" fill="#02FFFF"/>
<path d="M104.132 87.4841L97.2815 83.5693C96.3028 82.9821 95.9113 81.8077 96.4986 81.0247C97.0858 80.046 98.2602 79.8503 99.2389 80.2418L106.09 84.1565C107.068 84.7437 107.264 85.9182 106.873 86.8968C106.285 87.8755 105.111 88.0713 104.132 87.4841Z" fill="#02FFFF"/>
<path d="M26.0318 86.5042C25.4445 85.5255 25.836 84.3511 26.8147 83.7639L33.8613 79.8491C34.8399 79.2619 36.0144 79.6534 36.6016 80.6321C37.1888 81.6108 36.7973 82.7852 35.8186 83.3724L28.7721 87.2872C27.5977 87.6786 26.4232 87.2872 26.0318 86.5042Z" fill="#02FFFF"/>
<path d="M96.8892 46.7698C96.302 45.7911 96.6934 44.6167 97.6721 44.0295L104.719 40.1148C105.697 39.5276 106.872 39.919 107.459 40.8977C108.046 41.8764 107.655 43.0508 106.676 43.638L99.6295 47.5528C98.4551 47.9443 97.2807 47.7485 96.8892 46.7698Z" fill="#02FFFF"/>
<path d="M36.7981 95.3121C36.0152 94.5291 36.0152 93.3547 36.7981 92.5718L41.8873 87.0911C42.6703 86.3082 43.8447 86.3082 44.6276 87.0911C45.4106 87.8741 45.4106 89.0485 44.6276 89.8314L39.5385 95.3121C38.9513 95.8993 37.5811 95.8993 36.7981 95.3121Z" fill="#02FFFF"/>
<path d="M88.4759 40.3101C87.6929 39.5272 87.6929 38.3528 88.4759 37.5698L93.5651 32.0892C94.348 31.3062 95.5224 31.3062 96.3054 32.0892C97.0883 32.8721 97.0883 34.0465 96.3054 34.8295L91.2162 40.3101C90.629 41.0931 89.2588 41.0931 88.4759 40.3101Z" fill="#02FFFF"/>
<path d="M50.6951 100.99C49.7164 100.598 49.3249 99.4237 49.7164 98.445L52.4567 92.1814C52.8482 91.2027 54.0226 90.8113 55.0013 91.2027C55.98 91.5942 56.3715 92.7686 55.98 93.7473L53.2397 100.011C52.8482 100.99 51.6738 101.381 50.6951 100.99Z" fill="#02FFFF"/>
<path d="M78.2947 36.2006C77.316 35.8091 76.9246 34.6347 77.316 33.656L80.0563 27.3924C80.4478 26.4137 81.6223 26.0222 82.6009 26.4137C83.5796 26.8052 83.9711 27.9796 83.5796 28.9583L80.8393 35.2219C80.4478 36.2006 79.2734 36.7878 78.2947 36.2006Z" fill="#02FFFF"/>
<path d="M1.23862 29.3491C0.0641994 29.3491 -0.71875 28.5662 -0.71875 27.3917V4.09898C-0.71875 2.92455 0.0641994 2.1416 1.23862 2.1416H24.5314C25.7058 2.1416 26.4887 2.92455 26.4887 4.09898C26.4887 5.2734 25.7058 6.05635 24.5314 6.05635H3.196V27.3917C3.196 28.3704 2.41305 29.3491 1.23862 29.3491Z" fill="#FF0201"/>
<path d="M122.596 29.3491C121.421 29.3491 120.638 28.5662 120.638 27.3917V6.05635H99.3031C98.1287 6.05635 97.3457 5.2734 97.3457 4.09898C97.3457 2.92455 98.1287 2.1416 99.3031 2.1416H122.596C123.183 2.1416 123.575 2.33734 123.966 2.72881C124.357 3.12029 124.553 3.51176 124.553 4.09898V27.3917C124.553 28.3704 123.77 29.3491 122.596 29.3491Z" fill="#FF0201"/>
<path d="M122.596 127.414H99.3031C98.1287 127.414 97.3457 126.631 97.3457 125.456C97.3457 124.282 98.1287 123.499 99.3031 123.499H120.638V102.163C120.638 100.989 121.421 100.206 122.596 100.206C123.77 100.206 124.553 100.989 124.553 102.163V125.456C124.553 126.435 123.77 127.414 122.596 127.414Z" fill="#FF0201"/>
<path d="M24.5314 127.414H1.23862C0.0641994 127.414 -0.71875 126.631 -0.71875 125.456V102.163C-0.71875 100.989 0.0641994 100.206 1.23862 100.206C2.41305 100.206 3.196 100.989 3.196 102.163V123.499H24.5314C25.7058 123.499 26.4887 124.282 26.4887 125.456C26.4887 126.435 25.5101 127.414 24.5314 127.414Z" fill="#FF0201"/>
<path d="M62.3088 88.0711C47.4327 88.0711 33.1439 79.8501 22.1826 64.7783C21.5954 63.9954 21.5954 63.2124 22.1826 62.4295C33.1439 47.3577 47.4327 39.1367 62.3088 39.1367C77.1848 39.1367 91.4736 47.3577 102.435 62.4295C103.022 63.2124 103.022 63.9954 102.435 64.7783C91.4736 79.8501 77.1848 88.0711 62.3088 88.0711ZM26.2931 63.6039C36.4714 76.914 49.1944 84.1563 62.5045 84.1563C75.8146 84.1563 88.3418 76.914 98.5202 63.6039C88.3418 50.4895 75.6189 43.2472 62.3088 43.2472C48.9986 43.2472 36.2757 50.4895 26.2931 63.6039Z" fill="#FF0201"/>
<path d="M81.7548 63.6035C81.7548 74.3417 73.0497 83.0468 62.3115 83.0468C51.5733 83.0468 42.8683 74.3417 42.8683 63.6035C42.8683 52.8653 51.5733 44.1603 62.3115 44.1603C73.0497 44.1603 81.7548 52.8653 81.7548 63.6035Z" stroke="#FF0201" stroke-width="3.39278"/>
<path d="M70.7912 63.6041C70.7912 68.2886 66.9937 72.0861 62.3092 72.0861C57.6248 72.0861 53.8273 68.2886 53.8273 63.6041C53.8273 58.9197 57.6248 55.1222 62.3092 55.1222C66.9937 55.1222 70.7912 58.9197 70.7912 63.6041Z" stroke="#FF0201" stroke-width="3.39278"/>
<path d="M62.5082 34.8315C61.3337 34.8315 60.5508 33.8528 60.5508 32.8742V26.2191C60.5508 25.0447 61.3337 24.2617 62.5082 24.2617C63.6826 24.2617 64.4655 25.2404 64.4655 26.2191V32.8742C64.4655 34.0486 63.6826 34.8315 62.5082 34.8315Z" fill="#FF0201"/>
<path d="M61.9222 103.143C60.7478 103.143 59.9648 102.164 59.9648 101.186V94.5306C59.9648 93.3562 60.9435 92.5732 61.9222 92.5732C63.0966 92.5732 63.8796 93.5519 63.8796 94.5306V101.186C63.8796 102.164 63.0966 103.143 61.9222 103.143Z" fill="#FF0201"/>
<path d="M48.6113 35.0277L46.0667 28.5683C45.6753 27.5897 46.0667 26.4152 47.2411 26.0238C48.2198 25.6323 49.3943 26.0238 49.7857 27.1982L52.3303 33.6575C52.7218 34.6362 52.3303 35.8106 51.1559 36.2021C50.1772 36.5936 49.0028 36.0064 48.6113 35.0277Z" fill="#FF0201"/>
<path d="M75.0351 100.012L72.4906 93.5527C72.0991 92.574 72.4906 91.3996 73.665 91.0081C74.6437 90.6167 75.8181 91.0081 76.2096 92.1826L78.5584 98.6419C78.9499 99.6206 78.5584 100.795 77.384 101.186C76.601 101.578 75.4266 101.186 75.0351 100.012Z" fill="#FF0201"/>
<path d="M38.0422 39.9215L33.1488 34.4409C32.3659 33.6579 32.5616 32.4835 33.3446 31.7006C34.1275 30.9176 35.3019 31.1134 36.0849 31.8963L40.9783 37.377C41.7613 38.1599 41.5655 39.3343 40.7826 40.1173C39.9996 40.9002 38.8252 40.7045 38.0422 39.9215Z" fill="#FF0201"/>
<path d="M88.7376 95.5094L83.8441 90.0288C83.0612 89.2458 83.2569 88.0714 84.0399 87.2885C84.8228 86.5055 85.9972 86.7013 86.7802 87.4842L91.6736 92.9648C92.4566 93.7478 92.2608 94.9222 91.4779 95.7052C90.6949 96.2924 89.5205 96.2924 88.7376 95.5094Z" fill="#FF0201"/>
<path d="M29.6255 47.1622L22.7747 43.2475C21.796 42.6603 21.6003 41.4858 21.9918 40.5071C22.579 39.5285 23.7534 39.3327 24.7321 39.7242L31.5829 43.6389C32.5616 44.2261 32.7573 45.4006 32.3658 46.3793C31.7786 47.3579 30.6042 47.7494 29.6255 47.1622Z" fill="#FF0201"/>
<path d="M99.896 87.485L93.0452 83.5703C92.0665 82.9831 91.675 81.8086 92.2622 81.0257C92.8494 80.047 94.0239 79.8513 95.0026 80.2427L101.853 84.1575C102.832 84.7447 103.028 85.9191 102.636 86.8978C102.049 87.8765 100.875 88.0722 99.896 87.485Z" fill="#FF0201"/>
<path d="M21.7954 86.5052C21.2082 85.5265 21.5997 84.3521 22.5784 83.7649L29.6249 79.8501C30.6036 79.2629 31.778 79.6544 32.3652 80.6331C32.9525 81.6118 32.561 82.7862 31.5823 83.3734L24.5358 87.2881C23.3613 87.6796 22.1869 87.2881 21.7954 86.5052Z" fill="#FF0201"/>
<path d="M92.6529 46.7708C92.0656 45.7921 92.4571 44.6177 93.4358 44.0305L100.482 40.1157C101.461 39.5285 102.635 39.92 103.223 40.8987C103.81 41.8774 103.418 43.0518 102.44 43.639L95.3932 47.5538C94.2187 47.9452 93.0443 47.7495 92.6529 46.7708Z" fill="#FF0201"/>
<path d="M32.5618 95.3131C31.7789 94.5301 31.7789 93.3557 32.5618 92.5727L37.651 87.0921C38.4339 86.3091 39.6084 86.3091 40.3913 87.0921C41.1743 87.875 41.1743 89.0495 40.3913 89.8324L35.3021 95.3131C34.7149 95.9003 33.3448 95.9003 32.5618 95.3131Z" fill="#FF0201"/>
<path d="M84.2356 40.3111C83.4527 39.5282 83.4527 38.3537 84.2356 37.5708L89.3248 32.0901C90.1078 31.3072 91.2822 31.3072 92.0651 32.0901C92.8481 32.8731 92.8481 34.0475 92.0651 34.8305L86.976 40.3111C86.3888 41.0941 85.0186 41.0941 84.2356 40.3111Z" fill="#FF0201"/>
<path d="M46.4588 100.991C45.4801 100.599 45.0886 99.4247 45.4801 98.446L48.2204 92.1824C48.6119 91.2037 49.7863 90.8123 50.765 91.2037C51.7437 91.5952 52.1352 92.7696 51.7437 93.7483L49.0034 100.012C48.6119 100.991 47.4375 101.382 46.4588 100.991Z" fill="#FF0201"/>
<path d="M74.0584 36.2015C73.0797 35.8101 72.6882 34.6356 73.0797 33.6569L75.82 27.3933C76.2115 26.4147 77.3859 26.0232 78.3646 26.4147C79.3433 26.8061 79.7348 27.9806 79.3433 28.9592L76.603 35.2228C76.2115 36.2015 75.0371 36.7887 74.0584 36.2015Z" fill="#FF0201"/>
<path d="M2.93784 29.3491C1.76342 29.3491 0.980469 28.5662 0.980469 27.3917V4.09898C0.980469 2.92455 1.76342 2.1416 2.93784 2.1416H26.2306C27.405 2.1416 28.188 2.92455 28.188 4.09898C28.188 5.2734 27.405 6.05635 26.2306 6.05635H4.89522V27.3917C4.89522 28.3704 4.11227 29.3491 2.93784 29.3491Z" fill="white"/>
<path d="M124.295 29.3491C123.121 29.3491 122.338 28.5662 122.338 27.3917V6.05635H101.002C99.8279 6.05635 99.0449 5.2734 99.0449 4.09898C99.0449 2.92455 99.8279 2.1416 101.002 2.1416H124.295C124.882 2.1416 125.274 2.33734 125.665 2.72881C126.057 3.12029 126.252 3.51176 126.252 4.09898V27.3917C126.252 28.3704 125.469 29.3491 124.295 29.3491Z" fill="white"/>
<path d="M124.295 127.414H101.002C99.8279 127.414 99.0449 126.631 99.0449 125.456C99.0449 124.282 99.8279 123.499 101.002 123.499H122.338V102.163C122.338 100.989 123.121 100.206 124.295 100.206C125.469 100.206 126.252 100.989 126.252 102.163V125.456C126.252 126.435 125.469 127.414 124.295 127.414Z" fill="white"/>
<path d="M26.2306 127.414H2.93784C1.76342 127.414 0.980469 126.631 0.980469 125.456V102.163C0.980469 100.989 1.76342 100.206 2.93784 100.206C4.11227 100.206 4.89522 100.989 4.89522 102.163V123.499H26.2306C27.405 123.499 28.188 124.282 28.188 125.456C28.188 126.435 27.2093 127.414 26.2306 127.414Z" fill="white"/>
<path d="M64.006 88.0711C49.13 88.0711 34.8412 79.8501 23.8799 64.7783C23.2927 63.9954 23.2927 63.2124 23.8799 62.4295C34.8412 47.3577 49.13 39.1367 64.006 39.1367C78.8821 39.1367 93.1709 47.3577 104.132 62.4295C104.719 63.2124 104.719 63.9954 104.132 64.7783C93.1709 79.8501 78.8821 88.0711 64.006 88.0711ZM27.9903 63.6039C38.1687 76.914 50.8916 84.1563 64.2018 84.1563C77.5119 84.1563 90.0391 76.914 100.217 63.6039C90.0391 50.4895 77.3162 43.2472 64.006 43.2472C50.6959 43.2472 37.973 50.4895 27.9903 63.6039Z" fill="white"/>
<path d="M83.4501 63.6035C83.4501 74.3417 74.745 83.0468 64.0068 83.0468C53.2686 83.0468 44.5636 74.3417 44.5636 63.6035C44.5636 52.8653 53.2686 44.1603 64.0068 44.1603C74.745 44.1603 83.4501 52.8653 83.4501 63.6035Z" stroke="white" stroke-width="3.39278"/>
<path d="M72.4865 63.6041C72.4865 68.2886 68.689 72.0861 64.0045 72.0861C59.3201 72.0861 55.5226 68.2886 55.5226 63.6041C55.5226 58.9197 59.3201 55.1222 64.0045 55.1222C68.689 55.1222 72.4865 58.9197 72.4865 63.6041Z" stroke="white" stroke-width="3.39278"/>
<path d="M64.2035 34.8315C63.029 34.8315 62.2461 33.8528 62.2461 32.8742V26.2191C62.2461 25.0447 63.029 24.2617 64.2035 24.2617C65.3779 24.2617 66.1608 25.2404 66.1608 26.2191V32.8742C66.1608 34.0486 65.3779 34.8315 64.2035 34.8315Z" fill="white"/>
<path d="M63.6156 103.143C62.4412 103.143 61.6582 102.164 61.6582 101.186V94.5306C61.6582 93.3562 62.6369 92.5732 63.6156 92.5732C64.79 92.5732 65.573 93.5519 65.573 94.5306V101.186C65.573 102.164 64.79 103.143 63.6156 103.143Z" fill="white"/>
<path d="M50.3047 35.0277L47.7601 28.5683C47.3686 27.5897 47.7601 26.4152 48.9345 26.0238C49.9132 25.6323 51.0876 26.0238 51.4791 27.1982L54.0237 33.6575C54.4152 34.6362 54.0237 35.8106 52.8493 36.2021C51.8706 36.5936 50.6961 36.0064 50.3047 35.0277Z" fill="white"/>
<path d="M76.7285 100.012L74.1839 93.5527C73.7924 92.574 74.1839 91.3996 75.3583 91.0081C76.337 90.6167 77.5114 91.0081 77.9029 92.1826L80.2518 98.6419C80.6432 99.6206 80.2518 100.795 79.0773 101.186C78.2944 101.578 77.12 101.186 76.7285 100.012Z" fill="white"/>
<path d="M39.7356 39.9215L34.8422 34.4409C34.0592 33.6579 34.255 32.4835 35.0379 31.7006C35.8209 30.9176 36.9953 31.1134 37.7782 31.8963L42.6717 37.377C43.4546 38.1599 43.2589 39.3343 42.4759 40.1173C41.693 40.9002 40.5186 40.7045 39.7356 39.9215Z" fill="white"/>
<path d="M90.4329 95.5094L85.5394 90.0288C84.7565 89.2458 84.9522 88.0714 85.7352 87.2885C86.5181 86.5055 87.6926 86.7013 88.4755 87.4842L93.3689 92.9648C94.1519 93.7478 93.9561 94.9222 93.1732 95.7052C92.3902 96.2924 91.2158 96.2924 90.4329 95.5094Z" fill="white"/>
<path d="M31.3189 47.1622L24.4681 43.2475C23.4894 42.6603 23.2937 41.4858 23.6851 40.5071C24.2723 39.5285 25.4468 39.3327 26.4254 39.7242L33.2763 43.6389C34.2549 44.2261 34.4507 45.4006 34.0592 46.3793C33.472 47.3579 32.2976 47.7494 31.3189 47.1622Z" fill="white"/>
<path d="M101.589 87.485L94.7385 83.5703C93.7599 82.9831 93.3684 81.8086 93.9556 81.0257C94.5428 80.047 95.7172 79.8513 96.6959 80.2427L103.547 84.1575C104.525 84.7447 104.721 85.9191 104.33 86.8978C103.742 87.8765 102.568 88.0722 101.589 87.485Z" fill="white"/>
<path d="M23.4888 86.5052C22.9016 85.5265 23.2931 84.3521 24.2717 83.7649L31.3183 79.8501C32.297 79.2629 33.4714 79.6544 34.0586 80.6331C34.6458 81.6118 34.2543 82.7862 33.2757 83.3734L26.2291 87.2881C25.0547 87.6796 23.8803 87.2881 23.4888 86.5052Z" fill="white"/>
<path d="M94.3462 46.7708C93.759 45.7921 94.1505 44.6177 95.1292 44.0305L102.176 40.1157C103.154 39.5285 104.329 39.92 104.916 40.8987C105.503 41.8774 105.112 43.0518 104.133 43.639L97.0865 47.5538C95.9121 47.9452 94.7377 47.7495 94.3462 46.7708Z" fill="white"/>
<path d="M34.2552 95.3131C33.4722 94.5301 33.4722 93.3557 34.2552 92.5727L39.3444 87.0921C40.1273 86.3091 41.3017 86.3091 42.0847 87.0921C42.8676 87.875 42.8676 89.0495 42.0847 89.8324L36.9955 95.3131C36.4083 95.9003 35.0381 95.9003 34.2552 95.3131Z" fill="white"/>
<path d="M85.931 40.3111C85.148 39.5282 85.148 38.3537 85.931 37.5708L91.0201 32.0901C91.8031 31.3072 92.9775 31.3072 93.7605 32.0901C94.5434 32.8731 94.5434 34.0475 93.7605 34.8305L88.6713 40.3111C88.0841 41.0941 86.7139 41.0941 85.931 40.3111Z" fill="white"/>
<path d="M48.1521 100.991C47.1735 100.599 46.782 99.4247 47.1735 98.446L49.9138 92.1824C50.3052 91.2037 51.4797 90.8123 52.4584 91.2037C53.437 91.5952 53.8285 92.7696 53.437 93.7483L50.6967 100.012C50.3052 100.991 49.1308 101.382 48.1521 100.991Z" fill="white"/>
<path d="M75.7517 36.2006C74.7731 35.8091 74.3816 34.6347 74.7731 33.656L77.5134 27.3924C77.9049 26.4137 79.0793 26.0222 80.058 26.4137C81.0367 26.8052 81.4281 27.9796 81.0367 28.9583L78.2963 35.2219C77.9049 36.2006 76.7304 36.7878 75.7517 36.2006Z" fill="white"/>
</g>
<defs>
<clipPath id="clip0_548_223506">
<rect width="127.229" height="127.229" fill="white" transform="translate(0 0.771484)"/>
</clipPath>
</defs>
</svg>
