<svg width="209" height="78" viewBox="0 0 209 78" fill="none" xmlns="http://www.w3.org/2000/svg">
<rect x="0.777344" y="0.317627" width="207.445" height="77.3177" rx="11.6706" fill="#090909"/>
<g filter="url(#filter0_ii_140_203748)">
<path d="M21.4822 19.8966C21.034 20.3729 20.769 21.112 20.769 22.0692V56.2684C20.769 57.2271 21.034 57.9647 21.4822 58.441L21.5962 58.5523L40.6795 39.3946V39.1688V38.943L21.5962 19.7837L21.4822 19.8966Z" fill="url(#paint0_linear_140_203748)"/>
<path d="M47.0393 45.7824L40.6792 39.3944V39.1686V38.9428L47.0408 32.5564L47.1841 32.6384L54.721 36.9372C56.8728 38.165 56.8728 40.1737 54.721 41.4031L47.1841 45.702L47.0393 45.7824Z" fill="url(#paint1_linear_140_203748)"/>
<g filter="url(#filter1_i_140_203748)">
<path d="M47.1846 45.7003L40.6782 39.1685L21.4824 58.4407C22.191 59.1953 23.3632 59.2881 24.6833 58.5365L47.1846 45.7003Z" fill="url(#paint2_linear_140_203748)"/>
</g>
<path d="M47.1846 32.6371L24.6833 19.8024C23.3632 19.0493 22.191 19.1437 21.4824 19.8983L40.6797 39.1705L47.1846 32.6371Z" fill="url(#paint3_linear_140_203748)"/>
</g>
<path d="M104.736 41.0399C101.314 41.0399 98.5252 43.6412 98.5252 47.224C98.5252 50.785 101.314 53.4082 104.736 53.4082C108.159 53.4082 110.948 50.785 110.948 47.224C110.946 43.6412 108.157 41.0399 104.736 41.0399ZM104.736 50.9741C102.861 50.9741 101.244 49.4284 101.244 47.2255C101.244 44.9993 102.862 43.4769 104.736 43.4769C106.611 43.4769 108.227 44.9993 108.227 47.2255C108.227 49.4269 106.611 50.9741 104.736 50.9741ZM91.1857 41.0399C87.764 41.0399 84.9752 43.6412 84.9752 47.224C84.9752 50.785 87.764 53.4082 91.1857 53.4082C94.6089 53.4082 97.3977 50.785 97.3977 47.224C97.3977 43.6412 94.6089 41.0399 91.1857 41.0399ZM91.1857 50.9741C89.3105 50.9741 87.6942 49.4284 87.6942 47.2255C87.6942 44.9993 89.3119 43.4769 91.1857 43.4769C93.061 43.4769 94.6772 44.9993 94.6772 47.2255C94.6787 49.4269 93.061 50.9741 91.1857 50.9741ZM75.0694 42.9389V45.562H81.3513C81.1636 47.0379 80.6719 48.1154 79.9212 48.8642C79.0076 49.7774 77.5775 50.785 75.0694 50.785C71.2026 50.785 68.1795 47.669 68.1795 43.8041C68.1795 39.9392 71.2026 36.8231 75.0694 36.8231C77.1556 36.8231 78.6788 37.6432 79.8034 38.6974L81.6553 36.8464C80.0841 35.3472 77.9994 34.2 75.0694 34.2C69.7725 34.2 65.3193 38.5098 65.3193 43.8041C65.3193 49.0983 69.7725 53.4082 75.0694 53.4082C77.9281 53.4082 80.0856 52.4703 81.7717 50.7138C83.5058 48.9805 84.0456 46.5435 84.0456 44.5762C84.0456 43.9684 83.999 43.4056 83.9044 42.9374L75.0694 42.9389ZM140.984 44.976C140.469 43.5947 138.897 41.0399 135.687 41.0399C132.499 41.0399 129.85 43.5467 129.85 47.224C129.85 50.6905 132.476 53.4082 135.991 53.4082C138.826 53.4082 140.467 51.6749 141.148 50.6673L139.039 49.2612C138.336 50.2921 137.374 50.9712 135.991 50.9712C134.609 50.9712 133.624 50.3386 132.991 49.0969L141.264 45.6769L140.984 44.976ZM132.546 47.0379C132.476 44.6474 134.398 43.4304 135.781 43.4304C136.859 43.4304 137.773 43.9698 138.078 44.7419L132.546 47.0379ZM125.82 53.0345H128.538V34.8572H125.82V53.0345ZM121.366 42.4227H121.272C120.663 41.6957 119.49 41.0399 118.015 41.0399C114.921 41.0399 112.085 43.7575 112.085 47.2487C112.085 50.7152 114.921 53.4096 118.015 53.4096C119.492 53.4096 120.663 52.7538 121.272 52.005H121.366V52.8949C121.366 55.2606 120.1 56.5257 118.062 56.5257C116.397 56.5257 115.366 55.3319 114.944 54.3242L112.577 55.3086C113.257 56.9474 115.06 58.9627 118.062 58.9627C121.249 58.9627 123.945 57.0884 123.945 52.5197V41.4165H121.367L121.366 42.4227ZM118.249 50.9741C116.374 50.9741 114.804 49.4037 114.804 47.2487C114.804 45.0691 116.374 43.4769 118.249 43.4769C120.1 43.4769 121.553 45.0691 121.553 47.2487C121.553 49.4037 120.1 50.9741 118.249 50.9741ZM153.719 34.8572H147.215V53.0345H149.928V46.148H153.717C156.726 46.148 159.685 43.9713 159.685 40.5033C159.685 37.0354 156.727 34.8572 153.719 34.8572ZM153.789 43.6179H149.928V37.3873H153.789C155.818 37.3873 156.97 39.0667 156.97 40.5033C156.97 41.9109 155.818 43.6179 153.789 43.6179ZM170.566 41.0079C168.6 41.0079 166.565 41.8731 165.723 43.791L168.132 44.7957C168.647 43.791 169.607 43.4624 170.612 43.4624C172.016 43.4624 173.443 44.3043 173.466 45.8005V45.9881C172.975 45.7074 171.921 45.2872 170.635 45.2872C168.039 45.2872 165.394 46.7136 165.394 49.3789C165.394 51.8116 167.524 53.3776 169.909 53.3776C171.734 53.3776 172.74 52.559 173.372 51.5993H173.465V53.0025H176.087V46.0331C176.088 42.808 173.676 41.0079 170.566 41.0079ZM170.237 50.9697C169.349 50.9697 168.108 50.5248 168.108 49.4255C168.108 48.0223 169.653 47.4843 170.987 47.4843C172.179 47.4843 172.742 47.7417 173.466 48.0921C173.255 49.7774 171.805 50.9697 170.237 50.9697ZM185.633 41.4048L182.521 49.2859H182.428L179.198 41.4048H176.274L181.117 52.4194L178.356 58.5468H181.187L188.652 41.4048H185.633ZM161.184 53.0345H163.897V34.8572H161.184V53.0345Z" fill="white"/>
<path d="M74.7305 24.1055C74.7305 25.3019 74.37 26.2542 73.6476 26.9652C72.8279 27.8104 71.7581 28.233 70.4441 28.233C69.1854 28.233 68.1142 27.8047 67.2348 26.9481C66.354 26.09 65.9136 25.0278 65.9136 23.76C65.9136 22.4907 66.354 21.4285 67.2348 20.5719C68.1142 19.7138 69.1854 19.2855 70.4441 19.2855C71.0691 19.2855 71.6665 19.4054 72.2334 19.6439C72.8017 19.8837 73.2567 20.2021 73.5968 20.6004L72.8308 21.3543C72.2537 20.6761 71.4587 20.3377 70.4427 20.3377C69.5241 20.3377 68.7305 20.6547 68.0604 21.2886C67.3903 21.9225 67.056 22.7463 67.056 23.7586C67.056 24.7708 67.3903 25.5946 68.0604 26.2285C68.7305 26.8624 69.5241 27.1794 70.4427 27.1794C71.4165 27.1794 72.229 26.861 72.8787 26.2228C73.3003 25.8073 73.5444 25.2291 73.6099 24.4881H70.4427V23.4587H74.668C74.7116 23.6829 74.7305 23.8985 74.7305 24.1055Z" fill="white"/>
<path d="M81.4313 20.5277H77.4603V23.2432H81.0417V24.2726H77.4603V26.9881H81.4313V28.0418H76.3397V19.4755H81.4313V20.5277Z" fill="white"/>
<path d="M86.1564 28.0418H85.0358V20.5277H82.5997V19.4755H88.5925V20.5277H86.1564V28.0418Z" fill="white"/>
<path d="M92.9282 28.0418V19.4755H94.0489V28.0418H92.9282Z" fill="white"/>
<path d="M99.0186 28.0418H97.898V20.5277H95.4619V19.4755H101.455V20.5277H99.0186V28.0418Z" fill="white"/>
<path d="M112.799 26.9353C111.941 27.8005 110.876 28.2331 109.601 28.2331C108.327 28.2331 107.261 27.8005 106.405 26.9353C105.547 26.0701 105.12 25.0107 105.12 23.7586C105.12 22.5065 105.547 21.4471 106.405 20.5819C107.261 19.7167 108.327 19.2827 109.601 19.2827C110.869 19.2827 111.933 19.7182 112.793 20.5877C113.654 21.4571 114.084 22.5136 114.084 23.7586C114.084 25.0107 113.655 26.0701 112.799 26.9353ZM107.232 26.2172C107.877 26.8596 108.667 27.1794 109.601 27.1794C110.536 27.1794 111.327 26.8582 111.97 26.2172C112.616 25.5747 112.94 24.7552 112.94 23.7586C112.94 22.7621 112.616 21.9426 111.97 21.3001C111.327 20.6576 110.536 20.3378 109.601 20.3378C108.667 20.3378 107.877 20.659 107.232 21.3001C106.588 21.9426 106.264 22.7621 106.264 23.7586C106.264 24.7552 106.588 25.5747 107.232 26.2172Z" fill="white"/>
<path d="M115.657 28.0418V19.4755H117.02L121.258 26.1386H121.306L121.258 24.4882V19.4755H122.379V28.0418H121.209L116.774 21.0545H116.726L116.774 22.705V28.0418H115.657Z" fill="white"/>
<path d="M74.7305 24.1055C74.7305 25.3019 74.37 26.2542 73.6476 26.9652C72.8279 27.8104 71.7581 28.233 70.4441 28.233C69.1854 28.233 68.1142 27.8047 67.2348 26.9481C66.354 26.09 65.9136 25.0278 65.9136 23.76C65.9136 22.4907 66.354 21.4285 67.2348 20.5719C68.1142 19.7138 69.1854 19.2855 70.4441 19.2855C71.0691 19.2855 71.6665 19.4054 72.2334 19.6439C72.8017 19.8837 73.2567 20.2021 73.5968 20.6004L72.8308 21.3543C72.2537 20.6761 71.4587 20.3377 70.4427 20.3377C69.5241 20.3377 68.7305 20.6547 68.0604 21.2886C67.3903 21.9225 67.056 22.7463 67.056 23.7586C67.056 24.7708 67.3903 25.5946 68.0604 26.2285C68.7305 26.8624 69.5241 27.1794 70.4427 27.1794C71.4165 27.1794 72.229 26.861 72.8787 26.2228C73.3003 25.8073 73.5444 25.2291 73.6099 24.4881H70.4427V23.4587H74.668C74.7116 23.6829 74.7305 23.8985 74.7305 24.1055Z" stroke="white" stroke-width="0.0596693" stroke-miterlimit="10"/>
<path d="M81.4313 20.5277H77.4603V23.2432H81.0417V24.2726H77.4603V26.9881H81.4313V28.0418H76.3397V19.4755H81.4313V20.5277Z" stroke="white" stroke-width="0.0596693" stroke-miterlimit="10"/>
<path d="M86.1564 28.0418H85.0358V20.5277H82.5997V19.4755H88.5925V20.5277H86.1564V28.0418Z" stroke="white" stroke-width="0.0596693" stroke-miterlimit="10"/>
<path d="M92.9282 28.0418V19.4755H94.0489V28.0418H92.9282Z" stroke="white" stroke-width="0.0596693" stroke-miterlimit="10"/>
<path d="M99.0186 28.0418H97.898V20.5277H95.4619V19.4755H101.455V20.5277H99.0186V28.0418Z" stroke="white" stroke-width="0.0596693" stroke-miterlimit="10"/>
<path d="M112.799 26.9353C111.941 27.8005 110.876 28.2331 109.601 28.2331C108.327 28.2331 107.261 27.8005 106.405 26.9353C105.547 26.0701 105.12 25.0107 105.12 23.7586C105.12 22.5065 105.547 21.4471 106.405 20.5819C107.261 19.7167 108.327 19.2827 109.601 19.2827C110.869 19.2827 111.933 19.7182 112.793 20.5877C113.654 21.4571 114.084 22.5136 114.084 23.7586C114.084 25.0107 113.655 26.0701 112.799 26.9353ZM107.232 26.2172C107.877 26.8596 108.667 27.1794 109.601 27.1794C110.536 27.1794 111.327 26.8582 111.97 26.2172C112.616 25.5747 112.94 24.7552 112.94 23.7586C112.94 22.7621 112.616 21.9426 111.97 21.3001C111.327 20.6576 110.536 20.3378 109.601 20.3378C108.667 20.3378 107.877 20.659 107.232 21.3001C106.588 21.9426 106.264 22.7621 106.264 23.7586C106.264 24.7552 106.588 25.5747 107.232 26.2172Z" stroke="white" stroke-width="0.0596693" stroke-miterlimit="10"/>
<path d="M115.657 28.0418V19.4755H117.02L121.258 26.1386H121.306L121.258 24.4882V19.4755H122.379V28.0418H121.209L116.774 21.0545H116.726L116.774 22.705V28.0418H115.657Z" stroke="white" stroke-width="0.0596693" stroke-miterlimit="10"/>
<defs>
<filter id="filter0_ii_140_203748" x="20.769" y="19.2827" width="35.5659" height="39.7729" filterUnits="userSpaceOnUse" color-interpolation-filters="sRGB">
<feFlood flood-opacity="0" result="BackgroundImageFix"/>
<feBlend mode="normal" in="SourceGraphic" in2="BackgroundImageFix" result="shape"/>
<feColorMatrix in="SourceAlpha" type="matrix" values="0 0 0 0 0 0 0 0 0 0 0 0 0 0 0 0 0 0 127 0" result="hardAlpha"/>
<feOffset dy="-0.231953"/>
<feComposite in2="hardAlpha" operator="arithmetic" k2="-1" k3="1"/>
<feColorMatrix type="matrix" values="0 0 0 0 0 0 0 0 0 0 0 0 0 0 0 0 0 0 0.12 0"/>
<feBlend mode="normal" in2="shape" result="effect1_innerShadow_140_203748"/>
<feColorMatrix in="SourceAlpha" type="matrix" values="0 0 0 0 0 0 0 0 0 0 0 0 0 0 0 0 0 0 127 0" result="hardAlpha"/>
<feOffset dy="0.231953"/>
<feComposite in2="hardAlpha" operator="arithmetic" k2="-1" k3="1"/>
<feColorMatrix type="matrix" values="0 0 0 0 1 0 0 0 0 1 0 0 0 0 1 0 0 0 0.25 0"/>
<feBlend mode="normal" in2="effect1_innerShadow_140_203748" result="effect2_innerShadow_140_203748"/>
</filter>
<filter id="filter1_i_140_203748" x="21.4824" y="39.1685" width="25.7021" height="19.8872" filterUnits="userSpaceOnUse" color-interpolation-filters="sRGB">
<feFlood flood-opacity="0" result="BackgroundImageFix"/>
<feBlend mode="normal" in="SourceGraphic" in2="BackgroundImageFix" result="shape"/>
<feColorMatrix in="SourceAlpha" type="matrix" values="0 0 0 0 0 0 0 0 0 0 0 0 0 0 0 0 0 0 127 0" result="hardAlpha"/>
<feOffset dy="-0.231953"/>
<feComposite in2="hardAlpha" operator="arithmetic" k2="-1" k3="1"/>
<feColorMatrix type="matrix" values="0 0 0 0 0 0 0 0 0 0 0 0 0 0 0 0 0 0 0.08 0"/>
<feBlend mode="normal" in2="shape" result="effect1_innerShadow_140_203748"/>
</filter>
<linearGradient id="paint0_linear_140_203748" x1="38.9879" y1="21.7074" x2="13.0372" y2="47.5572" gradientUnits="userSpaceOnUse">
<stop stop-color="#00A0FF"/>
<stop offset="0.0066" stop-color="#00A1FF"/>
<stop offset="0.2601" stop-color="#00BEFF"/>
<stop offset="0.5122" stop-color="#00D2FF"/>
<stop offset="0.7604" stop-color="#00DFFF"/>
<stop offset="1" stop-color="#00E3FF"/>
</linearGradient>
<linearGradient id="paint1_linear_140_203748" x1="57.5221" y1="39.1686" x2="20.2521" y2="39.1686" gradientUnits="userSpaceOnUse">
<stop stop-color="#FFE000"/>
<stop offset="0.4087" stop-color="#FFBD00"/>
<stop offset="0.7754" stop-color="#FFA500"/>
<stop offset="1" stop-color="#FF9C00"/>
</linearGradient>
<linearGradient id="paint2_linear_140_203748" x1="43.6512" y1="42.7156" x2="8.45875" y2="77.7712" gradientUnits="userSpaceOnUse">
<stop stop-color="#FF3A44"/>
<stop offset="1" stop-color="#C31162"/>
</linearGradient>
<linearGradient id="paint3_linear_140_203748" x1="16.6479" y1="8.51371" x2="32.3623" y2="24.167" gradientUnits="userSpaceOnUse">
<stop stop-color="#32A071"/>
<stop offset="0.0685" stop-color="#2DA771"/>
<stop offset="0.4762" stop-color="#15CF74"/>
<stop offset="0.8009" stop-color="#06E775"/>
<stop offset="1" stop-color="#00F076"/>
</linearGradient>
</defs>
</svg>
