<svg width="341" height="341" viewBox="0 0 341 341" fill="none" xmlns="http://www.w3.org/2000/svg">
<path d="M137.638 129.516C139.823 127.917 137.495 124.614 135.252 126.147C128.268 131.092 120.467 138.058 122.964 143.166C125.835 148.31 134.764 146.237 140.917 144.775C143.53 144.046 142.517 140.142 139.877 140.781C130.84 143.135 127.08 142.183 126.673 141.353C126.21 140.405 128.328 136.108 137.638 129.516Z" fill="#F1E2C1"/>
<path d="M88.8776 140.128C88.881 143.367 90.1692 146.472 92.4596 148.762C94.75 151.052 97.8554 152.341 101.094 152.344C111.049 152.488 116.93 140.532 110.837 132.767C130.066 115.242 168.673 96.654 193.834 93.3325C209.89 91.1653 221.762 93.6189 215.093 106.146C214.957 106.385 214.871 106.649 214.839 106.921C214.807 107.194 214.829 107.471 214.905 107.734C214.981 107.998 215.109 108.244 215.281 108.458C215.453 108.672 215.666 108.849 215.908 108.98C216.15 109.11 216.415 109.191 216.688 109.218C216.961 109.245 217.237 109.217 217.499 109.135C217.762 109.054 218.005 108.921 218.216 108.745C218.426 108.568 218.599 108.351 218.724 108.107C221.37 103.205 221.859 98.9776 220.176 95.5348C203.148 71.723 124.645 112.63 107.813 129.931C100.031 124.532 88.6794 130.578 88.8776 140.128Z" fill="#F1E2C1"/>
<path d="M226.792 64.678C202.747 67.6677 181.932 76.32 168.072 81.9124C167.82 82.0142 167.592 82.1644 167.398 82.3545C167.205 82.5447 167.051 82.771 166.946 83.0206C166.84 83.2702 166.785 83.5381 166.782 83.8092C166.78 84.0802 166.832 84.349 166.933 84.6003C167.843 86.4512 169.385 85.9264 170.888 85.2251C209.031 66.259 321.212 46.1278 230.209 119.502C220.272 108.331 201.026 112.104 195.895 126.004C187.408 132.33 178.388 137.907 168.935 142.671C168.797 139.589 168.579 136.51 168.217 133.465C176.393 128.751 194.294 118.121 191.048 109.88C189.927 107.587 187.126 106.509 182.722 106.666C179.059 97.5183 165.443 99.9652 165.309 109.944C165.619 121.368 181.973 122.07 183.305 110.78C186.189 110.74 187.196 111.399 187.339 111.692C187.62 116.324 173.877 125.649 167.583 129.088C166.496 121.055 162.454 109.893 152.401 111.525C152.052 111.598 151.741 111.793 151.525 112.075C151.308 112.357 151.199 112.707 151.219 113.063C151.248 125.679 152.039 138.333 150.714 150.909C124.052 161.414 103.503 162.547 98.2888 156.745C97.9228 156.338 97.41 156.093 96.8633 156.064C96.3166 156.035 95.7808 156.224 95.3736 156.59C94.9665 156.956 94.7214 157.469 94.6924 158.016C94.6633 158.562 94.8526 159.098 95.2186 159.505C106.337 169.806 132.499 162.024 150.209 155.547C149.819 158.789 149.365 162.017 148.884 165.244C146.196 166.372 143.522 167.462 140.861 168.514C138.755 169.31 139.403 172.539 141.618 172.498C143.865 172.008 145.96 170.809 148.161 170.015C142.75 194.348 148.916 218.735 149.384 243.211C149.702 256.33 148.909 269.452 147.014 282.437C146.667 284.791 150.264 285.814 150.626 283.432C154.077 260.522 153.608 237.304 150.888 214.34C149.697 204.285 148.51 194.224 149.602 184.102C150.17 178.863 151.006 173.673 151.836 168.482C154.829 167.214 157.825 165.904 160.823 164.551C163.275 163.393 161.616 159.715 159.124 160.789C156.95 161.771 154.774 162.729 152.594 163.663C153.082 160.485 153.531 157.3 153.884 154.097C157.716 152.542 161.624 150.82 165.58 148.932C165.951 156.612 165.96 164.311 165.756 171.997C165.657 175.716 165.498 179.221 166.065 182.947C166.364 184.912 168.903 184.587 169.583 183.078C175.172 178.354 181.234 174.276 188.241 171.889C190.816 171.332 191.587 173.299 192.472 175.231C196.492 184.118 200.921 194.286 196.846 203.869C195.777 205.312 194.468 206.559 192.976 207.557C189.832 206.43 193.319 200.194 191.833 197.127C190.619 193.321 188.522 189.321 186.557 185.859C186.327 185.479 185.958 185.204 185.529 185.091C185.099 184.978 184.643 185.037 184.256 185.256C180.524 187.427 176.662 191.873 174.665 196.164C173.798 194.492 173.168 192.595 171.953 191.165C171.076 190.129 169.27 190.977 169.304 192.263C170.285 198.067 174.012 203.008 178.334 206.865C182.256 209.967 187.475 214.021 192.787 212.903C194.701 212.435 195.966 211.42 197.239 209.734C202.148 203.815 202.661 195.838 200.837 188.44C200.85 184.441 201.726 180.667 205.767 178.677C206.369 178.381 207.491 177.703 208.141 178.161C208.684 178.544 208.741 182.039 209.769 186.027C211.103 191.205 213.156 196.258 214.239 201.493C214.405 203.001 213.664 204.806 213.145 206.356C210.295 214.87 207.238 223.343 202.677 231.116C187.802 254.013 179.887 250.712 182.902 281.629C182.974 284.08 186.79 284.091 186.721 281.629C186.576 276.542 186.304 271.44 186.308 266.351C186.315 260.845 188.154 256.776 191.399 252.424C197.13 244.738 203.541 237.969 208.023 229.39C212.009 221.76 215.546 213.198 217.693 204.853C218.471 201.828 217.787 199.403 216.937 196.487C215.941 193.069 214.831 189.689 213.721 186.307C212.434 181.372 212.261 177.774 211.399 176.255C208.261 171.292 200.877 176.572 198.882 180.332C196.495 174.505 194.772 165.068 186.471 168.722C180.47 171.214 174.238 174.185 169.376 178.644C169.258 168.146 169.376 157.746 169.089 147.22C177.938 142.838 186.442 137.791 194.528 132.122C194.298 135.442 194.88 138.768 196.224 141.812C192.59 143.906 188.852 145.987 185.081 148.004C184.603 148.265 184.247 148.704 184.092 149.226C183.936 149.748 183.993 150.31 184.25 150.79C184.507 151.27 184.943 151.629 185.463 151.789C185.984 151.949 186.546 151.896 187.028 151.644C190.83 149.609 194.597 147.512 198.261 145.4C214.076 166.5 245.785 145.818 232.705 122.787C278.859 88.9367 284.828 55.7574 226.792 64.678ZM154.306 149.456C155.192 137.927 155.054 126.287 154.507 114.736C161.602 116.129 162.877 125.075 163.922 131.093C162.696 131.74 161.446 132.376 160.172 133.002C158.214 133.92 158.955 136.967 161.08 136.921C162.316 136.805 163.392 135.915 164.512 135.441C164.858 138.45 165.115 141.462 165.314 144.481C161.56 146.307 157.891 147.965 154.306 149.456ZM188.61 208.572C185.09 207.247 181.875 205.221 179.16 202.618C178.452 201.396 178.03 200.03 177.927 198.622C178.152 197.662 178.447 196.719 178.81 195.801C180.358 193.423 182.439 191.437 184.541 189.581C185.875 192.973 188.535 196.031 188.633 199.778C188.384 202.686 187.2 205.779 188.61 208.572Z" fill="#F1E2C1"/>
<path d="M122.338 177.416C122.255 177.158 122.122 176.919 121.947 176.712C121.772 176.505 121.558 176.335 121.316 176.211C121.075 176.087 120.812 176.012 120.542 175.989C120.272 175.967 120 175.998 119.742 176.081C94.2892 185.155 24.8315 198.92 58.1527 156.846C59.3555 160.126 60.0356 170.749 60.2167 171.478C60.4484 173.904 64.0909 173.915 64.3231 171.478C64.3308 171.401 65.1151 163.697 65.61 160.087C68.0414 145.846 77.6003 153.746 77.8737 148.422C77.853 147.877 77.6166 147.362 77.2164 146.991C76.8161 146.62 76.2849 146.423 75.7396 146.444C73.5888 146.453 71.4605 146.006 69.496 145.13C87.0792 129.041 115.017 111.119 144.585 96.8632C144.834 96.7483 145.058 96.585 145.243 96.3827C145.428 96.1804 145.571 95.9432 145.664 95.685C145.756 95.4268 145.796 95.1528 145.782 94.8789C145.767 94.6051 145.698 94.3369 145.579 94.09C145.459 93.8432 145.292 93.6226 145.086 93.4412C144.88 93.2597 144.641 93.1211 144.381 93.0334C144.121 92.9457 143.846 92.9107 143.573 92.9304C143.299 92.95 143.032 93.024 142.788 93.148C112.797 107.609 84.4486 125.82 66.5769 142.207C64.5047 138.911 64.6203 126.985 64.3318 126.23C64.1425 123.698 60.404 123.685 60.2126 126.23C60.2074 126.309 59.6909 134.188 59.2281 138.268C58.4118 145.245 52.9483 146.409 48.8049 146.445C48.5344 146.433 48.2644 146.475 48.0104 146.569C47.7563 146.662 47.5232 146.805 47.3245 146.988C47.1258 147.172 46.9654 147.393 46.8526 147.639C46.7397 147.886 46.6767 148.151 46.6671 148.422C46.7801 152.432 52.8317 149.009 55.9711 153.025C37.5545 173.975 42.6433 190.146 70.1709 189.926C83.0652 189.926 100.408 186.618 121.003 180.011C121.524 179.844 121.957 179.477 122.208 178.99C122.458 178.504 122.505 177.937 122.338 177.416ZM62.2714 142.771C63.3617 145.356 65.1481 147.493 67.2766 148.637C65.0429 150.26 63.2849 152.871 62.2714 156.127C61.2565 152.871 59.4985 150.26 57.2662 148.638C59.3947 147.493 61.1811 145.356 62.2714 142.771Z" fill="#F1E2C1"/>
<path d="M144.592 124.78C147.37 124.178 146.545 120.033 143.748 120.539C140.97 121.141 141.795 125.29 144.592 124.78Z" fill="#F1E2C1"/>
<path d="M131.033 172.176C128.255 172.778 129.08 176.923 131.877 176.417C134.652 175.816 133.827 171.669 131.033 172.176Z" fill="#F1E2C1"/>
<path d="M177.012 152.586C174.234 153.188 175.059 157.333 177.855 156.828C180.636 156.227 179.81 152.08 177.012 152.586Z" fill="#F1E2C1"/>
<path d="M266.398 192.072C268.025 191.801 269.666 191.623 271.314 191.537C273.997 191.369 273.846 187.361 271.144 187.413C265.718 187.361 258.925 185.789 257.847 176.946C257.276 171.92 256.641 162.227 256.635 162.129C256.451 159.607 252.706 159.579 252.515 162.129C252.509 162.227 251.874 171.919 251.304 176.946C250.231 185.816 243.366 187.369 238.006 187.413C237.461 187.394 236.931 187.592 236.531 187.962C236.132 188.333 235.894 188.846 235.871 189.391C236.169 195.043 247.906 186.044 250.938 203.644C251.548 208.087 252.512 217.563 252.521 217.659C252.749 220.074 256.397 220.102 256.628 217.659C256.638 217.564 257.601 208.088 258.211 203.644C259.065 197.419 262.355 192.769 266.398 192.072ZM254.575 200.633C253.395 195.625 250.839 191.687 247.481 189.569C250.658 188.18 253.244 184.993 254.575 181.107C255.906 184.995 258.492 188.182 261.669 189.569C258.311 191.687 255.755 195.625 254.575 200.633Z" fill="#F1E2C1"/>
<path d="M156.953 91.4451C159.732 90.8434 158.906 86.6979 156.109 87.2035C153.331 87.8057 154.156 91.9528 156.953 91.4451Z" fill="#F1E2C1"/>
<path d="M102.834 209.781C100.056 210.383 100.881 214.528 103.678 214.023C106.456 213.422 105.631 209.274 102.834 209.781Z" fill="#F1E2C1"/>
<path d="M38.1192 146.696C35.3411 147.298 36.1661 151.443 38.9629 150.937C41.7415 150.335 40.9159 146.188 38.1192 146.696Z" fill="#F1E2C1"/>
<path d="M228.438 81.7541C231.216 81.1519 230.391 77.0069 227.594 77.5121C224.815 78.1142 225.641 82.2613 228.438 81.7541Z" fill="#F1E2C1"/>
<path d="M254.998 147.025C257.776 146.423 256.951 142.278 254.154 142.783C251.376 143.386 252.202 147.533 254.998 147.025Z" fill="#F1E2C1"/>
<path d="M279.037 95.469C276.259 96.0707 277.084 100.216 279.881 99.7105C282.659 99.1083 281.834 94.9613 279.037 95.469Z" fill="#F1E2C1"/>
<path d="M108.018 85.0416C105.239 85.6438 106.065 89.7888 108.862 89.2831C111.642 88.6804 110.817 84.5333 108.018 85.0416Z" fill="#F1E2C1"/>
<circle cx="170.5" cy="170.5" r="170" stroke="#F1E2C1"/>
</svg>
