<svg width="163" height="70" viewBox="0 0 163 70" fill="none" xmlns="http://www.w3.org/2000/svg">
<path d="M116.05 58L122.71 13.9H130.63L137.29 58H130.99L129.79 49H123.55L122.35 58H116.05ZM124.45 42.16H128.89L127.03 27.34L126.85 25H126.49L126.31 27.34L124.45 42.16ZM140.72 58V13.9H147.2C151.08 13.9 153.94 14.98 155.78 17.14C157.62 19.28 158.54 22.44 158.54 26.62C158.54 29.1 158.1 31.25 157.22 33.07C156.36 34.87 155.31 36.19 154.07 37.03L158.48 58H152L148.34 39.4H147.2V58H140.72ZM147.2 33.4C148.4 33.4 149.35 33.14 150.05 32.62C150.75 32.08 151.25 31.32 151.55 30.34C151.85 29.36 152 28.2 152 26.86C152 24.76 151.65 23.15 150.95 22.03C150.27 20.89 149.02 20.32 147.2 20.32V33.4Z" fill="#02FFFF"/>
<path d="M113.05 58L119.71 13.9H127.63L134.29 58H127.99L126.79 49H120.55L119.35 58H113.05ZM121.45 42.16H125.89L124.03 27.34L123.85 25H123.49L123.31 27.34L121.45 42.16ZM137.72 58V13.9H144.2C148.08 13.9 150.94 14.98 152.78 17.14C154.62 19.28 155.54 22.44 155.54 26.62C155.54 29.1 155.1 31.25 154.22 33.07C153.36 34.87 152.31 36.19 151.07 37.03L155.48 58H149L145.34 39.4H144.2V58H137.72ZM144.2 33.4C145.4 33.4 146.35 33.14 147.05 32.62C147.75 32.08 148.25 31.32 148.55 30.34C148.85 29.36 149 28.2 149 26.86C149 24.76 148.65 23.15 147.95 22.03C147.27 20.89 146.02 20.32 144.2 20.32V33.4Z" fill="#FF0201"/>
<path d="M2.4 58V13.9H8.88C11.34 13.9 13.39 14.44 15.03 15.52C16.69 16.6 17.93 18.13 18.75 20.11C19.57 22.09 19.98 24.42 19.98 27.1C19.98 29.78 19.55 32.09 18.69 34.03C17.83 35.97 16.57 37.49 14.91 38.59C13.27 39.67 11.26 40.26 8.88 40.36V58H2.4ZM8.88 33.76C10.02 33.76 10.92 33.54 11.58 33.1C12.24 32.64 12.71 31.92 12.99 30.94C13.29 29.96 13.44 28.7 13.44 27.16C13.44 25.6 13.29 24.33 12.99 23.35C12.71 22.37 12.23 21.65 11.55 21.19C10.89 20.73 10 20.5 8.88 20.5V33.76ZM23.4938 58V13.9H38.3138V20.56H29.9738V32.44H35.9738V38.92H29.9738V51.34H38.3138V58H23.4938ZM51.4627 58.48C49.6227 58.48 48.0527 58.07 46.7527 57.25C45.4727 56.41 44.4927 55.27 43.8127 53.83C43.1527 52.39 42.8227 50.76 42.8227 48.94V22.96C42.8227 21.16 43.1627 19.54 43.8427 18.1C44.5427 16.66 45.5427 15.52 46.8427 14.68C48.1427 13.84 49.6827 13.42 51.4627 13.42C52.8027 13.42 54.0027 13.67 55.0627 14.17C56.1227 14.67 57.0227 15.36 57.7627 16.24C58.5227 17.1 59.1027 18.11 59.5027 19.27C59.9027 20.41 60.1027 21.64 60.1027 22.96V29.02H54.0427V22.96C54.0427 22.04 53.8527 21.27 53.4727 20.65C53.0927 20.03 52.4627 19.72 51.5827 19.72C50.7827 19.72 50.2027 20.04 49.8427 20.68C49.4827 21.32 49.3027 22.08 49.3027 22.96V48.94C49.3027 49.82 49.4927 50.58 49.8727 51.22C50.2727 51.86 50.8427 52.18 51.5827 52.18C52.4827 52.18 53.1127 51.87 53.4727 51.25C53.8527 50.63 54.0427 49.86 54.0427 48.94V42.88H60.1027V48.94C60.1027 50.74 59.7527 52.36 59.0527 53.8C58.3527 55.24 57.3527 56.38 56.0527 57.22C54.7727 58.06 53.2427 58.48 51.4627 58.48ZM73.2666 58.48C71.4466 58.48 69.8866 58.06 68.5866 57.22C67.3066 56.38 66.3266 55.24 65.6466 53.8C64.9666 52.36 64.6266 50.74 64.6266 48.94V13.9H71.1066V48.94C71.1066 49.8 71.2766 50.56 71.6166 51.22C71.9566 51.86 72.5066 52.18 73.2666 52.18C74.0666 52.18 74.6266 51.86 74.9466 51.22C75.2666 50.56 75.4266 49.8 75.4266 48.94V13.9H81.9066V48.94C81.9066 50.74 81.5566 52.36 80.8566 53.8C80.1766 55.24 79.1866 56.38 77.8866 57.22C76.6066 58.06 75.0666 58.48 73.2666 58.48ZM86.7164 58V13.9H93.1964V52H101.776V58H86.7164ZM104.412 58V13.9H110.892V58H104.412ZM114.37 58L121.03 13.9H128.95L135.61 58H129.31L128.11 49H121.87L120.67 58H114.37ZM122.77 42.16H127.21L125.35 27.34L125.17 25H124.81L124.63 27.34L122.77 42.16ZM139.041 58V13.9H145.521C149.401 13.9 152.261 14.98 154.101 17.14C155.941 19.28 156.861 22.44 156.861 26.62C156.861 29.1 156.421 31.25 155.541 33.07C154.681 34.87 153.631 36.19 152.391 37.03L156.801 58H150.321L146.661 39.4H145.521V58H139.041ZM145.521 33.4C146.721 33.4 147.671 33.14 148.371 32.62C149.071 32.08 149.571 31.32 149.871 30.34C150.171 29.36 150.321 28.2 150.321 26.86C150.321 24.76 149.971 23.15 149.271 22.03C148.591 20.89 147.341 20.32 145.521 20.32V33.4Z" fill="black"/>
</svg>
