<svg width="150" height="150" viewBox="0 0 150 150" fill="none" xmlns="http://www.w3.org/2000/svg">
<g clip-path="url(#clip0_458_205055)">
<path d="M6.46156 33.6923C5.07695 33.6923 4.15387 32.7692 4.15387 31.3846V3.92308C4.15387 2.53846 5.07695 1.61539 6.46156 1.61539H33.9231C35.3077 1.61539 36.2308 2.53846 36.2308 3.92308C36.2308 5.3077 35.3077 6.23077 33.9231 6.23077H8.76925V31.3846C8.76925 32.5385 7.84618 33.6923 6.46156 33.6923Z" fill="#02FFFF"/>
<path d="M149.539 33.6923C148.154 33.6923 147.231 32.7692 147.231 31.3846V6.23077H122.077C120.692 6.23077 119.769 5.3077 119.769 3.92308C119.769 2.53846 120.692 1.61539 122.077 1.61539H149.539C150.231 1.61539 150.692 1.84616 151.154 2.30769C151.615 2.76923 151.846 3.23077 151.846 3.92308V31.3846C151.846 32.5385 150.923 33.6923 149.539 33.6923Z" fill="#02FFFF"/>
<path d="M149.539 149.308H122.077C120.692 149.308 119.769 148.385 119.769 147C119.769 145.615 120.692 144.692 122.077 144.692H147.231V119.538C147.231 118.154 148.154 117.231 149.539 117.231C150.923 117.231 151.846 118.154 151.846 119.538V147C151.846 148.154 150.923 149.308 149.539 149.308Z" fill="#02FFFF"/>
<path d="M33.9231 149.308H6.46156C5.07695 149.308 4.15387 148.385 4.15387 147V119.538C4.15387 118.154 5.07695 117.231 6.46156 117.231C7.84618 117.231 8.76925 118.154 8.76925 119.538V144.692H33.9231C35.3077 144.692 36.2308 145.615 36.2308 147C36.2308 148.154 35.0769 149.308 33.9231 149.308Z" fill="#02FFFF"/>
<path d="M78.4616 102.923C60.9231 102.923 44.077 93.2308 31.1539 75.4615C30.4616 74.5385 30.4616 73.6154 31.1539 72.6923C44.077 54.9231 60.9231 45.2308 78.4616 45.2308C96 45.2308 112.846 54.9231 125.769 72.6923C126.462 73.6154 126.462 74.5385 125.769 75.4615C112.846 93.2308 96 102.923 78.4616 102.923ZM36 74.0769C48 89.7692 63 98.3077 78.6923 98.3077C94.3846 98.3077 109.154 89.7692 121.154 74.0769C109.154 58.6154 94.1539 50.0769 78.4616 50.0769C62.7693 50.0769 47.7693 58.6154 36 74.0769Z" fill="#02FFFF"/>
<path d="M101.385 74.0769C101.385 86.737 91.1217 97 78.4616 97C65.8015 97 55.5385 86.737 55.5385 74.0769C55.5385 61.4169 65.8015 51.1538 78.4616 51.1538C91.1217 51.1538 101.385 61.4169 101.385 74.0769Z" stroke="#02FFFF" stroke-width="4"/>
<path d="M88.4616 74.0769C88.4616 79.5998 83.9844 84.0769 78.4615 84.0769C72.9387 84.0769 68.4615 79.5998 68.4615 74.0769C68.4615 68.5541 72.9387 64.0769 78.4615 64.0769C83.9844 64.0769 88.4616 68.5541 88.4616 74.0769Z" stroke="#02FFFF" stroke-width="4"/>
<path d="M78.6923 40.1538C77.3077 40.1538 76.3846 39 76.3846 37.8462V30C76.3846 28.6154 77.3077 27.6923 78.6923 27.6923C80.077 27.6923 81 28.8462 81 30V37.8462C81 39.2308 80.077 40.1538 78.6923 40.1538Z" fill="#02FFFF"/>
<path d="M78 120.692C76.6154 120.692 75.6923 119.538 75.6923 118.385V110.538C75.6923 109.154 76.8462 108.231 78 108.231C79.3846 108.231 80.3077 109.385 80.3077 110.538V118.385C80.3077 119.538 79.3846 120.692 78 120.692Z" fill="#02FFFF"/>
<path d="M62.3077 40.3846L59.3077 32.7692C58.8462 31.6154 59.3077 30.2308 60.6923 29.7692C61.8462 29.3077 63.2308 29.7692 63.6923 31.1538L66.6923 38.7692C67.1539 39.9231 66.6923 41.3077 65.3077 41.7692C64.1539 42.2308 62.7693 41.5385 62.3077 40.3846Z" fill="#02FFFF"/>
<path d="M93.4616 117L90.4616 109.385C90.0001 108.231 90.4616 106.846 91.8462 106.385C93 105.923 94.3847 106.385 94.8462 107.769L97.6154 115.385C98.077 116.538 97.6154 117.923 96.2308 118.385C95.3077 118.846 93.9231 118.385 93.4616 117Z" fill="#02FFFF"/>
<path d="M49.8462 46.1538L44.0769 39.6923C43.1539 38.7692 43.3846 37.3846 44.3077 36.4615C45.2308 35.5385 46.6154 35.7692 47.5385 36.6923L53.3077 43.1538C54.2308 44.0769 54 45.4615 53.077 46.3846C52.1539 47.3077 50.7693 47.0769 49.8462 46.1538Z" fill="#02FFFF"/>
<path d="M109.615 111.692L103.846 105.231C102.923 104.308 103.154 102.923 104.077 102C105 101.077 106.385 101.308 107.308 102.231L113.077 108.692C114 109.615 113.769 111 112.846 111.923C111.923 112.615 110.538 112.615 109.615 111.692Z" fill="#02FFFF"/>
<path d="M39.9231 54.6923L31.8462 50.0769C30.6924 49.3846 30.4616 48 30.9231 46.8462C31.6154 45.6923 33 45.4615 34.1539 45.9231L42.2308 50.5385C43.3847 51.2308 43.6154 52.6154 43.1539 53.7692C42.4616 54.9231 41.077 55.3846 39.9231 54.6923Z" fill="#02FFFF"/>
<path d="M122.769 102.231L114.692 97.6154C113.538 96.9231 113.077 95.5385 113.769 94.6154C114.462 93.4615 115.846 93.2308 117 93.6923L125.077 98.3077C126.231 99 126.462 100.385 126 101.538C125.308 102.692 123.923 102.923 122.769 102.231Z" fill="#02FFFF"/>
<path d="M30.6923 101.077C30 99.9231 30.4616 98.5385 31.6154 97.8462L39.9231 93.2308C41.077 92.5385 42.4616 93 43.1539 94.1539C43.8462 95.3077 43.3847 96.6923 42.2308 97.3846L33.9231 102C32.5385 102.462 31.1539 102 30.6923 101.077Z" fill="#02FFFF"/>
<path d="M114.231 54.2308C113.538 53.0769 114 51.6923 115.154 51L123.462 46.3846C124.615 45.6923 126 46.1538 126.692 47.3077C127.385 48.4615 126.923 49.8462 125.769 50.5385L117.462 55.1538C116.077 55.6154 114.692 55.3846 114.231 54.2308Z" fill="#02FFFF"/>
<path d="M43.3846 111.462C42.4616 110.538 42.4616 109.154 43.3846 108.231L49.3846 101.769C50.3077 100.846 51.6923 100.846 52.6154 101.769C53.5385 102.692 53.5385 104.077 52.6154 105L46.6154 111.462C45.9231 112.154 44.3077 112.154 43.3846 111.462Z" fill="#02FFFF"/>
<path d="M104.308 46.6154C103.385 45.6923 103.385 44.3077 104.308 43.3846L110.308 36.9231C111.231 36 112.615 36 113.538 36.9231C114.462 37.8462 114.462 39.2308 113.538 40.1538L107.538 46.6154C106.846 47.5385 105.231 47.5385 104.308 46.6154Z" fill="#02FFFF"/>
<path d="M59.7692 118.154C58.6154 117.692 58.1539 116.308 58.6154 115.154L61.8462 107.769C62.3077 106.615 63.6923 106.154 64.8462 106.615C66 107.077 66.4616 108.462 66 109.615L62.7692 117C62.3077 118.154 60.9231 118.615 59.7692 118.154Z" fill="#02FFFF"/>
<path d="M92.3077 41.7692C91.1539 41.3077 90.6923 39.9231 91.1539 38.7692L94.3846 31.3846C94.8462 30.2308 96.2308 29.7692 97.3846 30.2308C98.5385 30.6923 99 32.0769 98.5385 33.2308L95.3077 40.6154C94.8462 41.7692 93.4615 42.4615 92.3077 41.7692Z" fill="#02FFFF"/>
<path d="M1.46156 33.6923C0.0769464 33.6923 -0.84613 32.7692 -0.84613 31.3846V3.92308C-0.84613 2.53846 0.0769464 1.61539 1.46156 1.61539H28.9231C30.3077 1.61539 31.2308 2.53846 31.2308 3.92308C31.2308 5.3077 30.3077 6.23077 28.9231 6.23077H3.76925V31.3846C3.76925 32.5385 2.84618 33.6923 1.46156 33.6923Z" fill="#FF0201"/>
<path d="M144.539 33.6923C143.154 33.6923 142.231 32.7692 142.231 31.3846V6.23077H117.077C115.692 6.23077 114.769 5.3077 114.769 3.92308C114.769 2.53846 115.692 1.61539 117.077 1.61539H144.539C145.231 1.61539 145.692 1.84616 146.154 2.30769C146.615 2.76923 146.846 3.23077 146.846 3.92308V31.3846C146.846 32.5385 145.923 33.6923 144.539 33.6923Z" fill="#FF0201"/>
<path d="M144.539 149.308H117.077C115.692 149.308 114.769 148.385 114.769 147C114.769 145.615 115.692 144.692 117.077 144.692H142.231V119.538C142.231 118.154 143.154 117.231 144.539 117.231C145.923 117.231 146.846 118.154 146.846 119.538V147C146.846 148.154 145.923 149.308 144.539 149.308Z" fill="#FF0201"/>
<path d="M28.9231 149.308H1.46156C0.0769464 149.308 -0.84613 148.385 -0.84613 147V119.538C-0.84613 118.154 0.0769464 117.231 1.46156 117.231C2.84618 117.231 3.76925 118.154 3.76925 119.538V144.692H28.9231C30.3077 144.692 31.2308 145.615 31.2308 147C31.2308 148.154 30.0769 149.308 28.9231 149.308Z" fill="#FF0201"/>
<path d="M73.4616 102.923C55.9231 102.923 39.077 93.2308 26.1539 75.4615C25.4616 74.5385 25.4616 73.6154 26.1539 72.6923C39.077 54.9231 55.9231 45.2308 73.4616 45.2308C91 45.2308 107.846 54.9231 120.769 72.6923C121.462 73.6154 121.462 74.5385 120.769 75.4615C107.846 93.2308 91 102.923 73.4616 102.923ZM31 74.0769C43 89.7692 58 98.3077 73.6923 98.3077C89.3846 98.3077 104.154 89.7692 116.154 74.0769C104.154 58.6154 89.1539 50.0769 73.4616 50.0769C57.7693 50.0769 42.7693 58.6154 31 74.0769Z" fill="#FF0201"/>
<path d="M96.3847 74.0769C96.3847 86.737 86.1217 97 73.4616 97C60.8015 97 50.5385 86.737 50.5385 74.0769C50.5385 61.4169 60.8015 51.1538 73.4616 51.1538C86.1217 51.1538 96.3847 61.4169 96.3847 74.0769Z" stroke="#FF0201" stroke-width="4"/>
<path d="M83.4616 74.0769C83.4616 79.5998 78.9844 84.0769 73.4615 84.0769C67.9387 84.0769 63.4615 79.5998 63.4615 74.0769C63.4615 68.5541 67.9387 64.0769 73.4615 64.0769C78.9844 64.0769 83.4616 68.5541 83.4616 74.0769Z" stroke="#FF0201" stroke-width="4"/>
<path d="M73.6923 40.1538C72.3077 40.1538 71.3846 39 71.3846 37.8462V30C71.3846 28.6154 72.3077 27.6923 73.6923 27.6923C75.077 27.6923 76 28.8462 76 30V37.8462C76 39.2308 75.077 40.1538 73.6923 40.1538Z" fill="#FF0201"/>
<path d="M73 120.692C71.6154 120.692 70.6923 119.538 70.6923 118.385V110.538C70.6923 109.154 71.8462 108.231 73 108.231C74.3846 108.231 75.3077 109.385 75.3077 110.538V118.385C75.3077 119.538 74.3846 120.692 73 120.692Z" fill="#FF0201"/>
<path d="M57.3077 40.3846L54.3077 32.7692C53.8462 31.6154 54.3077 30.2308 55.6923 29.7692C56.8462 29.3077 58.2308 29.7692 58.6923 31.1538L61.6923 38.7692C62.1539 39.9231 61.6923 41.3077 60.3077 41.7692C59.1539 42.2308 57.7693 41.5385 57.3077 40.3846Z" fill="#FF0201"/>
<path d="M88.4616 117L85.4616 109.385C85.0001 108.231 85.4616 106.846 86.8462 106.385C88 105.923 89.3847 106.385 89.8462 107.769L92.6154 115.385C93.077 116.538 92.6154 117.923 91.2308 118.385C90.3077 118.846 88.9231 118.385 88.4616 117Z" fill="#FF0201"/>
<path d="M44.8462 46.1538L39.0769 39.6923C38.1539 38.7692 38.3846 37.3846 39.3077 36.4615C40.2308 35.5385 41.6154 35.7692 42.5385 36.6923L48.3077 43.1538C49.2308 44.0769 49 45.4615 48.077 46.3846C47.1539 47.3077 45.7693 47.0769 44.8462 46.1538Z" fill="#FF0201"/>
<path d="M104.615 111.692L98.8462 105.231C97.9231 104.308 98.1539 102.923 99.0769 102C100 101.077 101.385 101.308 102.308 102.231L108.077 108.692C109 109.615 108.769 111 107.846 111.923C106.923 112.615 105.538 112.615 104.615 111.692Z" fill="#FF0201"/>
<path d="M34.9231 54.6923L26.8462 50.0769C25.6924 49.3846 25.4616 48 25.9231 46.8462C26.6154 45.6923 28 45.4615 29.1539 45.9231L37.2308 50.5385C38.3847 51.2308 38.6154 52.6154 38.1539 53.7692C37.4616 54.9231 36.077 55.3846 34.9231 54.6923Z" fill="#FF0201"/>
<path d="M117.769 102.231L109.692 97.6154C108.538 96.9231 108.077 95.5385 108.769 94.6154C109.462 93.4615 110.846 93.2308 112 93.6923L120.077 98.3077C121.231 99 121.462 100.385 121 101.538C120.308 102.692 118.923 102.923 117.769 102.231Z" fill="#FF0201"/>
<path d="M25.6923 101.077C25 99.9231 25.4616 98.5385 26.6154 97.8462L34.9231 93.2308C36.077 92.5385 37.4616 93 38.1539 94.1539C38.8462 95.3077 38.3847 96.6923 37.2308 97.3846L28.9231 102C27.5385 102.462 26.1539 102 25.6923 101.077Z" fill="#FF0201"/>
<path d="M109.231 54.2308C108.538 53.0769 109 51.6923 110.154 51L118.462 46.3846C119.615 45.6923 121 46.1538 121.692 47.3077C122.385 48.4615 121.923 49.8462 120.769 50.5385L112.462 55.1538C111.077 55.6154 109.692 55.3846 109.231 54.2308Z" fill="#FF0201"/>
<path d="M38.3846 111.462C37.4616 110.538 37.4616 109.154 38.3846 108.231L44.3846 101.769C45.3077 100.846 46.6923 100.846 47.6154 101.769C48.5385 102.692 48.5385 104.077 47.6154 105L41.6154 111.462C40.9231 112.154 39.3077 112.154 38.3846 111.462Z" fill="#FF0201"/>
<path d="M99.3077 46.6154C98.3846 45.6923 98.3846 44.3077 99.3077 43.3846L105.308 36.9231C106.231 36 107.615 36 108.538 36.9231C109.462 37.8462 109.462 39.2308 108.538 40.1538L102.538 46.6154C101.846 47.5385 100.231 47.5385 99.3077 46.6154Z" fill="#FF0201"/>
<path d="M54.7692 118.154C53.6154 117.692 53.1539 116.308 53.6154 115.154L56.8462 107.769C57.3077 106.615 58.6923 106.154 59.8462 106.615C61 107.077 61.4616 108.462 61 109.615L57.7692 117C57.3077 118.154 55.9231 118.615 54.7692 118.154Z" fill="#FF0201"/>
<path d="M87.3077 41.7692C86.1539 41.3077 85.6923 39.9231 86.1539 38.7692L89.3846 31.3846C89.8462 30.2308 91.2308 29.7692 92.3846 30.2308C93.5385 30.6923 94 32.0769 93.5385 33.2308L90.3077 40.6154C89.8462 41.7692 88.4615 42.4615 87.3077 41.7692Z" fill="#FF0201"/>
<path d="M3.46156 33.6923C2.07695 33.6923 1.15387 32.7692 1.15387 31.3846V3.92308C1.15387 2.53846 2.07695 1.61539 3.46156 1.61539H30.9231C32.3077 1.61539 33.2308 2.53846 33.2308 3.92308C33.2308 5.3077 32.3077 6.23077 30.9231 6.23077H5.76925V31.3846C5.76925 32.5385 4.84618 33.6923 3.46156 33.6923Z" fill="black"/>
<path d="M146.539 33.6923C145.154 33.6923 144.231 32.7692 144.231 31.3846V6.23077H119.077C117.692 6.23077 116.769 5.3077 116.769 3.92308C116.769 2.53846 117.692 1.61539 119.077 1.61539H146.539C147.231 1.61539 147.692 1.84616 148.154 2.30769C148.615 2.76923 148.846 3.23077 148.846 3.92308V31.3846C148.846 32.5385 147.923 33.6923 146.539 33.6923Z" fill="black"/>
<path d="M146.539 149.308H119.077C117.692 149.308 116.769 148.385 116.769 147C116.769 145.615 117.692 144.692 119.077 144.692H144.231V119.538C144.231 118.154 145.154 117.231 146.539 117.231C147.923 117.231 148.846 118.154 148.846 119.538V147C148.846 148.154 147.923 149.308 146.539 149.308Z" fill="black"/>
<path d="M30.9231 149.308H3.46156C2.07695 149.308 1.15387 148.385 1.15387 147V119.538C1.15387 118.154 2.07695 117.231 3.46156 117.231C4.84618 117.231 5.76925 118.154 5.76925 119.538V144.692H30.9231C32.3077 144.692 33.2308 145.615 33.2308 147C33.2308 148.154 32.0769 149.308 30.9231 149.308Z" fill="black"/>
<path d="M75.4616 102.923C57.9231 102.923 41.077 93.2308 28.1539 75.4615C27.4616 74.5385 27.4616 73.6154 28.1539 72.6923C41.077 54.9231 57.9231 45.2308 75.4616 45.2308C93 45.2308 109.846 54.9231 122.769 72.6923C123.462 73.6154 123.462 74.5385 122.769 75.4615C109.846 93.2308 93 102.923 75.4616 102.923ZM33 74.0769C45 89.7692 60 98.3077 75.6923 98.3077C91.3846 98.3077 106.154 89.7692 118.154 74.0769C106.154 58.6154 91.1539 50.0769 75.4616 50.0769C59.7693 50.0769 44.7693 58.6154 33 74.0769Z" fill="black"/>
<path d="M98.3847 74.0769C98.3847 86.737 88.1217 97 75.4616 97C62.8015 97 52.5385 86.737 52.5385 74.0769C52.5385 61.4169 62.8015 51.1538 75.4616 51.1538C88.1217 51.1538 98.3847 61.4169 98.3847 74.0769Z" stroke="black" stroke-width="4"/>
<path d="M85.4616 74.0769C85.4616 79.5998 80.9844 84.0769 75.4615 84.0769C69.9387 84.0769 65.4615 79.5998 65.4615 74.0769C65.4615 68.5541 69.9387 64.0769 75.4615 64.0769C80.9844 64.0769 85.4616 68.5541 85.4616 74.0769Z" stroke="black" stroke-width="4"/>
<path d="M75.6923 40.1538C74.3077 40.1538 73.3846 39 73.3846 37.8462V30C73.3846 28.6154 74.3077 27.6923 75.6923 27.6923C77.077 27.6923 78 28.8462 78 30V37.8462C78 39.2308 77.077 40.1538 75.6923 40.1538Z" fill="black"/>
<path d="M75 120.692C73.6154 120.692 72.6923 119.538 72.6923 118.385V110.538C72.6923 109.154 73.8462 108.231 75 108.231C76.3846 108.231 77.3077 109.385 77.3077 110.538V118.385C77.3077 119.538 76.3846 120.692 75 120.692Z" fill="black"/>
<path d="M59.3077 40.3846L56.3077 32.7692C55.8462 31.6154 56.3077 30.2308 57.6923 29.7692C58.8462 29.3077 60.2308 29.7692 60.6923 31.1538L63.6923 38.7692C64.1539 39.9231 63.6923 41.3077 62.3077 41.7692C61.1539 42.2308 59.7693 41.5385 59.3077 40.3846Z" fill="black"/>
<path d="M90.4616 117L87.4616 109.385C87.0001 108.231 87.4616 106.846 88.8462 106.385C90 105.923 91.3847 106.385 91.8462 107.769L94.6154 115.385C95.077 116.538 94.6154 117.923 93.2308 118.385C92.3077 118.846 90.9231 118.385 90.4616 117Z" fill="black"/>
<path d="M46.8462 46.1538L41.0769 39.6923C40.1539 38.7692 40.3846 37.3846 41.3077 36.4615C42.2308 35.5385 43.6154 35.7692 44.5385 36.6923L50.3077 43.1538C51.2308 44.0769 51 45.4615 50.077 46.3846C49.1539 47.3077 47.7693 47.0769 46.8462 46.1538Z" fill="black"/>
<path d="M106.615 111.692L100.846 105.231C99.9231 104.308 100.154 102.923 101.077 102C102 101.077 103.385 101.308 104.308 102.231L110.077 108.692C111 109.615 110.769 111 109.846 111.923C108.923 112.615 107.538 112.615 106.615 111.692Z" fill="black"/>
<path d="M36.9231 54.6923L28.8462 50.0769C27.6924 49.3846 27.4616 48 27.9231 46.8462C28.6154 45.6923 30 45.4615 31.1539 45.9231L39.2308 50.5385C40.3847 51.2308 40.6154 52.6154 40.1539 53.7692C39.4616 54.9231 38.077 55.3846 36.9231 54.6923Z" fill="black"/>
<path d="M119.769 102.231L111.692 97.6154C110.538 96.9231 110.077 95.5385 110.769 94.6154C111.462 93.4615 112.846 93.2308 114 93.6923L122.077 98.3077C123.231 99 123.462 100.385 123 101.538C122.308 102.692 120.923 102.923 119.769 102.231Z" fill="black"/>
<path d="M27.6923 101.077C27 99.9231 27.4616 98.5385 28.6154 97.8462L36.9231 93.2308C38.077 92.5385 39.4616 93 40.1539 94.1539C40.8462 95.3077 40.3847 96.6923 39.2308 97.3846L30.9231 102C29.5385 102.462 28.1539 102 27.6923 101.077Z" fill="black"/>
<path d="M111.231 54.2308C110.538 53.0769 111 51.6923 112.154 51L120.462 46.3846C121.615 45.6923 123 46.1538 123.692 47.3077C124.385 48.4615 123.923 49.8462 122.769 50.5385L114.462 55.1538C113.077 55.6154 111.692 55.3846 111.231 54.2308Z" fill="black"/>
<path d="M40.3846 111.462C39.4616 110.538 39.4616 109.154 40.3846 108.231L46.3846 101.769C47.3077 100.846 48.6923 100.846 49.6154 101.769C50.5385 102.692 50.5385 104.077 49.6154 105L43.6154 111.462C42.9231 112.154 41.3077 112.154 40.3846 111.462Z" fill="black"/>
<path d="M101.308 46.6154C100.385 45.6923 100.385 44.3077 101.308 43.3846L107.308 36.9231C108.231 36 109.615 36 110.538 36.9231C111.462 37.8462 111.462 39.2308 110.538 40.1538L104.538 46.6154C103.846 47.5385 102.231 47.5385 101.308 46.6154Z" fill="black"/>
<path d="M56.7692 118.154C55.6154 117.692 55.1539 116.308 55.6154 115.154L58.8462 107.769C59.3077 106.615 60.6923 106.154 61.8462 106.615C63 107.077 63.4616 108.462 63 109.615L59.7692 117C59.3077 118.154 57.9231 118.615 56.7692 118.154Z" fill="black"/>
<path d="M89.3077 41.7692C88.1539 41.3077 87.6923 39.9231 88.1539 38.7692L91.3846 31.3846C91.8462 30.2308 93.2308 29.7692 94.3846 30.2308C95.5385 30.6923 96 32.0769 95.5385 33.2308L92.3077 40.6154C91.8462 41.7692 90.4615 42.4615 89.3077 41.7692Z" fill="black"/>
</g>
<defs>
<clipPath id="clip0_458_205055">
<rect width="150" height="150" fill="white"/>
</clipPath>
</defs>
</svg>
