<svg width="799" height="364" viewBox="0 0 799 364" fill="none" xmlns="http://www.w3.org/2000/svg">
<path d="M580.25 290L613.55 69.5H653.15L686.45 290H654.95L648.95 245H617.75L611.75 290H580.25ZM622.25 210.8H644.45L635.15 136.7L634.25 125H632.45L631.55 136.7L622.25 210.8ZM703.602 290V69.5H736.002C755.402 69.5 769.702 74.9 778.902 85.7C788.102 96.4 792.702 112.2 792.702 133.1C792.702 145.5 790.502 156.25 786.102 165.35C781.802 174.35 776.552 180.95 770.352 185.15L792.402 290H760.002L741.702 197H736.002V290H703.602ZM736.002 167C742.002 167 746.752 165.7 750.252 163.1C753.752 160.4 756.252 156.6 757.752 151.7C759.252 146.8 760.002 141 760.002 134.3C760.002 123.8 758.252 115.75 754.752 110.15C751.352 104.45 745.102 101.6 736.002 101.6V167Z" fill="#02FFFF"/>
<path d="M565.25 290L598.55 69.5H638.15L671.45 290H639.95L633.95 245H602.75L596.75 290H565.25ZM607.25 210.8H629.45L620.15 136.7L619.25 125H617.45L616.55 136.7L607.25 210.8ZM688.602 290V69.5H721.002C740.402 69.5 754.702 74.9 763.902 85.7C773.102 96.4 777.702 112.2 777.702 133.1C777.702 145.5 775.502 156.25 771.102 165.35C766.802 174.35 761.552 180.95 755.352 185.15L777.402 290H745.002L726.702 197H721.002V290H688.602ZM721.002 167C727.002 167 731.752 165.7 735.252 163.1C738.752 160.4 741.252 156.6 742.752 151.7C744.252 146.8 745.002 141 745.002 134.3C745.002 123.8 743.252 115.75 739.752 110.15C736.352 104.45 730.102 101.6 721.002 101.6V167Z" fill="#FF0201"/>
<path d="M12 290V69.5H44.4C56.7 69.5 66.95 72.2 75.15 77.6C83.45 83 89.65 90.65 93.75 100.55C97.85 110.45 99.9 122.1 99.9 135.5C99.9 148.9 97.75 160.45 93.45 170.15C89.15 179.85 82.85 187.45 74.55 192.95C66.35 198.35 56.3 201.3 44.4 201.8V290H12ZM44.4 168.8C50.1 168.8 54.6 167.7 57.9 165.5C61.2 163.2 63.55 159.6 64.95 154.7C66.45 149.8 67.2 143.5 67.2 135.8C67.2 128 66.45 121.65 64.95 116.75C63.55 111.85 61.15 108.25 57.75 105.95C54.45 103.65 50 102.5 44.4 102.5V168.8ZM117.469 290V69.5H191.569V102.8H149.869V162.2H179.869V194.6H149.869V256.7H191.569V290H117.469ZM257.313 292.4C248.113 292.4 240.263 290.35 233.763 286.25C227.363 282.05 222.463 276.35 219.063 269.15C215.763 261.95 214.113 253.8 214.113 244.7V114.8C214.113 105.8 215.813 97.7 219.213 90.5C222.713 83.3 227.713 77.6 234.213 73.4C240.713 69.2 248.413 67.1 257.313 67.1C264.013 67.1 270.013 68.35 275.313 70.85C280.613 73.35 285.113 76.8 288.813 81.2C292.613 85.5 295.513 90.55 297.513 96.35C299.513 102.05 300.513 108.2 300.513 114.8V145.1H270.213V114.8C270.213 110.2 269.263 106.35 267.363 103.25C265.463 100.15 262.313 98.6 257.913 98.6C253.913 98.6 251.013 100.2 249.213 103.4C247.413 106.6 246.513 110.4 246.513 114.8V244.7C246.513 249.1 247.463 252.9 249.363 256.1C251.363 259.3 254.213 260.9 257.913 260.9C262.413 260.9 265.563 259.35 267.363 256.25C269.263 253.15 270.213 249.3 270.213 244.7V214.4H300.513V244.7C300.513 253.7 298.763 261.8 295.263 269C291.763 276.2 286.763 281.9 280.263 286.1C273.863 290.3 266.213 292.4 257.313 292.4ZM366.333 292.4C357.233 292.4 349.433 290.3 342.933 286.1C336.533 281.9 331.633 276.2 328.233 269C324.833 261.8 323.133 253.7 323.133 244.7V69.5H355.533V244.7C355.533 249 356.383 252.8 358.083 256.1C359.783 259.3 362.533 260.9 366.333 260.9C370.333 260.9 373.133 259.3 374.733 256.1C376.333 252.8 377.133 249 377.133 244.7V69.5H409.533V244.7C409.533 253.7 407.783 261.8 404.283 269C400.883 276.2 395.933 281.9 389.433 286.1C383.033 290.3 375.333 292.4 366.333 292.4ZM433.582 290V69.5H465.982V260H508.882V290H433.582ZM522.059 290V69.5H554.459V290H522.059Z" fill="black"/>
<path d="M571.852 290L605.152 69.5H644.752L678.052 290H646.552L640.552 245H609.352L603.352 290H571.852ZM613.852 210.8H636.052L626.752 136.7L625.852 125H624.052L623.152 136.7L613.852 210.8ZM695.203 290V69.5H727.603C747.003 69.5 761.303 74.9 770.503 85.7C779.703 96.4 784.303 112.2 784.303 133.1C784.303 145.5 782.103 156.25 777.703 165.35C773.403 174.35 768.153 180.95 761.953 185.15L784.003 290H751.603L733.303 197H727.603V290H695.203ZM727.603 167C733.603 167 738.353 165.7 741.853 163.1C745.353 160.4 747.853 156.6 749.353 151.7C750.853 146.8 751.603 141 751.603 134.3C751.603 123.8 749.853 115.75 746.353 110.15C742.953 104.45 736.703 101.6 727.603 101.6V167Z" fill="black" fill-opacity="0.8"/>
</svg>
