<svg width="73" height="84" viewBox="0 0 73 84" fill="none" xmlns="http://www.w3.org/2000/svg">
<path d="M36.2243 62.297C37.0245 62.297 37.6732 61.6483 37.6732 60.8481C37.6732 60.0479 37.0245 59.3992 36.2243 59.3992C35.4241 59.3992 34.7754 60.0479 34.7754 60.8481C34.7754 61.6483 35.4241 62.297 36.2243 62.297Z" fill="#EEECE1"/>
<path d="M36.2231 53.6035C32.222 53.6035 28.9785 56.847 28.9785 60.8481C28.9785 64.8492 32.222 68.0927 36.2231 68.0927C40.2242 68.0927 43.4677 64.8492 43.4677 60.8481C43.4629 56.849 40.2222 53.6083 36.2231 53.6035ZM36.2231 65.1948C33.8224 65.1948 31.8763 63.2487 31.8763 60.8481C31.8763 58.4474 33.8224 56.5013 36.2231 56.5013C38.6237 56.5013 40.5698 58.4474 40.5698 60.8481C40.5698 63.2487 38.6237 65.1948 36.2231 65.1948Z" fill="#EEECE1"/>
<path d="M27.3718 55.9101C24.7983 57.2346 22.4147 58.8994 20.2852 60.8596C22.4197 62.8072 24.8026 64.4637 27.3718 65.7859C25.6496 62.7182 25.6496 58.975 27.3718 55.9072V55.9101Z" fill="#EEECE1"/>
<path d="M36.223 8.79858C27.5208 17.0574 7.24466 38.6346 7.24466 60.6016C7.20231 65.8614 9.74475 70.8068 14.0469 73.833C18.3491 76.8592 23.8628 77.5806 28.7987 75.7631C33.5817 73.9367 38.87 73.9367 43.653 75.7631C48.5819 77.5736 54.0852 76.8543 58.3831 73.8377C62.6811 70.8211 65.2284 65.8902 65.2012 60.6393C65.0824 41.405 49.8862 21.7519 36.223 8.79858ZM13.1359 45.7662C14.5235 42.202 16.2083 38.7608 18.1724 35.4789C18.4359 35.0332 18.9171 34.7619 19.4348 34.7673C19.9525 34.7726 20.4281 35.0537 20.6823 35.5048C20.9366 35.9558 20.9309 36.5082 20.6674 36.9539C18.7857 40.097 17.1717 43.3928 15.8425 46.8065C15.6628 47.2971 15.2329 47.6529 14.7174 47.7378C14.2018 47.8227 13.6805 47.6234 13.3531 47.2163C13.0256 46.8092 12.9426 46.2574 13.1359 45.772V45.7662ZM21.5512 73.7809C15.0718 72.9004 10.2166 67.4039 10.1425 60.8653C10.1379 60.4808 10.2863 60.1102 10.5551 59.8352C10.8238 59.5601 11.1909 59.4032 11.5755 59.399C12.367 59.4101 13.0111 60.0395 13.0403 60.8305C13.0909 65.9253 16.8686 70.213 21.9164 70.9048C22.7106 71.0057 23.2727 71.7312 23.1719 72.5255C23.071 73.3197 22.3455 73.8818 21.5512 73.7809ZM36.223 70.9903C27.9279 70.9903 20.9427 65.3801 18.3231 62.9677C17.7274 62.4239 17.388 61.6545 17.388 60.8479C17.388 60.0414 17.7274 59.272 18.3231 58.7282C20.9427 56.3157 27.9279 50.7055 36.223 50.7055C44.518 50.7055 51.5032 56.3157 54.1228 58.7282C54.7185 59.272 55.0579 60.0414 55.0579 60.8479C55.0579 61.6545 54.7185 62.4239 54.1228 62.9677C51.5032 65.3801 44.518 70.9903 36.223 70.9903ZM60.8704 59.399C61.255 59.4032 61.6221 59.5601 61.8908 59.8352C62.1596 60.1102 62.308 60.4808 62.3034 60.8653C62.2293 67.4039 57.3741 72.9004 50.8947 73.7809C50.1004 73.8818 49.3749 73.3197 49.274 72.5255C49.1732 71.7312 49.7353 71.0057 50.5295 70.9048C55.5773 70.213 59.355 65.9253 59.4056 60.8305C59.4014 60.4438 59.5555 60.0721 59.8321 59.8018C60.1088 59.5315 60.4839 59.3859 60.8704 59.399ZM52.2871 34.9703C52.6177 34.7745 53.0126 34.7181 53.3849 34.8135C53.7572 34.9089 54.0763 35.1482 54.2721 35.4789C56.2377 38.7602 57.923 42.2015 59.3099 45.7662C59.5033 46.2516 59.4203 46.8034 59.0928 47.2105C58.7654 47.6176 58.2441 47.8169 57.7285 47.732C57.213 47.6471 56.7831 47.2913 56.6034 46.8007C55.2741 43.387 53.6602 40.0912 51.7785 36.9481C51.3757 36.2611 51.6028 35.3778 52.2871 34.9703ZM51.906 52.2993C51.688 52.6158 51.3531 52.8327 50.9751 52.9023C50.5971 52.9718 50.207 52.8884 49.8906 52.6703C40.6479 46.3037 32.1254 46.0762 22.5553 52.6703C21.8964 53.1244 20.994 52.9583 20.5399 52.2993C20.0858 51.6404 20.2518 50.738 20.9108 50.2839C31.2981 43.1277 41.1261 43.1118 51.5351 50.2839C51.8516 50.5019 52.0684 50.8368 52.138 51.2148C52.2076 51.5928 52.1241 51.9829 51.906 52.2993ZM47.8143 30.4207C47.8143 36.8224 42.6247 42.012 36.223 42.012C29.8212 42.012 24.6316 36.8224 24.6316 30.4207C24.6316 24.019 29.8212 18.8294 36.223 18.8294C42.6217 18.8366 47.8071 24.022 47.8143 30.4207Z" fill="#EEECE1"/>
<path d="M38.117 0.718187C37.0361 -0.239396 35.4104 -0.239396 34.3295 0.718187C26.8821 7.26728 0.000380892 32.8479 0.000380892 60.6004C-0.0432889 68.2429 3.67048 75.4191 9.93488 79.7971C16.1993 84.1751 24.2148 85.196 31.3766 82.5282C34.4971 81.3329 37.9493 81.3329 41.0699 82.5282C48.2317 85.1953 56.2468 84.174 62.511 79.7962C68.7751 75.4183 72.4891 68.2426 72.4461 60.6004C72.4461 32.8479 45.5644 7.26728 38.117 0.718187ZM68.0994 60.6308C68.1299 66.8364 65.1158 72.6626 60.033 76.2228C54.9501 79.7831 48.4447 80.6249 42.6231 78.4756C38.5029 76.9086 33.9508 76.9086 29.8306 78.4756C24.0019 80.631 17.4863 79.7869 12.3994 76.2172C7.31237 72.6475 4.30257 66.8075 4.34712 60.5931C4.34712 37.5105 25.2492 15.2073 34.2353 6.69496C35.3516 5.64247 37.0948 5.64247 38.2111 6.69496C52.5467 20.2785 68.0994 40.7734 68.0994 60.6308Z" fill="#EEECE1"/>
<path d="M46.3652 60.8483C46.3655 62.5777 45.9209 64.2782 45.0742 65.7862C47.6417 64.4637 50.0203 62.8029 52.1464 60.8483C50.0203 58.8937 47.6417 57.2329 45.0742 55.9104C45.9209 57.4184 46.3655 59.1189 46.3652 60.8483Z" fill="#EEECE1"/>
</svg>
