<svg width="277" height="137" viewBox="0 0 277 137" fill="none" xmlns="http://www.w3.org/2000/svg">
<g clip-path="url(#clip0_140_203381)">
<path d="M165.748 74.7232C165.753 87.5567 155.853 99.5457 141.007 99.6267C127.004 99.7028 116.064 88.5901 116.138 74.8877C116.207 62.1303 125.662 49.8811 140.661 49.778C154.501 49.6822 165.697 60.8514 165.748 74.7232ZM124.229 77.8015C124.827 75.5259 125.222 73.9254 125.667 72.3396C127.297 66.5268 130.654 62.0247 135.895 58.9563C136.283 58.7305 136.598 58.3819 137.124 57.9449C135.167 57.6062 133.702 58.183 132.37 58.9686C127.454 61.8627 124.264 66.1414 122.742 71.6057C122.202 73.5449 122.406 75.4842 124.232 77.8064L124.229 77.8015ZM134.821 90.7086C134.272 91.6684 134.56 92.125 134.956 92.5276C136.143 93.7377 137.502 94.7368 139.193 95.024C140.491 95.245 141.843 95.2401 143.084 94.1207C140.754 91.8476 137.758 91.5236 134.821 90.7086ZM126.203 83.3394C125.571 84.5987 126.09 85.7082 126.709 86.7441C127.258 87.6573 127.904 88.5459 129.17 88.6294C129.199 85.9193 128.494 84.6772 126.203 83.3394Z" fill="#F1E2C1"/>
<path d="M98.2052 71.8316C98.8541 73.302 99.213 74.0703 99.5399 74.8534C100.435 77.0037 101.349 79.1492 102.182 81.3241C102.455 82.036 102.566 82.8313 102.625 83.5997C102.713 84.7411 102.261 85.5954 101.528 85.8188C100.715 86.0692 99.9601 85.8801 99.3899 85.2615C98.8713 84.6994 98.4363 84.0612 97.5219 82.8903C97.4211 84.5153 97.4236 85.3327 97.3081 86.1354C97.1459 87.2573 95.8923 87.7998 95.0419 87.0633C94.3881 86.4938 93.8031 85.7795 93.3828 85.021C92.3603 83.175 91.3895 81.2947 90.5071 79.3775C89.2781 76.7092 87.4372 74.5416 85.289 72.3888C84.6253 73.2357 85.2349 73.9476 85.171 74.6226C85.1046 75.3173 85.0112 75.9703 84.323 76.2992C83.6176 76.6355 82.9736 76.3066 82.5066 75.8353C81.4964 74.8141 80.4887 73.7708 79.6186 72.6318C77.8538 70.3244 76.0424 68.1003 73.5943 66.4483C72.4637 65.6849 71.3994 65.459 69.9763 66.1562C70.0893 66.6079 70.0721 67.2068 70.3572 67.5628C71.4658 68.9448 72.5005 70.4643 73.872 71.5345C76.674 73.7193 79.6727 75.6487 82.5976 77.6763C83.4185 78.2459 84.3009 78.7393 85.0727 79.3677C85.5765 79.7776 86.0313 80.3201 86.3336 80.8945C87.2307 82.5981 86.2033 84.3287 84.264 84.4859C82.6492 84.616 81.1769 84.0587 79.7612 83.418C76.1112 81.7733 72.4096 80.2121 68.8923 78.317C65.6995 76.5963 62.4305 75.4302 58.8174 75.0669C55.5533 74.738 52.6039 73.4149 49.7969 71.7653C47.8773 70.6386 45.9577 69.5118 43.4408 69.3351C43.2811 69.9291 43.1016 70.5207 42.9664 71.1246C42.5953 72.7644 42.1086 74.3502 41.0173 75.6806C38.9994 78.1378 36.2343 78.1796 34.2114 75.7027C33.4519 74.7724 32.8891 73.6825 32.1566 72.5385C31.402 72.8626 30.6745 73.1007 30.0207 73.4713C28.7696 74.1808 27.5604 74.9638 26.2626 75.7616C26.3265 76.8368 26.3855 77.8163 26.4396 78.7957C26.5231 80.3029 26.0905 81.658 25.1762 82.8461C23.4901 85.0333 20.8011 85.264 18.7758 83.3886C18.213 82.8657 17.7337 82.252 17.1536 81.6113C15.8387 81.6923 14.9563 82.6178 13.9387 83.2241C12.7933 83.9065 11.7069 84.6896 10.5788 85.4015C9.58576 86.0274 8.59277 86.673 7.31958 86.6853C9.83401 83.8378 13.0539 81.8961 15.9566 79.5051C15.438 76.4441 14.7228 73.4149 14.4647 70.3489C14.2066 67.2633 14.4082 64.1408 14.4082 60.7287C13.2849 61.0208 12.4492 61.1779 11.6553 61.4553C8.40351 62.5943 5.16892 63.7873 1.91467 64.919C1.46242 65.0761 0.93151 65.0049 0.00488281 65.0712C4.28654 60.7974 9.68408 59.7714 14.5925 57.5891C14.9587 56.3322 15.3102 55.0607 15.7035 53.8014C16.2368 52.0855 16.9939 50.4776 18.2843 49.1889C19.088 48.3862 20.022 47.6989 21.2362 47.9615C22.6003 48.2561 23.2222 49.3288 23.4827 50.5906C23.6597 51.4448 23.6916 52.3285 23.8047 53.3546C25.2573 53.281 26.3658 52.5077 27.5702 52.0659C28.8213 51.6068 30.0944 51.1846 31.289 50.6053C31.7216 50.3942 32.0239 49.8099 32.2672 49.3362C32.6236 48.6488 32.776 47.8437 33.1889 47.2005C33.8452 46.1818 34.5187 45.1164 35.4084 44.3211C37.1412 42.7697 39.137 43.4325 39.7368 45.6614C39.9064 46.2898 39.9211 46.9624 40.0293 47.7921C40.5921 47.7921 41.1353 47.8903 41.6269 47.7774C47.6168 46.3856 53.5821 46.7955 59.5056 48.1039C63.9569 49.0882 68.3319 50.4384 72.8078 51.273C79.422 52.5077 85.6036 55.0263 91.881 57.2626C95.1771 58.436 97.8636 60.7164 100.324 63.1147C103.028 65.7487 105.451 68.6748 107.936 71.5247C108.809 72.5263 109.541 73.6555 110.259 74.7773C110.763 75.5628 110.942 76.4612 110.266 77.2566C109.588 78.0544 108.649 77.939 107.789 77.6788C107.051 77.4554 106.319 77.1314 105.667 76.7239C103.971 75.6634 102.322 74.5318 100.653 73.4321C100.051 73.0344 99.4464 72.6466 98.2077 71.8389L98.2052 71.8316ZM104.633 72.5975C104.76 72.4379 104.886 72.2783 105.014 72.1163C104.193 71.0755 103.428 69.9856 102.546 69.0012C98.2052 64.1629 93.5622 59.7493 86.9775 58.0849C86.014 57.8419 85.0874 57.432 84.1731 57.0343C80.8992 55.6032 77.4753 54.6851 73.9974 53.9168C71.5051 53.3669 69.0275 52.7409 66.5401 52.169C63.2957 51.4203 60.066 50.5906 56.7946 49.9744C52.4048 49.1496 47.9756 48.7544 43.5465 49.7461C40.5405 50.4187 37.4878 50.9612 34.6981 52.2819C33.6633 57.2675 33.565 62.1132 34.5285 66.9662C34.6268 67.4596 34.9291 67.9138 35.1553 68.4244C36.8365 67.9236 38.3431 67.5554 39.7908 67.0276C41.8801 66.2666 43.9644 66.3305 45.9872 67.0669C47.7495 67.71 49.4823 68.4931 51.1242 69.3989C53.9877 70.9798 56.9961 72.0672 60.2455 72.3692C63.4063 72.6637 66.2747 73.7193 69.0718 75.1651C72.2252 76.7951 75.4598 78.2679 78.6674 79.7923C79.1246 80.0084 79.6284 80.1237 80.1102 80.2858C77.8415 78.2041 75.4623 76.395 73.0486 74.6349C70.7554 72.9632 69.0128 70.8251 67.6831 68.3532C66.4615 66.0801 67.0268 64.4108 69.3471 63.5615C70.3695 63.1884 71.51 62.9846 72.5988 62.9773C76.4872 62.9503 80.3756 63.0975 84.264 63.0656C87.9386 63.0362 91.2961 64.0107 94.3709 65.9549C97.372 67.8549 100.319 69.8359 103.293 71.7776C103.731 72.0623 104.188 72.3176 104.635 72.5876L104.633 72.5975ZM31.0874 53.2662C26.0438 54.9306 21.713 57.378 17.0651 59.3614C16.2147 65.567 16.8488 71.5321 18.6407 77.5266C20.489 77.1486 21.7229 75.9801 23.0993 75.1111C24.5027 74.225 25.8128 73.1891 27.2187 72.3029C28.6123 71.4216 30.0723 70.6459 31.4782 69.8383C31.2079 67.0865 30.7974 64.4575 30.736 61.8211C30.6721 59.0865 30.9449 56.3421 31.0874 53.2662ZM99.6578 81.7807C99.1195 77.8531 97.5072 74.36 95.9882 70.8349C95.8235 70.4545 95.4991 70.0592 95.1402 69.8579C93.1272 68.7214 91.097 67.6094 89.0323 66.571C88.644 66.3746 88.0738 66.544 87.1004 66.544C88.0074 67.3737 88.5432 67.904 89.1208 68.3826C92.1219 70.8791 94.7052 73.6849 96.352 77.3057C97.1164 78.9872 98.102 80.5951 99.6578 81.7807ZM95.1009 83.4426C95.3885 79.186 94.3537 75.9899 91.4312 73.1768C88.8062 70.6533 85.9108 68.4072 83.1039 66.0776C82.7401 65.7757 82.165 65.5769 81.7816 66.3231C82.6787 67.1602 83.566 67.9874 84.4533 68.8122C88.0492 72.1531 91.2567 75.769 93.0608 80.4429C93.4443 81.4346 93.8769 82.4656 95.1009 83.445V83.4426ZM76.2242 66.1611C78.8616 68.3311 80.3683 71.429 82.9613 73.8175C83.5217 72.271 82.9441 71.1001 82.4329 70.0691C81.5136 68.2157 79.5178 67.4253 77.989 66.1734C77.5663 65.8248 77.087 65.5081 76.2242 66.1611ZM20.983 50.4825C18.793 51.4522 17.8812 53.1484 17.9721 56.1211C19.3608 55.7235 20.6856 55.3258 21.7745 54.2531C21.7204 52.9201 21.9908 51.5774 20.983 50.4825ZM21.5705 81.8666C23.232 80.7718 23.4802 79.4904 23.5761 77.8089C22.0399 78.4251 20.7643 78.8718 19.8549 80.1851C20.4177 80.7374 20.9363 81.2431 21.5729 81.8666H21.5705ZM37.4362 74.0752C38.6602 72.8061 39.2427 71.8561 39.051 70.4422C37.741 70.3415 36.7676 70.6484 35.8017 71.5812C36.281 72.3127 36.7431 73.0172 37.4362 74.0752ZM38.4464 48.5408C38.1416 47.7381 38.0187 47.3257 37.8245 46.9526C37.741 46.793 37.5025 46.712 37.2395 46.5279C36.603 47.1932 35.8533 47.7823 35.9614 49.1521C36.748 48.9581 37.4214 48.7937 38.4488 48.5384L38.4464 48.5408Z" fill="#F1E2C1"/>
<path d="M263.661 50.8403C264.064 53.7811 264.563 56.609 264.811 59.4589C265.059 62.3163 265.054 65.1982 265.167 68.2912C265.905 68.3501 266.529 68.4286 267.158 68.4458C269.383 68.5047 271.609 68.4949 273.831 68.6152C274.674 68.6594 275.5 68.9834 277.002 69.3369C272.684 70.6035 268.916 70.8294 264.99 71.3154C264.762 72.3955 264.597 73.4781 264.29 74.5189C264.01 75.4664 263.707 76.4557 263.172 77.2658C262.016 79.0111 259.61 79.0995 258.354 77.4081C257.715 76.549 257.361 75.4419 257.032 74.3986C256.806 73.6867 256.845 72.8938 256.744 71.9414C254.684 71.7106 252.748 71.7352 250.791 72.5747C250.413 73.7334 250.064 74.8969 249.653 76.0408C249.144 77.4646 248.35 78.7411 246.711 78.8908C245.104 79.0381 244.037 77.9899 243.213 76.7257C242.918 76.274 242.683 75.7831 242.346 75.1768C240.979 75.5474 239.996 76.4631 238.895 77.1651C235.99 79.016 233.166 81.0142 230.137 82.6392C227.606 83.9992 224.882 85.0547 222.154 85.9826C219.121 87.0136 217.253 88.8768 216.644 92.0409C216.349 93.5653 215.887 95.0554 215.488 96.5601C215.262 97.4193 215.053 98.2858 214.756 99.1229C214.53 99.7611 214.137 100.331 213.367 100.392C212.588 100.453 212.104 99.9305 211.816 99.3316C210.632 96.8694 210.16 94.2772 210.656 91.5647C210.833 90.6 211.121 89.6549 211.364 88.6681C210.607 88.4079 210.396 89.0191 210.091 89.3677C208.604 91.0664 207.633 93.0597 206.893 95.1732C206.379 96.6412 205.959 98.1508 205.337 99.5697C204.946 100.461 204.359 101.317 203.681 102.017C202.82 102.906 201.319 102.461 201.041 101.266C200.844 100.414 200.743 99.4936 200.837 98.6295C201.088 96.3147 201.469 94.0121 201.795 91.7071C201.872 91.172 201.95 90.6368 201.692 90.0207C201.164 91.5672 200.645 93.1186 200.104 94.6626C199.63 96.025 199.229 97.4291 198.61 98.7228C198.246 99.4838 197.58 100.147 196.929 100.714C196.339 101.229 195.159 100.873 194.972 100.122C194.709 99.0542 194.473 97.9324 194.518 96.8449C194.638 93.7445 194.908 90.6515 195.142 87.2149C194.739 86.9841 194.073 86.6552 193.458 86.2453C191.917 85.2167 191.558 83.7488 192.637 82.2514C193.274 81.3701 194.107 80.5699 194.999 79.9439C196.14 79.1461 197.01 78.2673 197.356 76.8705C197.568 76.0187 197.917 75.1768 198.337 74.4035C198.701 73.7334 199.249 73.1663 199.859 72.3661C199.384 72.1672 199.03 71.9021 198.667 71.8849C194.999 71.7278 191.327 71.5093 187.658 71.5216C185.219 71.5314 182.771 71.7916 180.35 72.123C178.209 72.4152 176.13 72.2851 174.058 71.7966C173.532 71.6738 173.004 71.4357 172.556 71.1338C171.642 70.5225 171.458 69.3933 172.109 68.5047C173.055 67.2111 174.387 66.4157 175.808 65.7407C178.753 64.3439 181.877 63.6026 185.092 63.1583C189.066 62.6059 193.05 62.3727 197.064 62.2746C202.289 62.1469 207.522 61.8008 212.608 60.4163C214.749 59.8321 216.958 59.3436 218.959 58.4255C224.172 56.0346 229.7 54.8415 235.269 53.7443C235.813 53.6363 236.349 53.4963 236.887 53.3589C236.99 53.3319 237.076 53.2435 237.359 53.0643C237.437 52.5783 237.538 51.9449 237.639 51.3141C237.872 49.8658 238.334 48.5058 239.303 47.3717C240.524 45.9406 242.27 45.7491 243.732 46.9667C244.405 47.5264 244.986 48.2309 245.502 48.9428C246.087 49.7504 246.554 50.6415 247.109 51.5571C248.793 52.0799 250.344 51.2453 252.023 51.0048C252.023 49.9811 251.991 49.0066 252.03 48.032C252.077 46.9127 252.271 45.8252 252.961 44.8826C254.122 43.2993 256.174 42.7077 258.022 43.4539C259.305 43.9719 260.276 44.8728 261.038 45.9995C261.655 46.9151 262.218 47.8676 262.877 48.9207C266.104 49.1686 269.186 47.4036 273.148 47.8479C269.828 49.6473 266.642 49.743 263.658 50.8329L263.661 50.8403ZM213.242 96.9333C213.615 95.9244 213.874 95.3328 214.055 94.7166C214.466 93.3321 214.852 91.9427 215.22 90.5484C216.051 87.4039 217.936 85.3075 221.105 84.3256C227.117 82.4625 232.588 79.5708 237.487 75.599C239.932 73.6155 242.764 72.3268 245.73 71.3179C246.443 71.0749 247.126 70.7508 247.724 70.5054C248.471 66.0107 247.001 58.0401 244.794 54.5175C241.997 54.9348 239.126 55.2638 236.299 55.8112C230.848 56.8667 225.386 57.8805 220.294 60.2911C218.401 61.1871 216.331 61.7566 214.291 62.2795C208.776 63.6983 203.147 64.4274 197.455 64.4347C193.77 64.4396 190.123 64.7121 186.48 65.1933C182.828 65.6768 179.237 66.3887 175.995 68.2691C175.513 68.5489 175.039 68.8729 175.398 69.6634C177.45 69.9776 179.537 69.8818 181.633 69.5234C182.833 69.3173 184.057 69.1405 185.271 69.1258C192.384 69.0325 199.51 68.8508 206.325 70.8539C209.317 69.4351 211.629 67.0221 214.994 66.3863C214.876 67.6996 213.928 67.9794 213.261 68.4483C209.803 70.8858 206.51 73.5173 203.359 76.3452C201.542 77.9752 199.554 79.4161 197.632 80.9283C196.934 81.4781 196.182 81.9593 195.493 82.5189C195.068 82.8626 194.658 83.275 195.046 84.0875C196.223 84.657 197.524 84.549 198.77 84.0237C200.608 83.248 202.454 82.46 204.207 81.5076C206.974 80.0028 209.884 79.0454 212.976 78.4563C217.784 77.5407 222.545 76.4213 226.903 74.0427C227.97 73.4609 229.135 73.0485 230.28 72.6164C230.595 72.4986 230.995 72.5993 231.801 72.5993C229.23 75.4738 226.775 77.6462 223.44 78.5987C221.84 79.0553 220.225 79.4726 218.612 79.8801C217.821 80.0814 217.17 80.4054 216.83 81.213C215.584 84.1833 214.225 87.1093 213.097 90.1213C212.323 92.1858 212.239 94.3607 213.242 96.9308V96.9333ZM260.338 51.6626C256.916 51.9032 250.297 53.408 248.269 54.3972C248.741 56.0738 249.25 57.7603 249.685 59.4663C250.096 61.0742 250.533 62.687 250.771 64.3243C251.025 66.0524 251.057 67.81 251.192 69.6462C251.772 69.7149 252.197 69.8377 252.61 69.8033C255.584 69.5578 258.556 69.2804 261.461 69.0178C262.456 65.2424 261.874 56.3537 260.338 51.6626ZM203.078 98.3865C203.354 98.2613 203.511 98.2417 203.545 98.1656C203.87 97.4733 204.253 96.7958 204.47 96.0716C206.139 90.4723 209.103 85.8083 214.087 82.5656C214.35 82.3962 214.569 82.109 214.714 81.8291C214.793 81.677 214.672 81.4217 214.621 81.078C212.495 80.9307 210.491 81.4978 208.572 82.352C207.999 82.6073 207.468 83.1007 207.085 83.6088C205.672 85.4916 204.661 87.5733 204.271 89.9176C203.87 92.3208 203.467 94.7215 203.086 97.1272C203.024 97.5101 203.078 97.9127 203.078 98.384V98.3865ZM200.436 86.8246C199.001 86.5644 197.954 87.1241 196.767 87.3376C196.447 90.3202 196.361 93.1726 196.481 96.0299C196.491 96.268 196.835 96.4939 197.248 96.9995C198.342 93.5064 199.357 90.2711 200.436 86.827V86.8246ZM259.6 49.581C258.585 47.1852 258.337 46.7777 257.619 46.2155C256.459 45.3024 254.906 45.5847 254.242 46.8636C253.679 47.951 253.367 49.0876 253.829 50.4303C255.817 50.6709 257.563 49.959 259.6 49.581ZM239.035 52.8876C241.05 53.0839 242.574 52.6126 244.28 52.1511C243.639 50.5506 243.051 49.1882 241.54 48.3831C239.797 49.3429 239.49 50.9434 239.035 52.89V52.8876ZM260.355 74.7472C260.539 74.7594 260.721 74.7717 260.905 74.784C261.104 74.0795 261.365 73.3848 261.49 72.668C261.618 71.934 261.205 71.772 259.785 72.042C259.976 72.9454 260.166 73.8463 260.355 74.7496V74.7472ZM246.396 75.6333C247.026 74.6711 247.5 74.0598 246.694 73.1958C246.185 73.4854 245.676 73.7726 245.047 74.1286C245.531 74.6711 245.875 75.054 246.394 75.6333H246.396ZM203.811 84.8878C201.908 85.7911 202.147 86.7043 202.459 87.9292C202.884 86.9694 203.204 86.2502 203.811 84.8878Z" fill="#F1E2C1"/>
<path d="M142.782 0.000445749C143.934 -0.0191923 144.001 0.614135 144.185 1.09281C147.326 9.23033 147.673 17.5127 145.468 25.9276C144.682 28.9298 143.797 31.9123 143.15 34.9439C142.737 36.8856 142.71 38.9083 142.455 40.8869C142.344 41.746 142.088 42.588 141.838 43.7148C141.327 43.2263 140.867 42.9906 140.759 42.6445C140.432 41.5939 140.139 40.5113 140.014 39.4189C139.586 35.6362 139.783 31.8681 140.749 28.1811C142.256 22.4296 142.806 16.6167 142.234 10.6934C142.116 9.48317 142.138 8.24843 142.214 7.03332C142.356 4.71358 142.585 2.39874 142.784 0.000445749H142.782Z" fill="#F1E2C1"/>
<path d="M125.64 47.2691C123.688 47.2642 122.737 46.4713 121.83 45.7201C118.918 43.3096 116.044 40.8548 113.181 38.3878C111.642 37.0598 110.519 35.4003 109.674 33.5691C108.209 30.3951 106.218 27.6507 103.551 25.353C102.042 24.052 100.732 22.5153 99.3602 21.0597C99.0775 20.7602 98.9104 20.3502 98.5098 19.6973C99.3479 19.766 99.9132 19.6924 100.375 19.874C101.821 20.4435 103.244 21.0793 104.647 21.7445C107.982 23.3205 110.472 25.7728 112.129 29.0695C112.478 29.7642 112.879 30.4368 113.186 31.1487C114.174 33.4365 115.651 35.3463 117.49 37.0131C119.803 39.1095 121.889 41.4194 123.647 44.0067C124.261 44.9101 124.787 45.8699 125.64 47.274V47.2691Z" fill="#F1E2C1"/>
<path d="M156.768 47.355C156.908 46.2946 156.829 45.6023 157.092 45.0868C158.911 41.525 161.56 38.7732 165.265 37.1383C166.174 36.7358 167.115 36.3823 168.071 36.1073C170.701 35.3513 172.901 33.9422 174.757 31.9441C177.424 29.072 180.678 26.9486 183.945 24.8474C184.21 24.678 184.549 24.6166 184.861 24.5356C184.935 24.516 185.041 24.6215 185.134 24.6706C185.181 24.867 185.336 25.1272 185.26 25.2475C182.799 29.2168 180.032 32.9358 176.48 36.0263C174.609 37.6563 172.552 38.9941 170.153 39.5661C165.81 40.602 162.158 42.745 158.994 45.838C158.471 46.3486 157.77 46.6824 156.768 47.355Z" fill="#F1E2C1"/>
<path d="M101.922 126.911C103.48 122.804 105.115 119.674 107.278 116.866C110.075 113.235 112.432 109.386 114.111 105.105C114.963 102.933 116.116 100.886 117.869 99.2679C119.287 97.9571 120.843 96.9457 123.229 97.3483C122.878 97.8024 122.713 98.1903 122.423 98.3621C120.42 99.5551 119.152 101.35 118.284 103.436C117.603 105.073 117.065 106.767 116.46 108.436C113.894 115.499 109.669 121.366 103.76 126.017C103.443 126.268 103.021 126.386 101.924 126.911H101.922Z" fill="#F1E2C1"/>
<path d="M145.896 105.581C145.97 106.453 146.078 107.322 146.107 108.193C146.213 111.249 147.029 114.085 148.659 116.682C148.894 117.057 149.091 117.458 149.344 117.821C153.041 123.106 154.201 129.15 154.619 135.412C154.646 135.814 154.528 136.229 154.432 137C153.879 136.573 153.461 136.398 153.284 136.089C151.682 133.305 150.212 130.475 149.194 127.394C148.364 124.886 147.157 122.502 146.132 120.055C145.321 118.12 144.389 116.22 143.777 114.222C143.013 111.731 143.168 109.17 144.104 106.72C144.306 106.19 144.861 105.797 145.254 105.341C145.468 105.419 145.682 105.5 145.896 105.579V105.581Z" fill="#F1E2C1"/>
<path d="M191.362 99.6825C190.601 99.6825 190.124 99.8249 189.804 99.6604C186.658 98.0427 183.478 96.4791 180.44 94.6748C178.943 93.7862 177.576 92.5637 176.418 91.2578C174.499 89.0902 172.284 87.6297 169.381 87.2688C168.956 87.2148 168.551 87.0184 167.904 86.8147C168.332 86.3974 168.573 86.0046 168.919 85.8524C171.215 84.8386 173.471 85.1405 175.632 86.2599C176.509 86.714 177.306 87.3302 178.119 87.8972C180.019 89.2253 181.873 90.6245 183.807 91.896C186.813 93.8696 189.145 96.4496 191.362 99.6825Z" fill="#F1E2C1"/>
<path d="M157.281 27.8545C157.021 30.7781 156.497 33.3581 154.629 35.4053C153.11 37.0697 152.007 38.9328 151.144 40.9899C150.824 41.7509 150.613 42.7156 149.396 42.9365C149.232 42.5855 148.924 42.2148 148.9 41.8245C148.715 39.1071 149.168 36.4731 150.832 34.286C152.496 32.0963 154.42 30.1055 156.251 28.0435C156.359 27.9208 156.654 27.9625 157.281 27.8545Z" fill="#F1E2C1"/>
<path d="M128.614 26.1655C130.219 28.0655 130.811 29.9925 131.16 31.8949C131.797 35.3832 132.436 38.8419 133.874 42.1141C134.066 42.5486 133.901 43.1402 133.901 43.8963C131.365 42.7597 130.504 40.5357 129.506 38.5277C127.599 34.6934 127.346 30.8468 128.617 26.1631L128.614 26.1655Z" fill="#F1E2C1"/>
<path d="M179.451 48.0253C179.186 48.5187 179.107 48.8746 178.884 49.0489C176.401 50.9906 173.766 52.5445 170.487 52.7654C168.381 52.9053 166.314 53.3791 164.372 54.2898C164.099 54.4175 163.738 54.3561 163.404 54.3831C162.861 53.6344 163.355 53.1091 163.763 52.6599C165.161 51.1256 167.002 50.3328 168.959 49.8295C170.893 49.3312 172.859 48.9483 174.818 48.5359C175.905 48.3076 176.998 48.0989 178.097 47.9345C178.473 47.878 178.874 47.9811 179.454 48.0253H179.451Z" fill="#F1E2C1"/>
<path d="M102.501 43.582C105.08 43.8275 107.191 44.9641 109.108 46.4566C111.382 48.2289 113.601 50.0724 115.821 51.911C116.042 52.0951 116.116 52.456 116.339 52.8954C114.253 53.4256 112.525 52.7015 110.883 51.8644C107.258 50.011 104.458 47.2617 102.499 43.582H102.501Z" fill="#F1E2C1"/>
<path d="M113.413 88.1237C113.26 88.5828 113.255 88.8749 113.118 88.9657C111.282 90.1685 110.104 91.8918 109.261 93.858C107.87 97.1081 105.206 98.3772 101.9 98.6816C101.733 98.6964 101.546 98.4852 101.189 98.2741C101.654 97.0222 102.581 96.0747 103.588 95.2793C105.009 94.16 106.12 92.8246 107.069 91.3051C107.838 90.0703 108.838 89.0369 110.131 88.3152C111.134 87.753 112.149 87.4118 113.413 88.1237Z" fill="#F1E2C1"/>
<path d="M158.374 98.2637C158.851 98.357 159.003 98.3422 159.05 98.4036C160.721 100.657 162.84 102.373 165.18 103.91C167.181 105.223 168.083 107.079 168.874 110.238C168.781 110.277 168.646 110.375 168.596 110.344C166.202 108.763 163.762 107.241 161.446 105.552C160.095 104.565 159.119 103.193 158.49 101.595C158.067 100.525 157.905 99.4886 158.372 98.2637H158.374Z" fill="#F1E2C1"/>
<path d="M129.632 118.024C128.759 114.647 129.057 111.775 129.497 108.93C129.733 107.4 130.234 105.893 131.274 104.688C131.66 104.241 132.282 103.995 132.933 103.568C133.09 104.111 133.307 104.435 133.24 104.683C132.636 106.958 132.518 109.268 132.645 111.603C132.758 113.684 132.154 115.543 130.89 117.18C130.664 117.472 130.251 117.622 129.632 118.027V118.024Z" fill="#F1E2C1"/>
<path d="M41.3193 62.5743C46.2892 61.2217 49.015 61.9017 51.7875 64.6731C51.6769 65.3383 51.1509 65.1616 50.7847 65.0806C50.0301 64.9161 49.2755 64.705 48.5554 64.4276C46.5768 63.6715 44.5711 63.053 42.4328 62.9425C42.0567 62.9228 41.6905 62.7019 41.3193 62.5718V62.5743Z" fill="#F1E2C1"/>
<path d="M59.6582 54.856C62.2734 54.775 64.0628 55.2733 65.7587 56.7413C62.9542 57.2028 61.944 56.918 59.6582 54.856Z" fill="#F1E2C1"/>
<path d="M59.3136 68.8508C58.7483 68.62 58.1264 68.4654 57.6373 68.1241C57.3522 67.9253 57.1752 67.4368 57.1383 67.0588C57.0966 66.6513 57.8708 66.5826 58.4509 67.0293C58.9277 67.3975 59.3259 67.8713 59.7609 68.2984C59.611 68.4825 59.4611 68.6667 59.3136 68.8508Z" fill="#F1E2C1"/>
<path d="M230.659 67.501C228.872 71.0432 225.443 72.6854 220.857 72.354C220.749 71.6029 221.385 71.4359 221.835 71.3009C224.858 70.3829 227.176 67.7612 230.659 67.501Z" fill="#F1E2C1"/>
<path d="M234.636 58.8333C236.491 56.9088 236.577 56.8891 238.627 57.7409C237.305 59.1107 237.3 59.0984 234.636 58.8333Z" fill="#F1E2C1"/>
</g>
<defs>
<clipPath id="clip0_140_203381">
<rect width="277" height="137" fill="white"/>
</clipPath>
</defs>
</svg>
