<svg width="338" height="338" viewBox="0 0 338 338" fill="none" xmlns="http://www.w3.org/2000/svg">
<path d="M82.4051 205.812C82.3468 206.02 82.3495 206.241 82.413 206.448C82.4765 206.654 82.5981 206.839 82.7633 206.978C91.4396 215.227 100.737 222.809 109.598 230.858C113.548 234.446 116.971 238.036 122.319 239.323C150.212 245.02 180.673 240.939 206.643 254.519C216.199 260.246 222.731 269.756 231.991 275.909C233.657 277.016 235.214 274.33 233.556 273.232C225.455 267.864 219.471 259.996 211.703 254.209C185.581 237.045 151.64 242.522 122.375 236.141C119.219 235.302 116.944 233.549 114.538 231.429C104.983 223.009 95.4828 214.505 85.8063 206.224C94.8844 200.494 106.301 212.552 112.724 218.104C115.06 220.634 118.104 223.457 122.021 223.811C130.229 224.697 138.251 225.3 146.485 224.195C153.855 222.979 161.262 221.265 168.772 222.272C173.186 223.416 177.739 223.872 181.925 225.804C183.778 226.66 185.329 224.148 183.547 223.029C180.332 221.011 176.408 220.571 172.762 219.838C163.18 217.638 154.339 213.194 145.091 209.799C143.507 209.255 142.971 207.357 143.672 205.904C146.341 202.581 152.97 203.474 156.795 203.745C169.24 204.38 181.679 206.481 194.145 205.312C206.511 204.067 216.742 212.616 224.717 221.042C236.75 233.491 248.217 246.99 263.335 255.835C265.227 256.944 266.93 254.021 265.051 252.899C250.537 244.231 239.467 231.448 227.864 219.401C220.107 211.261 210.796 202.93 199.066 202.024C194.45 201.662 189.834 202.636 185.215 202.637C174.519 202.711 163.736 200.634 153.084 200.068C150.518 199.582 147.692 199.344 145.514 200.295C141.978 201.644 137.935 204.995 139.855 209.201C141.742 212.873 147.888 214.058 151.477 215.779C154.185 216.879 156.893 218.023 159.623 219.106C154.242 219.541 148.993 220.954 143.634 221.518C141.77 221.729 139.889 221.311 138.289 220.331C136.689 219.352 135.462 217.866 134.802 216.11C133.073 211.417 134.088 205.186 132.744 200.28C131.292 194.534 126.208 187.385 119.374 188.69C118.38 188.88 118.164 190.179 118.714 190.868C120.246 195.92 121.286 201.109 121.819 206.361C117.751 198.533 108.328 189.858 98.9139 194.181C98.0682 194.612 98.2477 195.715 98.9139 196.154C102.321 200.808 105.936 205.302 108.577 210.478C102.161 204.759 89.0271 196.793 82.4051 205.812ZM121.2 191.702C135.104 195.217 126.864 213.876 134.82 221.842C133.534 221.826 132.249 221.793 130.965 221.723C127.474 219.992 126.384 215.512 124.836 212.037C124.605 205.12 123.381 198.271 121.2 191.702ZM102.311 196.357C116.459 195.622 120.104 211.474 125.878 221.371C123.799 221.222 121.489 221.18 119.599 220.227C116.615 218.274 114.187 215.583 112.55 212.414C109.694 206.736 106.604 201.136 102.311 196.357Z" fill="#F1E2C1"/>
<path d="M176.495 106.011C175.494 74.5392 129.864 74.5467 128.867 106.011C129.869 137.482 175.498 137.475 176.495 106.011Z" fill="#F1E2C1"/>
<path d="M138.827 76.7245C140.945 78.0885 143.026 74.9724 140.955 73.538C138.838 72.1744 136.757 75.2883 138.827 76.7245Z" fill="#F1E2C1"/>
<path d="M163.881 135.826C162.517 137.944 165.632 140.025 167.067 137.955C168.428 135.837 165.315 133.756 163.881 135.826Z" fill="#F1E2C1"/>
<path d="M185.156 94.2845C186.52 92.1668 183.405 90.0856 181.97 92.1558C180.607 94.2735 183.722 96.3547 185.156 94.2845Z" fill="#F1E2C1"/>
<path d="M120.211 117.737C118.847 119.855 121.962 121.937 123.397 119.866C124.761 117.748 121.645 115.667 120.211 117.737Z" fill="#F1E2C1"/>
<path d="M165.098 73.2519C162.636 73.7852 163.367 77.4596 165.846 77.0104C168.307 76.4762 167.576 72.8022 165.098 73.2519Z" fill="#F1E2C1"/>
<path d="M139.522 135.011C137.06 135.545 137.791 139.219 140.27 138.77C142.729 138.236 141.998 134.562 139.522 135.011Z" fill="#F1E2C1"/>
<path d="M181.683 119.176C182.216 121.637 185.89 120.906 185.441 118.428C184.908 115.966 181.232 116.698 181.683 119.176Z" fill="#F1E2C1"/>
<path d="M122.175 95.0993C124.639 94.566 123.906 90.8911 121.427 91.3408C118.966 91.8763 119.697 95.5489 122.175 95.0993Z" fill="#F1E2C1"/>
<path d="M150.924 61.6438V72.5866C150.963 74.8971 154.405 74.9023 154.444 72.5866V61.6438C154.406 59.3338 150.962 59.3281 150.924 61.6438Z" fill="#F1E2C1"/>
<path d="M150.924 139.836V150.779C150.963 153.089 154.405 153.095 154.444 150.779V139.836C154.406 137.527 150.962 137.521 150.924 139.836Z" fill="#F1E2C1"/>
<path d="M197.25 107.972C199.561 107.933 199.566 104.491 197.25 104.452H186.307C183.997 104.49 183.991 107.932 186.307 107.972H197.25Z" fill="#F1E2C1"/>
<path d="M108.116 107.972H119.059C121.369 107.933 121.374 104.491 119.059 104.452H108.116C105.806 104.49 105.8 107.932 108.116 107.972Z" fill="#F1E2C1"/>
<path d="M185.442 73.4525C185.278 73.2891 185.084 73.1594 184.871 73.071C184.657 72.9825 184.428 72.937 184.197 72.937C183.966 72.937 183.737 72.9825 183.524 73.071C183.31 73.1594 183.116 73.2891 182.953 73.4525L175.215 81.1908C174.885 81.5209 174.699 81.9686 174.699 82.4354C174.699 82.9022 174.885 83.3498 175.215 83.6799C175.545 84.01 175.992 84.1954 176.459 84.1954C176.926 84.1954 177.374 84.01 177.704 83.6799L185.442 75.9421C185.605 75.7786 185.735 75.5846 185.823 75.371C185.912 75.1574 185.957 74.9285 185.957 74.6973C185.957 74.4661 185.912 74.2372 185.823 74.0236C185.735 73.81 185.605 73.616 185.442 73.4525Z" fill="#F1E2C1"/>
<path d="M122.414 138.97L130.151 131.232C131.769 129.6 129.299 127.121 127.662 128.743L119.924 136.481C118.306 138.114 120.777 140.592 122.414 138.97Z" fill="#F1E2C1"/>
<path d="M182.951 138.97C184.582 140.603 187.056 138.1 185.44 136.481L177.702 128.743C176.041 127.138 173.603 129.567 175.213 131.233L182.951 138.97Z" fill="#F1E2C1"/>
<path d="M122.413 73.4526C120.753 71.8475 118.313 74.2754 119.924 75.9421L127.661 83.6799C129.292 85.3123 131.767 82.8096 130.15 81.1909L122.413 73.4526Z" fill="#F1E2C1"/>
<path d="M94.1812 176.653C105.649 176.905 116.03 166.825 116.088 155.258C116.099 154.837 115.958 154.426 115.691 154.1C115.425 153.773 115.05 153.554 114.636 153.48C114.221 153.407 113.793 153.484 113.431 153.699C113.069 153.914 112.795 154.252 112.661 154.651C111.607 157.781 109.384 160.383 106.457 161.912C103.529 163.441 100.124 163.779 96.9527 162.856C82.2193 158.397 86.4539 136.496 101.738 137.82C103.709 138.04 104.422 135.18 102.581 134.443C83.6533 126.435 64.9335 147.293 74.9012 165.272C76.7997 168.723 79.5909 171.601 82.9828 173.603C86.3747 175.605 90.2424 176.658 94.1812 176.653Z" fill="#F1E2C1"/>
<path d="M221.061 160.521L232.295 156.424C233.863 155.908 233.788 153.481 232.176 153.08L220.679 149.791C220.384 149.707 220.123 149.531 219.933 149.289C219.744 149.047 219.637 148.752 219.626 148.445L219.201 136.494C219.194 134.844 216.864 134.162 215.982 135.573L209.301 145.492C209.13 145.747 208.882 145.941 208.594 146.046C208.305 146.151 207.991 146.162 207.695 146.077L196.198 142.789C194.627 142.284 193.261 144.293 194.328 145.566L201.696 154.984C201.886 155.225 201.994 155.521 202.005 155.828C202.016 156.135 201.929 156.437 201.758 156.692L195.077 166.61C194.109 167.952 195.601 169.866 197.139 169.247L208.374 165.149C208.662 165.044 208.977 165.033 209.272 165.117C209.567 165.202 209.828 165.378 210.017 165.62L217.386 175.036C218.368 176.37 220.645 175.544 220.531 173.889L220.106 161.938C220.095 161.631 220.181 161.329 220.353 161.074C220.525 160.82 220.772 160.626 221.061 160.521Z" fill="#F1E2C1"/>
<path d="M81.5581 103.72C79.4901 105.156 81.5695 108.27 83.6872 106.907C85.7574 105.472 83.6754 102.357 81.5581 103.72Z" fill="#F1E2C1"/>
<path d="M94.5405 70.0733C92.4725 71.5086 94.5519 74.6233 96.6697 73.2598C98.7399 71.8249 96.6578 68.7097 94.5405 70.0733Z" fill="#F1E2C1"/>
<path d="M134.205 167.169C132.137 168.604 134.216 171.719 136.334 170.355C138.404 168.92 136.322 165.805 134.205 167.169Z" fill="#F1E2C1"/>
<path d="M175.195 163.213C173.127 164.648 175.207 167.763 177.324 166.4C179.394 164.965 177.315 161.85 175.195 163.213Z" fill="#F1E2C1"/>
<path d="M218.332 84.1966C219.767 86.2646 222.882 84.1851 221.518 82.0674C220.083 79.9963 216.968 82.0793 218.332 84.1966Z" fill="#F1E2C1"/>
<path d="M222.819 116.643C220.748 118.078 222.83 121.193 224.948 119.83C227.018 118.395 224.936 115.28 222.819 116.643Z" fill="#F1E2C1"/>
<circle cx="168.516" cy="168.516" r="168.016" stroke="#F1E2C1"/>
</svg>
