<svg width="969" height="969" viewBox="0 0 969 969" fill="none" xmlns="http://www.w3.org/2000/svg">
<g opacity="0.05">
<g clip-path="url(#clip0_491_236524)">
<path d="M506.862 664.883C393.564 664.883 284.738 602.271 201.255 487.482C196.782 481.519 196.782 475.555 201.255 469.592C284.738 354.803 393.564 292.191 506.862 292.191C620.161 292.191 728.987 354.803 812.47 469.592C816.942 475.555 816.942 481.519 812.47 487.482C728.987 602.271 620.161 664.883 506.862 664.883ZM232.561 478.537C310.081 579.909 406.981 635.068 508.353 635.068C609.725 635.068 705.135 579.909 782.655 478.537C705.135 378.655 608.235 323.497 506.862 323.497C405.49 323.497 308.59 378.655 232.561 478.537Z" fill="#02FFFF"/>
<path d="M650.366 478.537C650.366 557.791 586.117 622.04 506.862 622.04C427.608 622.04 363.359 557.791 363.359 478.537C363.359 399.282 427.608 335.034 506.862 335.034C586.117 335.034 650.366 399.282 650.366 478.537Z" stroke="#02FFFF" stroke-width="35"/>
<path d="M566.882 478.537C566.882 511.685 540.01 538.557 506.862 538.557C473.714 538.557 446.842 511.685 446.842 478.537C446.842 445.389 473.714 418.517 506.862 418.517C540.01 418.517 566.882 445.389 566.882 478.537Z" stroke="#02FFFF" stroke-width="35"/>
<path d="M508.353 259.394C499.408 259.394 493.445 251.94 493.445 244.486V193.8C493.445 184.855 499.408 178.892 508.353 178.892C517.298 178.892 523.261 186.346 523.261 193.8V244.486C523.261 253.431 517.298 259.394 508.353 259.394Z" fill="#02FFFF"/>
<path d="M503.88 779.672C494.936 779.672 488.973 772.218 488.973 764.765V714.078C488.973 705.134 496.426 699.171 503.88 699.171C512.825 699.171 518.788 706.625 518.788 714.078V764.765C518.788 772.218 512.825 779.672 503.88 779.672Z" fill="#02FFFF"/>
<path d="M402.508 260.885L383.128 211.689C380.146 204.235 383.128 195.291 392.072 192.309C399.526 189.328 408.471 192.309 411.452 201.254L430.832 250.449C433.814 257.903 430.832 266.848 421.888 269.829C414.434 272.811 405.489 268.338 402.508 260.885Z" fill="#02FFFF"/>
<path d="M603.762 755.82L584.382 706.625C581.4 699.171 584.382 690.226 593.326 687.245C600.78 684.263 609.725 687.245 612.706 696.189L630.596 745.385C633.577 752.839 630.596 761.783 621.651 764.765C615.688 767.746 606.743 764.765 603.762 755.82Z" fill="#02FFFF"/>
<path d="M322.007 298.154L284.737 256.412C278.774 250.449 280.265 241.505 286.228 235.542C292.191 229.578 301.136 231.069 307.099 237.032L344.368 278.774C350.331 284.737 348.841 293.682 342.878 299.645C336.914 305.608 327.97 304.117 322.007 298.154Z" fill="#02FFFF"/>
<path d="M708.116 721.532L670.847 679.791C664.884 673.828 666.375 664.883 672.338 658.92C678.301 652.957 687.245 654.448 693.208 660.411L730.478 702.152C736.441 708.115 734.95 717.06 728.987 723.023C723.024 727.495 714.079 727.495 708.116 721.532Z" fill="#02FFFF"/>
<path d="M257.904 353.312L205.727 323.497C198.273 319.025 196.782 310.08 199.764 302.626C204.236 295.172 213.181 293.682 220.635 296.663L272.812 326.478C280.265 330.951 281.756 339.895 278.775 347.349C274.302 354.803 265.358 357.785 257.904 353.312Z" fill="#02FFFF"/>
<path d="M793.091 660.411L740.914 630.595C733.46 626.123 730.479 617.178 734.951 611.215C739.423 603.762 748.368 602.271 755.822 605.252L807.999 635.068C815.452 639.54 816.943 648.485 813.962 655.938C809.489 663.392 800.545 664.883 793.091 660.411Z" fill="#02FFFF"/>
<path d="M198.273 652.957C193.801 645.503 196.782 636.559 204.236 632.086L257.904 602.271C265.358 597.799 274.302 600.78 278.775 608.234C283.247 615.688 280.265 624.632 272.812 629.105L219.144 658.92C210.199 661.902 201.255 658.92 198.273 652.957Z" fill="#02FFFF"/>
<path d="M737.931 350.331C733.459 342.877 736.441 333.932 743.894 329.46L797.562 299.645C805.016 295.172 813.961 298.154 818.433 305.608C822.905 313.062 819.924 322.006 812.47 326.478L758.802 356.294C749.858 359.275 740.913 357.785 737.931 350.331Z" fill="#02FFFF"/>
<path d="M280.265 720.042C274.302 714.078 274.302 705.134 280.265 699.171L319.025 657.429C324.988 651.466 333.933 651.466 339.896 657.429C345.859 663.392 345.859 672.337 339.896 678.3L301.136 720.042C296.664 724.514 286.228 724.514 280.265 720.042Z" fill="#02FFFF"/>
<path d="M673.828 301.135C667.865 295.172 667.865 286.228 673.828 280.265L712.588 238.523C718.551 232.56 727.495 232.56 733.459 238.523C739.422 244.486 739.422 253.431 733.459 259.394L694.699 301.135C690.226 307.098 679.791 307.098 673.828 301.135Z" fill="#02FFFF"/>
<path d="M386.11 763.274C378.656 760.292 375.675 751.348 378.656 743.894L399.527 696.189C402.509 688.735 411.453 685.754 418.907 688.735C426.361 691.717 429.342 700.662 426.361 708.115L405.49 755.82C402.508 763.274 393.564 766.255 386.11 763.274Z" fill="#02FFFF"/>
<path d="M596.309 269.829C588.855 266.848 585.874 257.903 588.855 250.449L609.726 202.745C612.708 195.291 621.652 192.309 629.106 195.291C636.56 198.272 639.542 207.217 636.56 214.671L615.689 262.375C612.708 269.829 603.763 274.302 596.309 269.829Z" fill="#02FFFF"/>
<path d="M474.562 664.883C361.263 664.883 252.437 602.271 168.954 487.482C164.482 481.519 164.482 475.555 168.954 469.592C252.437 354.803 361.263 292.191 474.562 292.191C587.86 292.191 696.686 354.803 780.169 469.592C784.642 475.555 784.642 481.519 780.169 487.482C696.686 602.271 587.86 664.883 474.562 664.883ZM200.26 478.537C277.78 579.909 374.68 635.068 476.052 635.068C577.425 635.068 672.834 579.909 750.354 478.537C672.834 378.655 575.934 323.497 474.562 323.497C373.189 323.497 276.289 378.655 200.26 478.537Z" fill="#FF0201"/>
<path d="M618.065 478.537C618.065 557.791 553.816 622.04 474.562 622.04C395.307 622.04 331.059 557.791 331.059 478.537C331.059 399.282 395.307 335.034 474.562 335.034C553.816 335.034 618.065 399.282 618.065 478.537Z" stroke="#FF0201" stroke-width="35"/>
<path d="M534.581 478.537C534.581 511.685 507.709 538.557 474.561 538.557C441.413 538.557 414.541 511.685 414.541 478.537C414.541 445.389 441.413 418.517 474.561 418.517C507.709 418.517 534.581 445.389 534.581 478.537Z" stroke="#FF0201" stroke-width="35"/>
<path d="M476.052 259.394C467.108 259.394 461.145 251.94 461.145 244.486V193.8C461.145 184.855 467.108 178.892 476.052 178.892C484.997 178.892 490.96 186.346 490.96 193.8V244.486C490.96 253.431 484.997 259.394 476.052 259.394Z" fill="#FF0201"/>
<path d="M471.58 779.672C462.635 779.672 456.672 772.218 456.672 764.765V714.078C456.672 705.134 464.126 699.171 471.58 699.171C480.524 699.171 486.487 706.625 486.487 714.078V764.765C486.487 772.218 480.524 779.672 471.58 779.672Z" fill="#FF0201"/>
<path d="M370.207 260.885L350.827 211.689C347.846 204.235 350.827 195.291 359.772 192.309C367.226 189.328 376.17 192.309 379.152 201.254L398.532 250.449C401.513 257.903 398.532 266.848 389.587 269.829C382.133 272.811 373.189 268.338 370.207 260.885Z" fill="#FF0201"/>
<path d="M571.461 755.82L552.081 706.625C549.099 699.171 552.081 690.226 561.026 687.245C568.479 684.263 577.424 687.245 580.406 696.189L598.295 745.385C601.276 752.839 598.295 761.783 589.35 764.765C583.387 767.746 574.442 764.765 571.461 755.82Z" fill="#FF0201"/>
<path d="M289.706 298.154L252.437 256.412C246.474 250.449 247.964 241.505 253.927 235.542C259.891 229.578 268.835 231.069 274.798 237.032L312.067 278.774C318.031 284.737 316.54 293.682 310.577 299.645C304.614 305.608 295.669 304.117 289.706 298.154Z" fill="#FF0201"/>
<path d="M675.815 721.532L638.546 679.791C632.583 673.828 634.074 664.883 640.037 658.92C646 652.957 654.945 654.448 660.908 660.411L698.177 702.152C704.14 708.115 702.649 717.06 696.686 723.023C690.723 727.495 681.778 727.495 675.815 721.532Z" fill="#FF0201"/>
<path d="M225.603 353.312L173.426 323.497C165.972 319.025 164.482 310.08 167.463 302.626C171.935 295.172 180.88 293.682 188.334 296.663L240.511 326.478C247.965 330.951 249.455 339.895 246.474 347.349C242.002 354.803 233.057 357.785 225.603 353.312Z" fill="#FF0201"/>
<path d="M760.79 660.411L708.613 630.595C701.159 626.123 698.178 617.178 702.65 611.215C707.122 603.762 716.067 602.271 723.521 605.252L775.698 635.068C783.152 639.54 784.642 648.485 781.661 655.938C777.189 663.392 768.244 664.883 760.79 660.411Z" fill="#FF0201"/>
<path d="M165.972 652.957C161.5 645.503 164.482 636.559 171.935 632.086L225.603 602.271C233.057 597.799 242.002 600.78 246.474 608.234C250.946 615.688 247.965 624.632 240.511 629.105L186.843 658.92C177.899 661.902 168.954 658.92 165.972 652.957Z" fill="#FF0201"/>
<path d="M705.631 350.331C701.158 342.877 704.14 333.932 711.594 329.46L765.261 299.645C772.715 295.172 781.66 298.154 786.132 305.608C790.604 313.062 787.623 322.006 780.169 326.478L726.501 356.294C717.557 359.275 708.612 357.785 705.631 350.331Z" fill="#FF0201"/>
<path d="M247.964 720.042C242.001 714.078 242.001 705.134 247.964 699.171L286.724 657.429C292.688 651.466 301.632 651.466 307.595 657.429C313.558 663.392 313.558 672.337 307.595 678.3L268.835 720.042C264.363 724.514 253.928 724.514 247.964 720.042Z" fill="#FF0201"/>
<path d="M641.527 301.135C635.564 295.172 635.564 286.228 641.527 280.265L680.287 238.523C686.25 232.56 695.195 232.56 701.158 238.523C707.121 244.486 707.121 253.431 701.158 259.394L662.398 301.135C657.925 307.098 647.49 307.098 641.527 301.135Z" fill="#FF0201"/>
<path d="M353.809 763.274C346.355 760.292 343.374 751.348 346.355 743.894L367.226 696.189C370.208 688.735 379.152 685.754 386.606 688.735C394.06 691.717 397.042 700.662 394.06 708.115L373.189 755.82C370.208 763.274 361.263 766.255 353.809 763.274Z" fill="#FF0201"/>
<path d="M564.008 269.829C556.555 266.848 553.573 257.903 556.555 250.449L577.425 202.745C580.407 195.291 589.352 192.309 596.805 195.291C604.259 198.272 607.241 207.217 604.259 214.671L583.389 262.375C580.407 269.829 571.462 274.302 564.008 269.829Z" fill="#FF0201"/>
<path d="M487.481 664.883C374.183 664.883 265.357 602.271 181.874 487.482C177.401 481.518 177.401 475.555 181.874 469.592C265.357 354.803 374.183 292.191 487.481 292.191C600.78 292.191 709.606 354.803 793.089 469.592C797.562 475.555 797.562 481.518 793.089 487.482C709.606 602.271 600.78 664.883 487.481 664.883ZM213.18 478.537C290.7 579.909 387.6 635.068 488.972 635.068C590.345 635.068 685.754 579.909 763.274 478.537C685.754 378.655 588.854 323.497 487.481 323.497C386.109 323.497 289.209 378.655 213.18 478.537Z" fill="black"/>
<path d="M630.985 478.537C630.985 557.791 566.736 622.04 487.482 622.04C408.227 622.04 343.979 557.791 343.979 478.537C343.979 399.282 408.227 335.034 487.482 335.034C566.736 335.034 630.985 399.282 630.985 478.537Z" stroke="black" stroke-width="35"/>
<path d="M547.501 478.537C547.501 511.685 520.629 538.557 487.481 538.557C454.333 538.557 427.461 511.685 427.461 478.537C427.461 445.389 454.333 418.517 487.481 418.517C520.629 418.517 547.501 445.389 547.501 478.537Z" stroke="black" stroke-width="35"/>
<path d="M488.972 259.394C480.028 259.394 474.064 251.94 474.064 244.486V193.8C474.064 184.855 480.028 178.892 488.972 178.892C497.917 178.892 503.88 186.346 503.88 193.8V244.486C503.88 253.431 497.917 259.394 488.972 259.394Z" fill="black"/>
<path d="M484.499 779.672C475.555 779.672 469.592 772.218 469.592 764.765V714.078C469.592 705.134 477.046 699.171 484.499 699.171C493.444 699.171 499.407 706.625 499.407 714.078V764.765C499.407 772.218 493.444 779.672 484.499 779.672Z" fill="black"/>
<path d="M383.127 260.885L363.747 211.689C360.765 204.235 363.747 195.291 372.692 192.309C380.145 189.328 389.09 192.309 392.072 201.254L411.452 250.449C414.433 257.903 411.452 266.848 402.507 269.829C395.053 272.811 386.109 268.338 383.127 260.885Z" fill="black"/>
<path d="M584.381 755.82L565.001 706.625C562.019 699.171 565.001 690.226 573.945 687.245C581.399 684.263 590.344 687.245 593.325 696.189L611.215 745.385C614.196 752.838 611.215 761.783 602.27 764.765C596.307 767.746 587.362 764.765 584.381 755.82Z" fill="black"/>
<path d="M302.626 298.154L265.357 256.412C259.394 250.449 260.884 241.505 266.847 235.542C272.81 229.578 281.755 231.069 287.718 237.032L324.987 278.774C330.95 284.737 329.46 293.682 323.497 299.645C317.534 305.608 308.589 304.117 302.626 298.154Z" fill="black"/>
<path d="M688.735 721.532L651.466 679.791C645.503 673.828 646.994 664.883 652.957 658.92C658.92 652.957 667.864 654.448 673.828 660.411L711.097 702.152C717.06 708.115 715.569 717.06 709.606 723.023C703.643 727.495 694.698 727.495 688.735 721.532Z" fill="black"/>
<path d="M238.523 353.312L186.346 323.497C178.892 319.025 177.402 310.08 180.383 302.626C184.855 295.172 193.8 293.682 201.254 296.663L253.431 326.478C260.885 330.951 262.375 339.895 259.394 347.349C254.922 354.803 245.977 357.785 238.523 353.312Z" fill="black"/>
<path d="M773.71 660.411L721.533 630.595C714.079 626.123 711.098 617.178 715.57 611.215C720.042 603.762 728.987 602.271 736.441 605.252L788.618 635.068C796.072 639.54 797.562 648.485 794.581 655.938C790.108 663.392 781.164 664.883 773.71 660.411Z" fill="black"/>
<path d="M178.892 652.957C174.42 645.503 177.402 636.559 184.855 632.086L238.523 602.271C245.977 597.799 254.922 600.78 259.394 608.234C263.866 615.688 260.885 624.632 253.431 629.105L199.763 658.92C190.818 661.902 181.874 658.92 178.892 652.957Z" fill="black"/>
<path d="M718.551 350.331C714.078 342.877 717.06 333.932 724.514 329.46L778.181 299.645C785.635 295.172 794.58 298.154 799.052 305.608C803.524 313.062 800.543 322.006 793.089 326.478L739.421 356.294C730.477 359.275 721.532 357.785 718.551 350.331Z" fill="black"/>
<path d="M260.884 720.042C254.921 714.078 254.921 705.134 260.884 699.171L299.644 657.429C305.607 651.466 314.552 651.466 320.515 657.429C326.478 663.392 326.478 672.337 320.515 678.3L281.755 720.042C277.283 724.514 266.847 724.514 260.884 720.042Z" fill="black"/>
<path d="M654.447 301.135C648.484 295.172 648.484 286.228 654.447 280.265L693.207 238.523C699.17 232.56 708.115 232.56 714.078 238.523C720.041 244.486 720.041 253.431 714.078 259.394L675.318 301.135C670.845 307.098 660.41 307.098 654.447 301.135Z" fill="black"/>
<path d="M366.729 763.274C359.275 760.292 356.294 751.348 359.275 743.894L380.146 696.189C383.128 688.735 392.072 685.754 399.526 688.735C406.98 691.717 409.961 700.662 406.98 708.115L386.109 755.82C383.128 763.274 374.183 766.255 366.729 763.274Z" fill="black"/>
<path d="M576.928 269.829C569.475 266.848 566.493 257.903 569.475 250.449L590.345 202.745C593.327 195.291 602.272 192.309 609.725 195.291C617.179 198.272 620.161 207.217 617.179 214.671L596.308 262.375C593.327 269.829 584.382 274.302 576.928 269.829Z" fill="black"/>
</g>
</g>
<defs>
<clipPath id="clip0_491_236524">
<rect width="969" height="969" fill="white"/>
</clipPath>
</defs>
</svg>
